%TF.GenerationSoftware,KiCad,Pcbnew,9.0.6*%
%TF.CreationDate,2025-11-24T18:54:56-06:00*%
%TF.ProjectId,Endor_N_scale_bassic_DCC_decoder_mk1,456e646f-725f-44e5-9f73-63616c655f62,rev?*%
%TF.SameCoordinates,Original*%
%TF.FileFunction,Copper,L2,Bot*%
%TF.FilePolarity,Positive*%
%FSLAX46Y46*%
G04 Gerber Fmt 4.6, Leading zero omitted, Abs format (unit mm)*
G04 Created by KiCad (PCBNEW 9.0.6) date 2025-11-24 18:54:56*
%MOMM*%
%LPD*%
G01*
G04 APERTURE LIST*
G04 Aperture macros list*
%AMRoundRect*
0 Rectangle with rounded corners*
0 $1 Rounding radius*
0 $2 $3 $4 $5 $6 $7 $8 $9 X,Y pos of 4 corners*
0 Add a 4 corners polygon primitive as box body*
4,1,4,$2,$3,$4,$5,$6,$7,$8,$9,$2,$3,0*
0 Add four circle primitives for the rounded corners*
1,1,$1+$1,$2,$3*
1,1,$1+$1,$4,$5*
1,1,$1+$1,$6,$7*
1,1,$1+$1,$8,$9*
0 Add four rect primitives between the rounded corners*
20,1,$1+$1,$2,$3,$4,$5,0*
20,1,$1+$1,$4,$5,$6,$7,0*
20,1,$1+$1,$6,$7,$8,$9,0*
20,1,$1+$1,$8,$9,$2,$3,0*%
%AMFreePoly0*
4,1,6,1.000000,0.000000,0.500000,-0.750000,-0.500000,-0.750000,-0.500000,0.750000,0.500000,0.750000,1.000000,0.000000,1.000000,0.000000,$1*%
%AMFreePoly1*
4,1,6,0.500000,-0.750000,-0.650000,-0.750000,-0.150000,0.000000,-0.650000,0.750000,0.500000,0.750000,0.500000,-0.750000,0.500000,-0.750000,$1*%
G04 Aperture macros list end*
%TA.AperFunction,SMDPad,CuDef*%
%ADD10RoundRect,0.250000X-0.350000X-0.450000X0.350000X-0.450000X0.350000X0.450000X-0.350000X0.450000X0*%
%TD*%
%TA.AperFunction,SMDPad,CuDef*%
%ADD11FreePoly0,0.000000*%
%TD*%
%TA.AperFunction,SMDPad,CuDef*%
%ADD12FreePoly1,0.000000*%
%TD*%
%TA.AperFunction,SMDPad,CuDef*%
%ADD13FreePoly0,180.000000*%
%TD*%
%TA.AperFunction,SMDPad,CuDef*%
%ADD14FreePoly1,180.000000*%
%TD*%
%TA.AperFunction,ComponentPad*%
%ADD15R,1.000000X1.000000*%
%TD*%
%TA.AperFunction,ComponentPad*%
%ADD16C,1.000000*%
%TD*%
%TA.AperFunction,SMDPad,CuDef*%
%ADD17RoundRect,0.250000X-0.337500X-0.475000X0.337500X-0.475000X0.337500X0.475000X-0.337500X0.475000X0*%
%TD*%
%TA.AperFunction,ViaPad*%
%ADD18C,0.800000*%
%TD*%
%TA.AperFunction,ViaPad*%
%ADD19C,0.600000*%
%TD*%
%TA.AperFunction,Conductor*%
%ADD20C,0.250000*%
%TD*%
%TA.AperFunction,Conductor*%
%ADD21C,0.762000*%
%TD*%
G04 APERTURE END LIST*
D10*
%TO.P,R7,1*%
%TO.N,Net-(JP1-B)*%
X96750000Y-82050000D03*
%TO.P,R7,2*%
%TO.N,PB1*%
X98750000Y-82050000D03*
%TD*%
%TO.P,R6,1*%
%TO.N,Net-(JP1-B)*%
X96750000Y-84250000D03*
%TO.P,R6,2*%
%TO.N,PB0*%
X98750000Y-84250000D03*
%TD*%
D11*
%TO.P,DOWN,1,A*%
%TO.N,GND*%
X95050000Y-86500000D03*
D12*
%TO.P,DOWN,2,B*%
%TO.N,Net-(JP1-B)*%
X96500000Y-86500000D03*
%TD*%
D13*
%TO.P,UP,1,A*%
%TO.N,+5V*%
X96750000Y-79750000D03*
D14*
%TO.P,UP,2,B*%
%TO.N,Net-(JP1-B)*%
X95300000Y-79750000D03*
%TD*%
D15*
%TO.P,J3,1,Pin_1*%
%TO.N,unconnected-(J3-Pin_1-Pad1)*%
X94650000Y-104000000D03*
D16*
%TO.P,J3,2,Pin_2*%
%TO.N,unconnected-(J3-Pin_2-Pad2)*%
X95920000Y-104000000D03*
%TO.P,J3,3,Pin_3*%
%TO.N,Right Rail*%
X97190000Y-104000000D03*
%TO.P,J3,4,Pin_4*%
%TO.N,Left Rail*%
X98460000Y-104000000D03*
%TO.P,J3,5,Pin_5*%
%TO.N,DCC Pin5*%
X99730000Y-104000000D03*
%TO.P,J3,6,Pin_6*%
%TO.N,DCC Pin6*%
X101000000Y-104000000D03*
%TD*%
%TO.P,J2,4,Pin_4*%
%TO.N,PB0*%
X104337500Y-83500000D03*
%TO.P,J2,3,Pin_3*%
%TO.N,PB1*%
X104337500Y-82230000D03*
%TO.P,J2,2,Pin_2*%
%TO.N,INT0*%
X104337500Y-80960000D03*
D15*
%TO.P,J2,1,Pin_1*%
%TO.N,+5V*%
X104337500Y-79690000D03*
%TD*%
%TO.P,J1,1,Pin_1*%
%TO.N,Net-(J1-Pin_1)*%
X91337500Y-79690000D03*
D16*
%TO.P,J1,2,Pin_2*%
%TO.N,Net-(J1-Pin_2)*%
X91337500Y-80960000D03*
%TO.P,J1,3,Pin_3*%
%TO.N,Net-(J1-Pin_3)*%
X91337500Y-82230000D03*
%TO.P,J1,4,Pin_4*%
%TO.N,GND*%
X91337500Y-83500000D03*
%TD*%
D17*
%TO.P,C3,1*%
%TO.N,GND*%
X99762500Y-79500000D03*
%TO.P,C3,2*%
%TO.N,+5V*%
X101837500Y-79500000D03*
%TD*%
D18*
%TO.N,GND*%
X98000000Y-97000000D03*
X94000000Y-96000000D03*
D19*
X105500000Y-79000000D03*
D18*
X93500000Y-84250000D03*
X92500000Y-90500000D03*
X92500000Y-88000000D03*
X91000000Y-87000000D03*
D19*
X98000000Y-86000000D03*
X103500000Y-89000000D03*
X100000000Y-97000000D03*
X97000000Y-91500000D03*
D18*
X96500000Y-89500000D03*
X105500000Y-85000000D03*
X105500000Y-88000000D03*
X105500000Y-95000000D03*
X105500000Y-98000000D03*
X104000000Y-92500000D03*
D19*
X101000000Y-92500000D03*
D18*
X91000000Y-89500000D03*
X91500000Y-92500000D03*
X91250000Y-95500000D03*
%TO.N,+5V*%
X97500000Y-78750000D03*
%TD*%
D20*
%TO.N,Net-(JP1-B)*%
X96750000Y-84250000D02*
X96750000Y-86250000D01*
X96750000Y-86250000D02*
X96500000Y-86500000D01*
X96750000Y-82050000D02*
X95300000Y-80600000D01*
X95300000Y-80600000D02*
X95300000Y-79750000D01*
X96750000Y-82050000D02*
X96750000Y-84250000D01*
%TO.N,PB0*%
X98750000Y-84250000D02*
X103587500Y-84250000D01*
X103587500Y-84250000D02*
X104337500Y-83500000D01*
%TO.N,PB1*%
X98750000Y-82050000D02*
X104157500Y-82050000D01*
X104157500Y-82050000D02*
X104337500Y-82230000D01*
D21*
%TO.N,+5V*%
X97500000Y-79000000D02*
X97500000Y-78750000D01*
X96750000Y-79750000D02*
X97500000Y-79000000D01*
X101837500Y-79500000D02*
X104147500Y-79500000D01*
X104147500Y-79500000D02*
X104337500Y-79690000D01*
%TD*%
%TA.AperFunction,Conductor*%
%TO.N,GND*%
G36*
X90633679Y-78520185D02*
G01*
X90679434Y-78572989D01*
X90689378Y-78642147D01*
X90660353Y-78705703D01*
X90609973Y-78740682D01*
X90595171Y-78746202D01*
X90595164Y-78746206D01*
X90479955Y-78832452D01*
X90479952Y-78832455D01*
X90393706Y-78947664D01*
X90393702Y-78947671D01*
X90343408Y-79082517D01*
X90337001Y-79142116D01*
X90337001Y-79142123D01*
X90337000Y-79142135D01*
X90337000Y-80237870D01*
X90337001Y-80237876D01*
X90343408Y-80297483D01*
X90393702Y-80432328D01*
X90393706Y-80432335D01*
X90402523Y-80444113D01*
X90426940Y-80509578D01*
X90417818Y-80565874D01*
X90395415Y-80619961D01*
X90375450Y-80668164D01*
X90375448Y-80668168D01*
X90375447Y-80668171D01*
X90337000Y-80861456D01*
X90337000Y-80861459D01*
X90337000Y-81058541D01*
X90337000Y-81058543D01*
X90336999Y-81058543D01*
X90375447Y-81251829D01*
X90375450Y-81251839D01*
X90450865Y-81433907D01*
X90450868Y-81433914D01*
X90494852Y-81499740D01*
X90512471Y-81526110D01*
X90533348Y-81592787D01*
X90514863Y-81660167D01*
X90512471Y-81663890D01*
X90450866Y-81756089D01*
X90375450Y-81938160D01*
X90375447Y-81938170D01*
X90337000Y-82131456D01*
X90337000Y-82131459D01*
X90337000Y-82328541D01*
X90337000Y-82328543D01*
X90336999Y-82328543D01*
X90375447Y-82521829D01*
X90375450Y-82521839D01*
X90450865Y-82703907D01*
X90450868Y-82703914D01*
X90468706Y-82730610D01*
X90512771Y-82796559D01*
X90533648Y-82863236D01*
X90515163Y-82930616D01*
X90512771Y-82934339D01*
X90451309Y-83026325D01*
X90375930Y-83208306D01*
X90375927Y-83208318D01*
X90337500Y-83401504D01*
X90337500Y-83598495D01*
X90375927Y-83791681D01*
X90375930Y-83791693D01*
X90451308Y-83973673D01*
X90451309Y-83973675D01*
X90474926Y-84009019D01*
X91012500Y-83471445D01*
X91012500Y-83542787D01*
X91034649Y-83625445D01*
X91077436Y-83699554D01*
X91137946Y-83760064D01*
X91212055Y-83802851D01*
X91294713Y-83825000D01*
X91380287Y-83825000D01*
X91462945Y-83802851D01*
X91537054Y-83760064D01*
X91597564Y-83699554D01*
X91640351Y-83625445D01*
X91662500Y-83542787D01*
X91662500Y-83471447D01*
X92200072Y-84009020D01*
X92200073Y-84009019D01*
X92223687Y-83973680D01*
X92223690Y-83973676D01*
X92299069Y-83791693D01*
X92299072Y-83791681D01*
X92337499Y-83598495D01*
X92337500Y-83598492D01*
X92337500Y-83401508D01*
X92337499Y-83401504D01*
X92299072Y-83208318D01*
X92299069Y-83208306D01*
X92223692Y-83026328D01*
X92223688Y-83026321D01*
X92162228Y-82934341D01*
X92141350Y-82867663D01*
X92159834Y-82800283D01*
X92162204Y-82796595D01*
X92224132Y-82703914D01*
X92224490Y-82703051D01*
X92299549Y-82521839D01*
X92299551Y-82521835D01*
X92338000Y-82328541D01*
X92338000Y-82131459D01*
X92338000Y-82131456D01*
X92299552Y-81938170D01*
X92299551Y-81938169D01*
X92299551Y-81938165D01*
X92256442Y-81834090D01*
X92224135Y-81756092D01*
X92224133Y-81756088D01*
X92224132Y-81756086D01*
X92162529Y-81663891D01*
X92141651Y-81597214D01*
X92160135Y-81529834D01*
X92162529Y-81526109D01*
X92175372Y-81506887D01*
X92224132Y-81433914D01*
X92229627Y-81420649D01*
X92241221Y-81392655D01*
X92299551Y-81251835D01*
X92322403Y-81136954D01*
X92338000Y-81058543D01*
X92338000Y-80861456D01*
X92299552Y-80668170D01*
X92299551Y-80668169D01*
X92299551Y-80668165D01*
X92257180Y-80565873D01*
X92249712Y-80496407D01*
X92272477Y-80444111D01*
X92281296Y-80432331D01*
X92331591Y-80297483D01*
X92338000Y-80237873D01*
X92337999Y-79142128D01*
X92331591Y-79082517D01*
X92291486Y-78974991D01*
X92281297Y-78947671D01*
X92281293Y-78947664D01*
X92195047Y-78832455D01*
X92195044Y-78832452D01*
X92079835Y-78746206D01*
X92079828Y-78746202D01*
X92065027Y-78740682D01*
X92009093Y-78698811D01*
X91984676Y-78633346D01*
X91999528Y-78565073D01*
X92048933Y-78515668D01*
X92108360Y-78500500D01*
X94299233Y-78500500D01*
X94366272Y-78520185D01*
X94412027Y-78572989D01*
X94421971Y-78642147D01*
X94392946Y-78705701D01*
X94392792Y-78705880D01*
X94374747Y-78726704D01*
X94374744Y-78726709D01*
X94314976Y-78857580D01*
X94314975Y-78857585D01*
X94294500Y-78999999D01*
X94294500Y-80500002D01*
X94299644Y-80571940D01*
X94340182Y-80709994D01*
X94417967Y-80831030D01*
X94417971Y-80831034D01*
X94515086Y-80915185D01*
X94526706Y-80925254D01*
X94567174Y-80943735D01*
X94657580Y-80985023D01*
X94657583Y-80985023D01*
X94657584Y-80985024D01*
X94783569Y-81003137D01*
X94803710Y-81012335D01*
X94825348Y-81017042D01*
X94843072Y-81030310D01*
X94847124Y-81032161D01*
X94853602Y-81038193D01*
X94901267Y-81085858D01*
X94901268Y-81085858D01*
X94908336Y-81092926D01*
X95613181Y-81797771D01*
X95646666Y-81859094D01*
X95649500Y-81885452D01*
X95649500Y-82550001D01*
X95649501Y-82550019D01*
X95660000Y-82652796D01*
X95660001Y-82652799D01*
X95707490Y-82796109D01*
X95715186Y-82819334D01*
X95786122Y-82934341D01*
X95807289Y-82968657D01*
X95900951Y-83062319D01*
X95934436Y-83123642D01*
X95929452Y-83193334D01*
X95900951Y-83237681D01*
X95807289Y-83331342D01*
X95715187Y-83480663D01*
X95715185Y-83480668D01*
X95695689Y-83539505D01*
X95660001Y-83647203D01*
X95660001Y-83647204D01*
X95660000Y-83647204D01*
X95649500Y-83749983D01*
X95649500Y-84750001D01*
X95649501Y-84750019D01*
X95660000Y-84852796D01*
X95660001Y-84852799D01*
X95715185Y-85019331D01*
X95715186Y-85019334D01*
X95759940Y-85091893D01*
X95778380Y-85159284D01*
X95757457Y-85225947D01*
X95703815Y-85270717D01*
X95691331Y-85275361D01*
X95632309Y-85293774D01*
X95632308Y-85293775D01*
X95512595Y-85373584D01*
X95420211Y-85483894D01*
X95362651Y-85615754D01*
X95344570Y-85758490D01*
X95367438Y-85900545D01*
X95367439Y-85900548D01*
X95429399Y-86030401D01*
X95696609Y-86431216D01*
X95717417Y-86497915D01*
X95698862Y-86565276D01*
X95696609Y-86568782D01*
X95429399Y-86969598D01*
X95390182Y-87040005D01*
X95390179Y-87040012D01*
X95349645Y-87178058D01*
X95349645Y-87321940D01*
X95390182Y-87459994D01*
X95467967Y-87581030D01*
X95467971Y-87581034D01*
X95576700Y-87675249D01*
X95576706Y-87675254D01*
X95617174Y-87693735D01*
X95707580Y-87735023D01*
X95707583Y-87735023D01*
X95707584Y-87735024D01*
X95850000Y-87755500D01*
X95850003Y-87755500D01*
X97000000Y-87755500D01*
X97071940Y-87750355D01*
X97209992Y-87709819D01*
X97331032Y-87632031D01*
X97425254Y-87523294D01*
X97485024Y-87392416D01*
X97505500Y-87250000D01*
X97505500Y-85750000D01*
X97500355Y-85678060D01*
X97459819Y-85540008D01*
X97445194Y-85517251D01*
X97425509Y-85450211D01*
X97445193Y-85383172D01*
X97484409Y-85344675D01*
X97568656Y-85292712D01*
X97662319Y-85199049D01*
X97723642Y-85165564D01*
X97793334Y-85170548D01*
X97837681Y-85199049D01*
X97931344Y-85292712D01*
X98080666Y-85384814D01*
X98247203Y-85439999D01*
X98349991Y-85450500D01*
X99150008Y-85450499D01*
X99150016Y-85450498D01*
X99150019Y-85450498D01*
X99206302Y-85444748D01*
X99252797Y-85439999D01*
X99419334Y-85384814D01*
X99568656Y-85292712D01*
X99692712Y-85168656D01*
X99784814Y-85019334D01*
X99804311Y-84960493D01*
X99844084Y-84903051D01*
X99908600Y-84876228D01*
X99922017Y-84875500D01*
X103649107Y-84875500D01*
X103709529Y-84863481D01*
X103769952Y-84851463D01*
X103803292Y-84837652D01*
X103883786Y-84804312D01*
X103935009Y-84770084D01*
X103986233Y-84735858D01*
X104073358Y-84648733D01*
X104073360Y-84648729D01*
X104185272Y-84536816D01*
X104246593Y-84503334D01*
X104272951Y-84500500D01*
X104436043Y-84500500D01*
X104566082Y-84474632D01*
X104629335Y-84462051D01*
X104811414Y-84386632D01*
X104975282Y-84277139D01*
X105114639Y-84137782D01*
X105224132Y-83973914D01*
X105299551Y-83791835D01*
X105328320Y-83647204D01*
X105338000Y-83598543D01*
X105338000Y-83401456D01*
X105299552Y-83208170D01*
X105299551Y-83208169D01*
X105299551Y-83208165D01*
X105293408Y-83193334D01*
X105224135Y-83026092D01*
X105224133Y-83026088D01*
X105224132Y-83026086D01*
X105162529Y-82933891D01*
X105141651Y-82867214D01*
X105160135Y-82799834D01*
X105162529Y-82796109D01*
X105175372Y-82776887D01*
X105224132Y-82703914D01*
X105224490Y-82703051D01*
X105299549Y-82521839D01*
X105299551Y-82521835D01*
X105338000Y-82328541D01*
X105338000Y-82131459D01*
X105338000Y-82131456D01*
X105299552Y-81938170D01*
X105299551Y-81938169D01*
X105299551Y-81938165D01*
X105256442Y-81834090D01*
X105224135Y-81756092D01*
X105224133Y-81756088D01*
X105224132Y-81756086D01*
X105162529Y-81663891D01*
X105141651Y-81597214D01*
X105160135Y-81529834D01*
X105162529Y-81526109D01*
X105175372Y-81506887D01*
X105224132Y-81433914D01*
X105229627Y-81420649D01*
X105241221Y-81392655D01*
X105299551Y-81251835D01*
X105322403Y-81136954D01*
X105338000Y-81058543D01*
X105338000Y-80861456D01*
X105299552Y-80668170D01*
X105299551Y-80668169D01*
X105299551Y-80668165D01*
X105257180Y-80565873D01*
X105249712Y-80496407D01*
X105272477Y-80444111D01*
X105281296Y-80432331D01*
X105331591Y-80297483D01*
X105338000Y-80237873D01*
X105337999Y-79142128D01*
X105331591Y-79082517D01*
X105291486Y-78974991D01*
X105281297Y-78947671D01*
X105281293Y-78947664D01*
X105195047Y-78832455D01*
X105195044Y-78832452D01*
X105079835Y-78746206D01*
X105079828Y-78746202D01*
X105065027Y-78740682D01*
X105009093Y-78698811D01*
X104984676Y-78633346D01*
X104999528Y-78565073D01*
X105048933Y-78515668D01*
X105108360Y-78500500D01*
X105875500Y-78500500D01*
X105942539Y-78520185D01*
X105988294Y-78572989D01*
X105999500Y-78624500D01*
X105999500Y-98876000D01*
X105979815Y-98943039D01*
X105927011Y-98988794D01*
X105875500Y-99000000D01*
X97124000Y-99000000D01*
X97056961Y-98980315D01*
X97011206Y-98927511D01*
X97000000Y-98876000D01*
X97000000Y-96500000D01*
X90124500Y-96500000D01*
X90057461Y-96480315D01*
X90011706Y-96427511D01*
X90000500Y-96376000D01*
X90000500Y-84362572D01*
X90828479Y-84362572D01*
X90863828Y-84386192D01*
X91045806Y-84461569D01*
X91045818Y-84461572D01*
X91239004Y-84499999D01*
X91239008Y-84500000D01*
X91435992Y-84500000D01*
X91435995Y-84499999D01*
X91629181Y-84461572D01*
X91629193Y-84461569D01*
X91811176Y-84386190D01*
X91811180Y-84386187D01*
X91846519Y-84362573D01*
X91846520Y-84362572D01*
X91337501Y-83853553D01*
X91337500Y-83853553D01*
X90828479Y-84362572D01*
X90000500Y-84362572D01*
X90000500Y-78624500D01*
X90020185Y-78557461D01*
X90072989Y-78511706D01*
X90124500Y-78500500D01*
X90566640Y-78500500D01*
X90633679Y-78520185D01*
G37*
%TD.AperFunction*%
%TA.AperFunction,Conductor*%
G36*
X98712185Y-78520185D02*
G01*
X98757940Y-78572989D01*
X98767884Y-78642147D01*
X98750684Y-78689598D01*
X98740644Y-78705873D01*
X98740641Y-78705880D01*
X98685494Y-78872302D01*
X98685493Y-78872309D01*
X98675000Y-78975013D01*
X98675000Y-79250000D01*
X99638500Y-79250000D01*
X99705539Y-79269685D01*
X99751294Y-79322489D01*
X99762500Y-79374000D01*
X99762500Y-79500000D01*
X99888500Y-79500000D01*
X99955539Y-79519685D01*
X100001294Y-79572489D01*
X100012500Y-79624000D01*
X100012500Y-80724999D01*
X100149972Y-80724999D01*
X100149986Y-80724998D01*
X100252697Y-80714505D01*
X100419119Y-80659358D01*
X100419124Y-80659356D01*
X100568345Y-80567315D01*
X100692318Y-80443342D01*
X100694165Y-80440348D01*
X100695969Y-80438724D01*
X100696798Y-80437677D01*
X100696976Y-80437818D01*
X100746110Y-80393621D01*
X100815073Y-80382396D01*
X100879156Y-80410236D01*
X100905243Y-80440341D01*
X100907288Y-80443656D01*
X101031344Y-80567712D01*
X101180666Y-80659814D01*
X101347203Y-80714999D01*
X101449991Y-80725500D01*
X102225008Y-80725499D01*
X102225016Y-80725498D01*
X102225019Y-80725498D01*
X102281302Y-80719748D01*
X102327797Y-80714999D01*
X102494334Y-80659814D01*
X102643656Y-80567712D01*
X102767712Y-80443656D01*
X102768643Y-80442145D01*
X102769719Y-80440403D01*
X102771676Y-80438642D01*
X102772193Y-80437989D01*
X102772304Y-80438077D01*
X102821666Y-80393678D01*
X102875257Y-80381500D01*
X103293582Y-80381500D01*
X103297964Y-80382786D01*
X103302428Y-80381816D01*
X103331182Y-80392540D01*
X103360621Y-80401185D01*
X103364806Y-80405081D01*
X103367893Y-80406233D01*
X103392849Y-80431190D01*
X103402523Y-80444113D01*
X103426940Y-80509577D01*
X103417818Y-80565874D01*
X103395415Y-80619961D01*
X103375450Y-80668164D01*
X103375448Y-80668168D01*
X103375447Y-80668171D01*
X103337000Y-80861456D01*
X103337000Y-80861459D01*
X103337000Y-81058541D01*
X103337000Y-81058543D01*
X103336999Y-81058543D01*
X103375447Y-81251829D01*
X103375450Y-81251839D01*
X103375952Y-81253050D01*
X103376025Y-81253734D01*
X103377217Y-81257662D01*
X103376472Y-81257888D01*
X103383419Y-81322520D01*
X103352143Y-81384998D01*
X103292053Y-81420649D01*
X103261390Y-81424500D01*
X99922017Y-81424500D01*
X99854978Y-81404815D01*
X99809223Y-81352011D01*
X99804311Y-81339505D01*
X99798683Y-81322520D01*
X99784814Y-81280666D01*
X99692712Y-81131344D01*
X99568656Y-81007288D01*
X99568655Y-81007287D01*
X99483134Y-80954538D01*
X99436409Y-80902590D01*
X99425186Y-80833628D01*
X99453029Y-80769545D01*
X99498137Y-80739361D01*
X99512500Y-80724998D01*
X99512500Y-79750000D01*
X98675001Y-79750000D01*
X98675001Y-80024986D01*
X98685494Y-80127697D01*
X98740641Y-80294119D01*
X98740643Y-80294124D01*
X98832684Y-80443345D01*
X98956654Y-80567315D01*
X99042006Y-80619961D01*
X99088730Y-80671909D01*
X99099953Y-80740872D01*
X99072109Y-80804954D01*
X99014040Y-80843810D01*
X98976909Y-80849500D01*
X98349998Y-80849500D01*
X98349980Y-80849501D01*
X98247203Y-80860000D01*
X98247200Y-80860001D01*
X98080668Y-80915185D01*
X98080663Y-80915187D01*
X97931342Y-81007289D01*
X97837681Y-81100951D01*
X97829735Y-81105289D01*
X97824310Y-81112537D01*
X97799550Y-81121771D01*
X97776358Y-81134436D01*
X97767328Y-81133790D01*
X97758846Y-81136954D01*
X97733025Y-81131337D01*
X97706666Y-81129452D01*
X97697612Y-81123633D01*
X97690573Y-81122102D01*
X97662319Y-81100951D01*
X97598771Y-81037403D01*
X97565286Y-80976080D01*
X97570270Y-80906388D01*
X97592737Y-80868522D01*
X97675254Y-80773294D01*
X97723263Y-80668170D01*
X97735023Y-80642419D01*
X97735024Y-80642414D01*
X97738252Y-80619961D01*
X97755500Y-80500000D01*
X97755500Y-80042492D01*
X97775185Y-79975453D01*
X97791819Y-79954811D01*
X98184704Y-79561926D01*
X98184706Y-79561924D01*
X98281175Y-79417547D01*
X98347624Y-79257124D01*
X98370497Y-79142135D01*
X98381500Y-79086823D01*
X98381500Y-78946421D01*
X98383883Y-78922229D01*
X98400500Y-78838693D01*
X98400500Y-78661309D01*
X98397990Y-78648690D01*
X98399868Y-78627705D01*
X98396870Y-78606853D01*
X98402920Y-78593603D01*
X98404219Y-78579099D01*
X98417142Y-78562463D01*
X98425895Y-78543297D01*
X98438148Y-78535422D01*
X98447082Y-78523922D01*
X98466948Y-78516913D01*
X98484673Y-78505523D01*
X98509258Y-78501988D01*
X98512972Y-78500678D01*
X98519608Y-78500500D01*
X98645146Y-78500500D01*
X98712185Y-78520185D01*
G37*
%TD.AperFunction*%
%TD*%
M02*
