M48
; DRILL file {KiCad 9.0.6} date 2025-11-24T18:54:48-0600
; FORMAT={-:-/ absolute / metric / decimal}
; #@! TF.CreationDate,2025-11-24T18:54:48-06:00
; #@! TF.GenerationSoftware,Kicad,Pcbnew,9.0.6
; #@! TF.FileFunction,Plated,1,2,PTH
FMAT,2
METRIC
; #@! TA.AperFunction,Plated,PTH,ViaDrill
T1C0.300
; #@! TA.AperFunction,Plated,PTH,ViaDrill
T2C0.400
; #@! TA.AperFunction,Plated,PTH,ComponentDrill
T3C0.650
%
G90
G05
T1
X97.0Y-91.5
X98.0Y-86.0
X100.0Y-97.0
X101.0Y-92.5
X103.5Y-89.0
X105.5Y-79.0
T2
X91.0Y-87.0
X91.0Y-89.5
X91.25Y-95.5
X91.5Y-92.5
X92.5Y-88.0
X92.5Y-90.5
X93.5Y-84.25
X94.0Y-96.0
X96.5Y-89.5
X97.5Y-78.75
X98.0Y-97.0
X104.0Y-92.5
X105.5Y-85.0
X105.5Y-88.0
X105.5Y-95.0
X105.5Y-98.0
T3
X91.337Y-79.69
X91.337Y-80.96
X91.337Y-82.23
X91.337Y-83.5
X94.65Y-104.0
X95.92Y-104.0
X97.19Y-104.0
X98.46Y-104.0
X99.73Y-104.0
X101.0Y-104.0
X104.337Y-79.69
X104.337Y-80.96
X104.337Y-82.23
X104.337Y-83.5
M30
