%TF.GenerationSoftware,KiCad,Pcbnew,9.0.6*%
%TF.CreationDate,2025-11-24T18:54:56-06:00*%
%TF.ProjectId,Endor_N_scale_bassic_DCC_decoder_mk1,456e646f-725f-44e5-9f73-63616c655f62,rev?*%
%TF.SameCoordinates,Original*%
%TF.FileFunction,Legend,Bot*%
%TF.FilePolarity,Positive*%
%FSLAX46Y46*%
G04 Gerber Fmt 4.6, Leading zero omitted, Abs format (unit mm)*
G04 Created by KiCad (PCBNEW 9.0.6) date 2025-11-24 18:54:56*
%MOMM*%
%LPD*%
G01*
G04 APERTURE LIST*
%ADD10C,0.100000*%
%ADD11C,0.150000*%
%ADD12C,0.000000*%
%ADD13C,0.250000*%
%ADD14C,0.300000*%
%ADD15C,0.125000*%
%ADD16C,0.010000*%
%ADD17C,0.120000*%
G04 APERTURE END LIST*
D10*
X89750000Y-96500000D02*
X97250000Y-96500000D01*
X97250000Y-99750000D01*
X89750000Y-99750000D01*
X89750000Y-96500000D01*
G36*
X89750000Y-96500000D02*
G01*
X97250000Y-96500000D01*
X97250000Y-99750000D01*
X89750000Y-99750000D01*
X89750000Y-96500000D01*
G37*
D11*
X100869819Y-81836779D02*
X99869819Y-81836779D01*
X99869819Y-81836779D02*
X99869819Y-82217731D01*
X99869819Y-82217731D02*
X99917438Y-82312969D01*
X99917438Y-82312969D02*
X99965057Y-82360588D01*
X99965057Y-82360588D02*
X100060295Y-82408207D01*
X100060295Y-82408207D02*
X100203152Y-82408207D01*
X100203152Y-82408207D02*
X100298390Y-82360588D01*
X100298390Y-82360588D02*
X100346009Y-82312969D01*
X100346009Y-82312969D02*
X100393628Y-82217731D01*
X100393628Y-82217731D02*
X100393628Y-81836779D01*
X99869819Y-82836779D02*
X100679342Y-82836779D01*
X100679342Y-82836779D02*
X100774580Y-82884398D01*
X100774580Y-82884398D02*
X100822200Y-82932017D01*
X100822200Y-82932017D02*
X100869819Y-83027255D01*
X100869819Y-83027255D02*
X100869819Y-83217731D01*
X100869819Y-83217731D02*
X100822200Y-83312969D01*
X100822200Y-83312969D02*
X100774580Y-83360588D01*
X100774580Y-83360588D02*
X100679342Y-83408207D01*
X100679342Y-83408207D02*
X99869819Y-83408207D01*
X100869819Y-84360588D02*
X100869819Y-83884398D01*
X100869819Y-83884398D02*
X99869819Y-83884398D01*
X100869819Y-85170112D02*
X100869819Y-84693922D01*
X100869819Y-84693922D02*
X99869819Y-84693922D01*
D12*
G36*
X99194521Y-93719646D02*
G01*
X99198555Y-93762402D01*
X99201478Y-93806639D01*
X99202968Y-93852618D01*
X99203073Y-93876342D01*
X99202699Y-93900601D01*
X99201803Y-93925426D01*
X99200347Y-93950850D01*
X99198289Y-93976907D01*
X99195589Y-94003628D01*
X99192206Y-94031047D01*
X99188100Y-94059196D01*
X99183217Y-94088108D01*
X99177455Y-94117799D01*
X99170701Y-94148278D01*
X99162843Y-94179553D01*
X99153767Y-94211634D01*
X99143361Y-94244529D01*
X99131512Y-94278247D01*
X99118107Y-94312797D01*
X99103034Y-94348187D01*
X99086179Y-94384427D01*
X99067429Y-94421525D01*
X99046673Y-94459490D01*
X99023796Y-94498331D01*
X98998687Y-94538056D01*
X98991042Y-94549367D01*
X98971232Y-94578675D01*
X98941319Y-94620195D01*
X98908899Y-94662593D01*
X98874185Y-94705691D01*
X98837458Y-94749269D01*
X98798998Y-94793110D01*
X98759084Y-94836994D01*
X98717997Y-94880703D01*
X98633424Y-94966718D01*
X98547517Y-95049407D01*
X98462517Y-95127017D01*
X98380665Y-95197799D01*
X98304200Y-95260001D01*
X98268418Y-95287472D01*
X98233990Y-95312644D01*
X98200758Y-95335653D01*
X98168566Y-95356634D01*
X98137254Y-95375722D01*
X98106666Y-95393053D01*
X98076644Y-95408761D01*
X98047029Y-95422983D01*
X98017664Y-95435852D01*
X97988392Y-95447505D01*
X97959054Y-95458076D01*
X97929493Y-95467701D01*
X97899550Y-95476515D01*
X97869069Y-95484654D01*
X97805858Y-95499444D01*
X97737201Y-95513266D01*
X97661982Y-95526353D01*
X97581254Y-95538346D01*
X97496072Y-95548886D01*
X97407491Y-95557617D01*
X97316565Y-95564178D01*
X97224348Y-95568213D01*
X97131894Y-95569362D01*
X97039220Y-95567419D01*
X96945882Y-95562430D01*
X96852252Y-95554417D01*
X96758700Y-95543404D01*
X96665594Y-95529413D01*
X96573306Y-95512469D01*
X96482206Y-95492593D01*
X96392663Y-95469808D01*
X96304245Y-95443754D01*
X96260193Y-95429298D01*
X96216237Y-95413832D01*
X96172371Y-95397313D01*
X96128589Y-95379701D01*
X96084884Y-95360952D01*
X96041249Y-95341025D01*
X95997679Y-95319876D01*
X95954166Y-95297464D01*
X95910705Y-95273746D01*
X95867289Y-95248680D01*
X95823911Y-95222224D01*
X95780566Y-95194336D01*
X95737246Y-95164972D01*
X95693946Y-95134092D01*
X95650454Y-95101577D01*
X95606690Y-95067434D01*
X95562847Y-95031802D01*
X95532133Y-95005831D01*
X96028885Y-95005831D01*
X96146087Y-95093733D01*
X96191227Y-95022471D01*
X96195262Y-95017446D01*
X96199072Y-95012124D01*
X96202696Y-95006559D01*
X96206176Y-95000802D01*
X96212865Y-94988925D01*
X96219467Y-94976911D01*
X96222838Y-94970985D01*
X96226308Y-94965181D01*
X96229921Y-94959554D01*
X96233715Y-94954155D01*
X96237733Y-94949036D01*
X96242014Y-94944250D01*
X96246601Y-94939850D01*
X96249021Y-94937811D01*
X96251533Y-94935888D01*
X96251638Y-94935758D01*
X96254118Y-94932967D01*
X96256728Y-94929479D01*
X96256908Y-94929219D01*
X96257298Y-94928702D01*
X96257272Y-94928676D01*
X96262749Y-94920925D01*
X96275565Y-94924671D01*
X96275539Y-94924876D01*
X96369166Y-94946743D01*
X96462655Y-94970052D01*
X96649289Y-95018255D01*
X96726863Y-95040085D01*
X96805202Y-95058901D01*
X96884197Y-95074561D01*
X96923907Y-95081164D01*
X96963740Y-95086925D01*
X97003682Y-95091828D01*
X97043720Y-95095855D01*
X97083840Y-95098987D01*
X97124028Y-95101208D01*
X97164272Y-95102500D01*
X97204556Y-95102846D01*
X97244868Y-95102228D01*
X97285193Y-95100628D01*
X97322555Y-95097863D01*
X97340670Y-95097349D01*
X97358715Y-95096341D01*
X97376692Y-95094866D01*
X97394605Y-95092948D01*
X97412454Y-95090612D01*
X97430242Y-95087885D01*
X97465643Y-95081353D01*
X97500822Y-95073554D01*
X97535797Y-95064688D01*
X97570584Y-95054957D01*
X97605199Y-95044562D01*
X97650365Y-95025447D01*
X97695219Y-95005210D01*
X97739604Y-94983749D01*
X97783366Y-94960964D01*
X97826350Y-94936754D01*
X97868400Y-94911020D01*
X97889027Y-94897549D01*
X97909362Y-94883660D01*
X97929386Y-94869339D01*
X97949080Y-94854574D01*
X97959886Y-94847971D01*
X97970164Y-94840873D01*
X97979942Y-94833309D01*
X97989247Y-94825307D01*
X97998105Y-94816894D01*
X98006545Y-94808100D01*
X98014592Y-94798953D01*
X98022274Y-94789480D01*
X98029617Y-94779710D01*
X98036650Y-94769672D01*
X98043399Y-94759394D01*
X98049890Y-94748903D01*
X98056152Y-94738228D01*
X98062210Y-94727398D01*
X98073827Y-94705384D01*
X98081461Y-94691227D01*
X98088284Y-94676610D01*
X98094304Y-94661585D01*
X98099529Y-94646203D01*
X98103965Y-94630518D01*
X98107621Y-94614582D01*
X98110504Y-94598446D01*
X98112622Y-94582163D01*
X98113983Y-94565786D01*
X98114594Y-94549367D01*
X98114463Y-94532958D01*
X98113598Y-94516611D01*
X98112006Y-94500379D01*
X98109695Y-94484314D01*
X98106672Y-94468468D01*
X98102946Y-94452893D01*
X98093243Y-94440713D01*
X98082903Y-94429236D01*
X98071979Y-94418413D01*
X98060523Y-94408193D01*
X98048589Y-94398526D01*
X98036229Y-94389361D01*
X98023497Y-94380649D01*
X98010445Y-94372340D01*
X97997126Y-94364382D01*
X97983593Y-94356727D01*
X97956097Y-94342120D01*
X97900866Y-94314323D01*
X97663808Y-94268169D01*
X97545170Y-94245670D01*
X97426321Y-94224302D01*
X97402600Y-94219417D01*
X97378817Y-94215093D01*
X97331081Y-94207973D01*
X97283154Y-94202628D01*
X97235075Y-94198742D01*
X97186883Y-94196000D01*
X97138618Y-94194087D01*
X97042029Y-94191488D01*
X97022092Y-94190795D01*
X97002151Y-94190258D01*
X96982209Y-94189877D01*
X96962266Y-94189653D01*
X96892482Y-94190095D01*
X96822746Y-94192422D01*
X96753104Y-94196619D01*
X96683600Y-94202666D01*
X96614278Y-94210548D01*
X96545184Y-94220246D01*
X96476362Y-94231744D01*
X96407856Y-94245025D01*
X96389674Y-94250285D01*
X96371993Y-94256547D01*
X96354768Y-94263715D01*
X96337950Y-94271694D01*
X96321494Y-94280388D01*
X96305352Y-94289703D01*
X96289479Y-94299543D01*
X96273826Y-94309811D01*
X96242999Y-94331255D01*
X96212497Y-94353272D01*
X96181946Y-94375099D01*
X96166535Y-94385702D01*
X96150973Y-94395971D01*
X96139504Y-94408864D01*
X96128598Y-94422346D01*
X96118278Y-94436376D01*
X96108567Y-94450912D01*
X96099490Y-94465913D01*
X96091070Y-94481336D01*
X96083330Y-94497140D01*
X96076294Y-94513282D01*
X96069986Y-94529722D01*
X96064429Y-94546416D01*
X96059647Y-94563324D01*
X96055664Y-94580404D01*
X96052502Y-94597613D01*
X96050187Y-94614909D01*
X96048741Y-94632252D01*
X96048188Y-94649599D01*
X96057688Y-94700775D01*
X96060442Y-94714015D01*
X96063539Y-94727215D01*
X96067074Y-94740266D01*
X96071142Y-94753060D01*
X96075840Y-94765486D01*
X96081262Y-94777436D01*
X96087504Y-94788800D01*
X96090963Y-94794229D01*
X96094662Y-94799471D01*
X96098614Y-94804511D01*
X96102831Y-94809337D01*
X96107325Y-94813935D01*
X96112106Y-94818291D01*
X96117189Y-94822392D01*
X96122584Y-94826223D01*
X96128303Y-94829772D01*
X96134359Y-94833025D01*
X96134373Y-94833032D01*
X96134386Y-94833039D01*
X96134399Y-94833047D01*
X96134412Y-94833055D01*
X96134437Y-94833072D01*
X96134461Y-94833089D01*
X96134486Y-94833106D01*
X96134511Y-94833123D01*
X96134523Y-94833131D01*
X96134536Y-94833139D01*
X96134550Y-94833147D01*
X96134564Y-94833155D01*
X96138698Y-94835454D01*
X96134874Y-94840002D01*
X96028885Y-95005831D01*
X95532133Y-95005831D01*
X95519114Y-94994822D01*
X95475684Y-94956635D01*
X95432747Y-94917382D01*
X95390494Y-94877203D01*
X95349116Y-94836238D01*
X95308805Y-94794629D01*
X95269751Y-94752516D01*
X95232146Y-94710040D01*
X95196181Y-94667341D01*
X95162046Y-94624559D01*
X95129933Y-94581836D01*
X95100033Y-94539312D01*
X95072537Y-94497128D01*
X95047603Y-94455493D01*
X95025197Y-94414485D01*
X95005223Y-94374043D01*
X94987585Y-94334109D01*
X94972187Y-94294622D01*
X94958933Y-94255524D01*
X94947727Y-94216756D01*
X94938472Y-94178257D01*
X94931073Y-94139968D01*
X94925434Y-94101831D01*
X94921458Y-94063785D01*
X94919049Y-94025771D01*
X94918112Y-93987730D01*
X94918550Y-93949603D01*
X94920266Y-93911330D01*
X94923166Y-93872851D01*
X94927148Y-93834344D01*
X94932161Y-93796036D01*
X94938188Y-93757939D01*
X94945208Y-93720066D01*
X94953204Y-93682430D01*
X94962157Y-93645043D01*
X94972047Y-93607918D01*
X94981087Y-93577099D01*
X95638332Y-93577099D01*
X95638374Y-93590315D01*
X95639153Y-93603686D01*
X95640701Y-93617242D01*
X95643048Y-93631015D01*
X95646224Y-93645035D01*
X95650294Y-93659470D01*
X95655265Y-93674406D01*
X95661079Y-93689750D01*
X95667679Y-93705411D01*
X95675006Y-93721298D01*
X95683003Y-93737317D01*
X95691613Y-93753379D01*
X95700777Y-93769390D01*
X95710437Y-93785259D01*
X95720537Y-93800894D01*
X95731018Y-93816204D01*
X95741822Y-93831097D01*
X95752892Y-93845481D01*
X95764170Y-93859263D01*
X95775599Y-93872353D01*
X95787119Y-93884659D01*
X95798827Y-93896281D01*
X95810851Y-93907384D01*
X95823188Y-93917968D01*
X95835832Y-93928034D01*
X95848780Y-93937585D01*
X95862026Y-93946621D01*
X95875568Y-93955144D01*
X95889399Y-93963155D01*
X95903517Y-93970655D01*
X95917916Y-93977645D01*
X95932592Y-93984128D01*
X95947540Y-93990104D01*
X95962757Y-93995574D01*
X95978238Y-94000541D01*
X95993979Y-94005004D01*
X96009974Y-94008967D01*
X96026355Y-94012479D01*
X96043212Y-94015596D01*
X96060480Y-94018318D01*
X96078095Y-94020648D01*
X96095990Y-94022588D01*
X96114103Y-94024140D01*
X96150720Y-94026089D01*
X96187426Y-94026514D01*
X96223705Y-94025430D01*
X96241521Y-94024329D01*
X96259036Y-94022857D01*
X96276185Y-94021017D01*
X96292903Y-94018811D01*
X96309227Y-94016246D01*
X96325280Y-94013346D01*
X96356816Y-94006639D01*
X96387999Y-93998887D01*
X96419318Y-93990290D01*
X96484318Y-93971355D01*
X96518978Y-93961415D01*
X96555729Y-93951425D01*
X96594855Y-93941571D01*
X96635798Y-93932016D01*
X96677779Y-93922920D01*
X96720019Y-93914444D01*
X96761741Y-93906749D01*
X96802167Y-93899995D01*
X96840519Y-93894344D01*
X96876019Y-93889956D01*
X96908186Y-93886941D01*
X96923208Y-93885942D01*
X96937679Y-93885276D01*
X96951715Y-93884938D01*
X96965433Y-93884922D01*
X96978948Y-93885226D01*
X96992379Y-93885842D01*
X97005841Y-93886767D01*
X97019451Y-93887996D01*
X97047584Y-93891346D01*
X97077708Y-93895854D01*
X97110759Y-93901479D01*
X97186993Y-93915872D01*
X97228881Y-93924471D01*
X97272245Y-93933885D01*
X97316307Y-93944025D01*
X97360289Y-93954802D01*
X97403412Y-93966126D01*
X97444899Y-93977909D01*
X97484280Y-93990066D01*
X97522024Y-94002478D01*
X97595104Y-94027478D01*
X97631692Y-94039775D01*
X97669149Y-94051743D01*
X97708099Y-94063234D01*
X97749170Y-94074104D01*
X97793405Y-94084297D01*
X97840654Y-94093725D01*
X97889746Y-94102191D01*
X97939512Y-94109498D01*
X97988783Y-94115452D01*
X98036391Y-94119854D01*
X98081165Y-94122510D01*
X98121938Y-94123223D01*
X98140668Y-94122812D01*
X98158525Y-94121885D01*
X98175582Y-94120409D01*
X98191913Y-94118355D01*
X98207591Y-94115692D01*
X98222689Y-94112388D01*
X98237281Y-94108413D01*
X98251439Y-94103736D01*
X98265237Y-94098327D01*
X98278748Y-94092154D01*
X98292045Y-94085188D01*
X98305202Y-94077396D01*
X98318293Y-94068748D01*
X98331389Y-94059214D01*
X98344564Y-94048762D01*
X98357892Y-94037362D01*
X98371520Y-94024871D01*
X98385466Y-94011240D01*
X98399611Y-93996585D01*
X98413835Y-93981019D01*
X98428018Y-93964656D01*
X98442042Y-93947610D01*
X98455786Y-93929995D01*
X98469131Y-93911925D01*
X98481958Y-93893514D01*
X98494146Y-93874877D01*
X98505577Y-93856126D01*
X98516131Y-93837376D01*
X98525688Y-93818741D01*
X98534129Y-93800335D01*
X98541334Y-93782272D01*
X98547183Y-93764666D01*
X98551723Y-93747380D01*
X98555090Y-93730180D01*
X98557302Y-93713035D01*
X98558375Y-93695912D01*
X98558327Y-93678781D01*
X98557175Y-93661609D01*
X98554937Y-93644365D01*
X98551630Y-93627016D01*
X98547272Y-93609532D01*
X98541878Y-93591880D01*
X98535468Y-93574030D01*
X98528058Y-93555948D01*
X98519665Y-93537604D01*
X98510306Y-93518965D01*
X98500000Y-93500000D01*
X98488763Y-93480678D01*
X98476566Y-93460910D01*
X98463408Y-93440684D01*
X98449351Y-93420084D01*
X98434457Y-93399191D01*
X98418786Y-93378089D01*
X98402400Y-93356860D01*
X98385360Y-93335587D01*
X98367728Y-93314351D01*
X98349565Y-93293237D01*
X98330932Y-93272326D01*
X98311891Y-93251702D01*
X98292503Y-93231446D01*
X98272829Y-93211641D01*
X98252931Y-93192371D01*
X98232870Y-93173717D01*
X98212707Y-93155762D01*
X98192415Y-93138494D01*
X98171915Y-93121828D01*
X98151194Y-93105744D01*
X98130239Y-93090219D01*
X98109037Y-93075232D01*
X98087575Y-93060761D01*
X98065839Y-93046783D01*
X98043816Y-93033276D01*
X98021494Y-93020220D01*
X97998858Y-93007591D01*
X97975895Y-92995368D01*
X97952594Y-92983529D01*
X97928939Y-92972052D01*
X97904919Y-92960915D01*
X97855727Y-92939574D01*
X97804770Y-92919300D01*
X97751861Y-92900051D01*
X97696985Y-92881894D01*
X97640127Y-92864898D01*
X97581272Y-92849132D01*
X97520405Y-92834663D01*
X97457512Y-92821561D01*
X97392577Y-92809892D01*
X97325531Y-92799671D01*
X97256891Y-92790820D01*
X97187525Y-92783271D01*
X97118298Y-92776956D01*
X97050079Y-92771808D01*
X96983733Y-92767759D01*
X96920127Y-92764741D01*
X96860129Y-92762685D01*
X96831697Y-92762001D01*
X96804271Y-92761547D01*
X96777792Y-92761334D01*
X96752202Y-92761367D01*
X96752202Y-92761368D01*
X96715365Y-92761902D01*
X96680220Y-92763039D01*
X96646576Y-92764809D01*
X96614246Y-92767237D01*
X96583040Y-92770354D01*
X96552771Y-92774186D01*
X96523249Y-92778760D01*
X96494285Y-92784106D01*
X96456074Y-92792523D01*
X96437023Y-92797342D01*
X96417978Y-92802600D01*
X96398917Y-92808323D01*
X96379817Y-92814536D01*
X96360654Y-92821263D01*
X96341408Y-92828530D01*
X96322054Y-92836361D01*
X96302570Y-92844782D01*
X96282934Y-92853818D01*
X96263122Y-92863493D01*
X96243112Y-92873832D01*
X96222882Y-92884861D01*
X96202408Y-92896603D01*
X96181669Y-92909086D01*
X96160553Y-92922401D01*
X96139030Y-92936575D01*
X96095154Y-92967178D01*
X96050818Y-93000258D01*
X96006800Y-93035178D01*
X95963875Y-93071300D01*
X95922823Y-93107989D01*
X95884419Y-93144606D01*
X95866453Y-93162689D01*
X95849441Y-93180516D01*
X95833376Y-93198084D01*
X95818168Y-93215442D01*
X95803785Y-93232584D01*
X95790196Y-93249504D01*
X95777371Y-93266197D01*
X95765279Y-93282656D01*
X95753889Y-93298875D01*
X95743170Y-93314849D01*
X95733091Y-93330572D01*
X95723622Y-93346038D01*
X95706388Y-93376176D01*
X95691221Y-93405215D01*
X95677875Y-93433110D01*
X95671808Y-93446661D01*
X95666144Y-93460027D01*
X95660913Y-93473239D01*
X95656147Y-93486328D01*
X95651875Y-93499325D01*
X95648128Y-93512260D01*
X95644937Y-93525166D01*
X95642331Y-93538071D01*
X95640341Y-93551008D01*
X95638998Y-93564007D01*
X95638332Y-93577099D01*
X94981087Y-93577099D01*
X94982856Y-93571069D01*
X94994565Y-93534508D01*
X95007156Y-93498247D01*
X95020610Y-93462300D01*
X95034907Y-93426680D01*
X95050029Y-93391399D01*
X95065957Y-93356470D01*
X95082673Y-93321905D01*
X95100158Y-93287719D01*
X95118345Y-93254078D01*
X95137182Y-93221122D01*
X95156674Y-93188817D01*
X95176825Y-93157130D01*
X95197639Y-93126030D01*
X95219120Y-93095483D01*
X95241272Y-93065457D01*
X95264100Y-93035918D01*
X95287607Y-93006835D01*
X95311798Y-92978174D01*
X95336676Y-92949903D01*
X95362247Y-92921990D01*
X95388513Y-92894400D01*
X95415480Y-92867103D01*
X95471531Y-92813252D01*
X95530610Y-92760083D01*
X95592448Y-92707742D01*
X95656355Y-92656710D01*
X95721642Y-92607472D01*
X95787620Y-92560511D01*
X95853601Y-92516312D01*
X95918897Y-92475358D01*
X95982817Y-92438133D01*
X96014164Y-92420989D01*
X96045237Y-92404737D01*
X96076089Y-92389345D01*
X96106776Y-92374784D01*
X96137350Y-92361023D01*
X96167867Y-92348030D01*
X96198379Y-92335775D01*
X96228941Y-92324228D01*
X96259606Y-92313357D01*
X96290429Y-92303131D01*
X96352764Y-92284496D01*
X96416378Y-92268074D01*
X96481701Y-92253622D01*
X96549135Y-92240919D01*
X96618633Y-92229955D01*
X96689960Y-92220794D01*
X96762879Y-92213498D01*
X96837154Y-92208131D01*
X96912548Y-92204758D01*
X96988825Y-92203441D01*
X97065749Y-92204245D01*
X97143332Y-92207284D01*
X97221734Y-92212744D01*
X97300941Y-92220790D01*
X97380938Y-92231589D01*
X97461710Y-92245309D01*
X97543242Y-92262116D01*
X97625519Y-92282177D01*
X97708526Y-92305660D01*
X97792484Y-92332678D01*
X97877094Y-92362912D01*
X97961564Y-92395874D01*
X98045101Y-92431076D01*
X98126912Y-92468033D01*
X98206206Y-92506256D01*
X98282189Y-92545260D01*
X98354068Y-92584557D01*
X98421484Y-92623949D01*
X98484836Y-92663732D01*
X98515096Y-92683849D01*
X98544469Y-92704160D01*
X98572999Y-92724695D01*
X98600729Y-92745488D01*
X98627702Y-92766569D01*
X98653962Y-92787971D01*
X98679551Y-92809725D01*
X98704512Y-92831864D01*
X98728890Y-92854419D01*
X98752727Y-92877421D01*
X98776066Y-92900904D01*
X98798950Y-92924899D01*
X98821513Y-92949530D01*
X98843816Y-92974836D01*
X98865799Y-93000714D01*
X98887403Y-93027065D01*
X98929227Y-93080780D01*
X98968805Y-93135173D01*
X99005653Y-93189439D01*
X99039287Y-93242770D01*
X99069224Y-93294359D01*
X99082654Y-93319249D01*
X99094979Y-93343400D01*
X99106221Y-93366831D01*
X99116485Y-93389662D01*
X99125827Y-93411950D01*
X99134306Y-93433752D01*
X99141979Y-93455125D01*
X99148903Y-93476126D01*
X99155137Y-93496811D01*
X99160739Y-93517236D01*
X99165765Y-93537459D01*
X99170274Y-93557536D01*
X99177972Y-93597479D01*
X99184294Y-93637519D01*
X99189702Y-93678108D01*
X99191767Y-93695912D01*
X99194521Y-93719646D01*
G37*
G36*
X96429457Y-94594228D02*
G01*
X96469610Y-94629911D01*
X96262723Y-94921082D01*
X96138415Y-94835350D01*
X96403179Y-94505991D01*
X96429457Y-94594228D01*
G37*
G36*
X97788457Y-94468602D02*
G01*
X97788700Y-94468678D01*
X97788964Y-94468801D01*
X97789247Y-94468973D01*
X97789552Y-94469199D01*
X97789878Y-94469480D01*
X97790227Y-94469821D01*
X97790600Y-94470225D01*
X97790998Y-94470695D01*
X97791422Y-94471234D01*
X97792349Y-94472534D01*
X97793389Y-94474150D01*
X97794549Y-94476110D01*
X97797207Y-94481116D01*
X97800120Y-94487524D01*
X97801593Y-94491229D01*
X97803033Y-94495256D01*
X97804410Y-94499595D01*
X97805691Y-94504236D01*
X97806845Y-94509171D01*
X97807840Y-94514389D01*
X97808643Y-94519881D01*
X97809224Y-94525637D01*
X97809550Y-94531648D01*
X97809589Y-94537904D01*
X97809310Y-94544396D01*
X97808680Y-94551114D01*
X97807676Y-94558045D01*
X97806302Y-94565165D01*
X97804569Y-94572446D01*
X97802490Y-94579860D01*
X97800076Y-94587379D01*
X97797340Y-94594975D01*
X97794294Y-94602621D01*
X97790949Y-94610288D01*
X97787317Y-94617948D01*
X97783411Y-94625575D01*
X97779242Y-94633139D01*
X97774822Y-94640613D01*
X97770163Y-94647970D01*
X97765278Y-94655181D01*
X97760177Y-94662218D01*
X97754874Y-94669054D01*
X97749377Y-94675664D01*
X97743690Y-94682040D01*
X97737814Y-94688175D01*
X97731749Y-94694064D01*
X97725496Y-94699702D01*
X97719056Y-94705082D01*
X97712430Y-94710199D01*
X97705619Y-94715049D01*
X97698622Y-94719624D01*
X97691442Y-94723920D01*
X97684078Y-94727931D01*
X97676533Y-94731651D01*
X97668805Y-94735075D01*
X97660897Y-94738197D01*
X97652809Y-94741013D01*
X97644542Y-94743515D01*
X97636095Y-94745701D01*
X97627460Y-94747575D01*
X97618627Y-94749146D01*
X97609588Y-94750419D01*
X97600332Y-94751403D01*
X97590850Y-94752104D01*
X97581132Y-94752530D01*
X97571169Y-94752687D01*
X97560951Y-94752583D01*
X97550469Y-94752225D01*
X97528674Y-94750776D01*
X97505706Y-94748397D01*
X97481490Y-94745146D01*
X97456018Y-94741100D01*
X97429551Y-94736424D01*
X97374963Y-94725919D01*
X97320375Y-94715109D01*
X97268436Y-94705470D01*
X97244216Y-94701512D01*
X97221219Y-94698166D01*
X97199343Y-94695381D01*
X97178486Y-94693105D01*
X97158546Y-94691288D01*
X97139422Y-94689878D01*
X97121010Y-94688825D01*
X97103210Y-94688078D01*
X97085907Y-94687601D01*
X97068935Y-94687424D01*
X97052116Y-94687590D01*
X97035272Y-94688146D01*
X97018224Y-94689134D01*
X97000793Y-94690600D01*
X96982802Y-94692588D01*
X96964073Y-94695143D01*
X96944482Y-94698281D01*
X96924133Y-94701903D01*
X96881799Y-94710090D01*
X96838344Y-94718684D01*
X96816595Y-94722815D01*
X96795042Y-94726666D01*
X96773815Y-94730120D01*
X96752912Y-94733095D01*
X96732302Y-94735523D01*
X96711954Y-94737333D01*
X96691834Y-94738455D01*
X96671913Y-94738819D01*
X96662016Y-94738695D01*
X96652156Y-94738355D01*
X96642330Y-94737791D01*
X96632534Y-94736993D01*
X96622765Y-94735953D01*
X96613031Y-94734657D01*
X96603342Y-94733092D01*
X96593707Y-94731244D01*
X96584136Y-94729100D01*
X96574638Y-94726646D01*
X96565222Y-94723870D01*
X96555900Y-94720756D01*
X96546679Y-94717292D01*
X96537569Y-94713464D01*
X96528581Y-94709259D01*
X96519723Y-94704663D01*
X96511005Y-94699663D01*
X96502437Y-94694244D01*
X96494028Y-94688394D01*
X96485787Y-94682099D01*
X96477728Y-94675356D01*
X96469868Y-94668205D01*
X96462232Y-94660695D01*
X96454841Y-94652877D01*
X96447718Y-94644802D01*
X96440884Y-94636518D01*
X96434363Y-94628077D01*
X96428176Y-94619529D01*
X96422345Y-94610923D01*
X96416894Y-94602310D01*
X96411843Y-94593739D01*
X96407217Y-94585262D01*
X96403036Y-94576929D01*
X96399323Y-94568788D01*
X96396101Y-94560892D01*
X96393391Y-94553289D01*
X96392235Y-94549613D01*
X96391210Y-94546026D01*
X96390316Y-94542532D01*
X96389550Y-94539135D01*
X96388911Y-94535838D01*
X96388397Y-94532644D01*
X96388005Y-94529557D01*
X96387735Y-94526580D01*
X96387584Y-94523717D01*
X96387551Y-94520972D01*
X96387634Y-94518347D01*
X96387830Y-94515847D01*
X96388139Y-94513474D01*
X96388559Y-94511233D01*
X96389087Y-94509127D01*
X96389722Y-94507158D01*
X96390462Y-94505332D01*
X96391305Y-94503650D01*
X96392250Y-94502118D01*
X96393295Y-94500737D01*
X96394438Y-94499512D01*
X96395676Y-94498446D01*
X96397009Y-94497543D01*
X96398435Y-94496806D01*
X96399951Y-94496239D01*
X96401557Y-94495844D01*
X96403249Y-94495626D01*
X96405027Y-94495589D01*
X96406889Y-94495734D01*
X96408832Y-94496067D01*
X96410855Y-94496590D01*
X96412957Y-94497307D01*
X96417390Y-94499322D01*
X96422128Y-94502066D01*
X96427173Y-94505477D01*
X96432523Y-94509493D01*
X96438179Y-94514055D01*
X96444140Y-94519099D01*
X96456980Y-94530393D01*
X96471044Y-94542884D01*
X96486330Y-94556082D01*
X96494431Y-94562792D01*
X96502839Y-94569496D01*
X96511552Y-94576132D01*
X96520571Y-94582637D01*
X96529889Y-94588959D01*
X96539477Y-94595074D01*
X96549297Y-94600966D01*
X96559312Y-94606620D01*
X96569487Y-94612018D01*
X96579785Y-94617146D01*
X96590169Y-94621987D01*
X96600602Y-94626525D01*
X96611047Y-94630746D01*
X96621469Y-94634631D01*
X96631831Y-94638167D01*
X96642095Y-94641336D01*
X96652225Y-94644123D01*
X96662185Y-94646512D01*
X96671939Y-94648487D01*
X96681448Y-94650032D01*
X96690690Y-94651139D01*
X96699694Y-94651827D01*
X96708500Y-94652126D01*
X96717150Y-94652062D01*
X96725685Y-94651664D01*
X96734147Y-94650959D01*
X96742577Y-94649976D01*
X96751017Y-94648741D01*
X96768091Y-94645632D01*
X96785699Y-94641854D01*
X96823847Y-94633184D01*
X96844947Y-94628707D01*
X96867302Y-94624275D01*
X96914680Y-94615724D01*
X96963791Y-94607885D01*
X97012443Y-94601117D01*
X97035962Y-94598241D01*
X97058837Y-94595741D01*
X97081087Y-94593636D01*
X97102733Y-94591945D01*
X97123793Y-94590687D01*
X97144286Y-94589881D01*
X97164231Y-94589547D01*
X97183648Y-94589703D01*
X97202569Y-94590358D01*
X97221082Y-94591478D01*
X97239289Y-94593018D01*
X97257293Y-94594934D01*
X97275194Y-94597181D01*
X97293096Y-94599715D01*
X97329307Y-94605465D01*
X97366512Y-94611842D01*
X97404379Y-94618577D01*
X97479859Y-94632097D01*
X97516316Y-94638296D01*
X97533924Y-94641020D01*
X97550990Y-94643375D01*
X97567419Y-94645270D01*
X97583116Y-94646619D01*
X97597985Y-94647330D01*
X97605079Y-94647419D01*
X97611931Y-94647315D01*
X97618531Y-94647009D01*
X97624889Y-94646502D01*
X97631016Y-94645793D01*
X97636924Y-94644886D01*
X97642624Y-94643781D01*
X97648130Y-94642481D01*
X97653453Y-94640986D01*
X97658604Y-94639298D01*
X97663597Y-94637420D01*
X97668442Y-94635351D01*
X97673151Y-94633095D01*
X97677737Y-94630653D01*
X97682212Y-94628026D01*
X97686587Y-94625216D01*
X97690875Y-94622224D01*
X97695087Y-94619053D01*
X97699233Y-94615704D01*
X97703312Y-94612188D01*
X97707321Y-94608513D01*
X97711257Y-94604692D01*
X97715116Y-94600734D01*
X97718895Y-94596649D01*
X97722592Y-94592448D01*
X97726203Y-94588141D01*
X97729725Y-94583738D01*
X97733154Y-94579250D01*
X97736488Y-94574688D01*
X97739723Y-94570061D01*
X97742856Y-94565379D01*
X97745884Y-94560654D01*
X97748804Y-94555896D01*
X97751612Y-94551114D01*
X97754306Y-94546322D01*
X97756886Y-94541536D01*
X97759351Y-94536777D01*
X97761701Y-94532066D01*
X97766057Y-94522863D01*
X97769955Y-94514088D01*
X97773395Y-94505898D01*
X97776376Y-94498453D01*
X97780961Y-94486437D01*
X97780962Y-94486437D01*
X97783798Y-94478862D01*
X97784688Y-94476462D01*
X97785310Y-94474751D01*
X97785540Y-94474098D01*
X97785728Y-94473550D01*
X97785881Y-94473084D01*
X97786006Y-94472679D01*
X97786112Y-94472312D01*
X97786208Y-94471962D01*
X97786397Y-94471219D01*
X97786636Y-94470336D01*
X97786792Y-94469885D01*
X97786983Y-94469461D01*
X97787215Y-94469091D01*
X97787349Y-94468934D01*
X97787496Y-94468801D01*
X97787656Y-94468695D01*
X97787832Y-94468619D01*
X97788023Y-94468576D01*
X97788231Y-94468569D01*
X97788457Y-94468602D01*
G37*
G36*
X95941735Y-95225069D02*
G01*
X95833628Y-95256850D01*
X95833593Y-95257102D01*
X95833533Y-95257337D01*
X95833449Y-95257555D01*
X95833341Y-95257758D01*
X95833211Y-95257945D01*
X95833057Y-95258117D01*
X95832882Y-95258275D01*
X95832684Y-95258418D01*
X95832465Y-95258548D01*
X95832225Y-95258666D01*
X95831964Y-95258771D01*
X95831682Y-95258864D01*
X95831381Y-95258945D01*
X95831061Y-95259016D01*
X95830721Y-95259076D01*
X95830363Y-95259126D01*
X95829986Y-95259167D01*
X95829592Y-95259199D01*
X95828752Y-95259238D01*
X95827846Y-95259248D01*
X95826877Y-95259232D01*
X95825848Y-95259194D01*
X95824764Y-95259140D01*
X95822440Y-95258994D01*
X95801458Y-95257699D01*
X95788919Y-95257104D01*
X95775649Y-95256690D01*
X95762127Y-95256564D01*
X95748831Y-95256834D01*
X95742416Y-95257151D01*
X95736237Y-95257608D01*
X95730352Y-95258218D01*
X95724823Y-95258994D01*
X95719693Y-95259948D01*
X95714953Y-95261080D01*
X95710575Y-95262384D01*
X95706534Y-95263859D01*
X95702804Y-95265501D01*
X95699359Y-95267306D01*
X95696174Y-95269271D01*
X95693221Y-95271393D01*
X95690475Y-95273667D01*
X95687911Y-95276092D01*
X95685502Y-95278663D01*
X95683222Y-95281376D01*
X95681046Y-95284230D01*
X95678947Y-95287219D01*
X95676900Y-95290341D01*
X95674878Y-95293592D01*
X95670854Y-95300477D01*
X95668864Y-95304114D01*
X95666901Y-95307884D01*
X95664974Y-95311790D01*
X95663091Y-95315833D01*
X95661263Y-95320015D01*
X95659498Y-95324339D01*
X95657804Y-95328808D01*
X95656192Y-95333423D01*
X95654670Y-95338186D01*
X95653248Y-95343101D01*
X95651933Y-95348168D01*
X95650736Y-95353391D01*
X95649665Y-95358771D01*
X95648729Y-95364311D01*
X95647937Y-95370010D01*
X95647287Y-95375852D01*
X95646779Y-95381817D01*
X95646413Y-95387887D01*
X95646185Y-95394043D01*
X95646097Y-95400265D01*
X95646146Y-95406534D01*
X95646331Y-95412832D01*
X95646651Y-95419138D01*
X95647105Y-95425435D01*
X95647692Y-95431702D01*
X95648411Y-95437920D01*
X95649260Y-95444071D01*
X95650239Y-95450136D01*
X95651345Y-95456094D01*
X95652579Y-95461928D01*
X95653938Y-95467622D01*
X95655418Y-95473181D01*
X95657012Y-95478615D01*
X95658716Y-95483931D01*
X95660523Y-95489139D01*
X95662428Y-95494249D01*
X95664425Y-95499268D01*
X95666509Y-95504206D01*
X95670914Y-95513875D01*
X95675599Y-95523327D01*
X95680518Y-95532636D01*
X95685627Y-95541872D01*
X95696161Y-95560197D01*
X95706480Y-95577801D01*
X95715791Y-95593963D01*
X95719820Y-95601279D01*
X95723299Y-95607965D01*
X95724798Y-95611047D01*
X95726108Y-95613954D01*
X95727199Y-95616693D01*
X95728044Y-95619268D01*
X95728365Y-95620496D01*
X95728614Y-95621686D01*
X95728787Y-95622837D01*
X95728881Y-95623952D01*
X95728892Y-95625030D01*
X95728817Y-95626071D01*
X95728652Y-95627078D01*
X95728394Y-95628050D01*
X95728039Y-95628989D01*
X95727584Y-95629894D01*
X95727024Y-95630767D01*
X95726358Y-95631608D01*
X95725580Y-95632418D01*
X95724688Y-95633198D01*
X95723678Y-95633949D01*
X95722547Y-95634670D01*
X95721291Y-95635364D01*
X95719906Y-95636030D01*
X95718389Y-95636669D01*
X95716736Y-95637282D01*
X95714945Y-95637870D01*
X95713011Y-95638433D01*
X95710930Y-95638972D01*
X95708700Y-95639488D01*
X95703785Y-95640452D01*
X95698276Y-95641331D01*
X95685555Y-95642849D01*
X95670688Y-95644078D01*
X95653831Y-95645054D01*
X95635136Y-95645815D01*
X95614757Y-95646395D01*
X95569562Y-95647162D01*
X95519650Y-95647485D01*
X95493578Y-95647335D01*
X95467147Y-95646870D01*
X95440643Y-95646008D01*
X95414355Y-95644670D01*
X95388572Y-95642773D01*
X95363579Y-95640237D01*
X95339608Y-95637006D01*
X95316645Y-95633118D01*
X95294619Y-95628636D01*
X95273458Y-95623624D01*
X95253089Y-95618143D01*
X95233441Y-95612256D01*
X95214442Y-95606026D01*
X95196018Y-95599516D01*
X95178115Y-95592776D01*
X95160734Y-95585800D01*
X95143894Y-95578572D01*
X95127612Y-95571074D01*
X95111907Y-95563288D01*
X95096796Y-95555196D01*
X95082298Y-95546779D01*
X95068429Y-95538021D01*
X95061733Y-95533506D01*
X95055179Y-95528885D01*
X95048746Y-95524146D01*
X95042415Y-95519272D01*
X95036164Y-95514249D01*
X95029974Y-95509063D01*
X95023825Y-95503699D01*
X95017696Y-95498142D01*
X95011567Y-95492378D01*
X95005418Y-95486392D01*
X94999228Y-95480170D01*
X94992977Y-95473697D01*
X94980213Y-95459940D01*
X94966963Y-95445004D01*
X94953138Y-95428831D01*
X94938945Y-95411605D01*
X94924663Y-95393569D01*
X94910570Y-95374966D01*
X94896946Y-95356039D01*
X94884069Y-95337031D01*
X94877997Y-95327572D01*
X94872218Y-95318184D01*
X94866764Y-95308897D01*
X94861672Y-95299741D01*
X94856966Y-95290742D01*
X94852631Y-95281896D01*
X94848642Y-95273198D01*
X94844976Y-95264638D01*
X94841606Y-95256209D01*
X94838509Y-95247902D01*
X94833032Y-95231626D01*
X94828349Y-95215746D01*
X94824260Y-95200200D01*
X94817075Y-95169853D01*
X94810253Y-95139898D01*
X94807022Y-95124641D01*
X94804008Y-95108934D01*
X94801281Y-95092577D01*
X94798915Y-95075375D01*
X94796981Y-95057128D01*
X94796199Y-95047551D01*
X94795552Y-95037638D01*
X94794683Y-95016797D01*
X94794364Y-94994857D01*
X94794568Y-94972159D01*
X94795267Y-94949047D01*
X94796435Y-94925863D01*
X94798044Y-94902949D01*
X94800067Y-94880648D01*
X94802477Y-94859303D01*
X94805250Y-94839175D01*
X94808384Y-94820199D01*
X94811877Y-94802233D01*
X94815730Y-94785132D01*
X94819944Y-94768751D01*
X94824518Y-94752946D01*
X94829453Y-94737574D01*
X94834749Y-94722490D01*
X94840399Y-94707571D01*
X94846375Y-94692780D01*
X94852638Y-94678098D01*
X94859154Y-94663506D01*
X94865887Y-94648986D01*
X94872799Y-94634520D01*
X94887019Y-94605676D01*
X94901539Y-94577019D01*
X94908839Y-94563005D01*
X94916130Y-94549369D01*
X94923385Y-94536238D01*
X94930577Y-94523738D01*
X94937679Y-94511994D01*
X94944664Y-94501134D01*
X94944738Y-94501025D01*
X94944812Y-94500919D01*
X94944963Y-94500713D01*
X94945117Y-94500513D01*
X94945271Y-94500316D01*
X94945425Y-94500120D01*
X94945579Y-94499921D01*
X94945730Y-94499717D01*
X94945879Y-94499506D01*
X95013885Y-94336234D01*
X95941735Y-95225069D01*
G37*
G36*
X99066738Y-94601695D02*
G01*
X99067569Y-94602383D01*
X99068380Y-94603100D01*
X99069173Y-94603847D01*
X99069949Y-94604622D01*
X99070709Y-94605424D01*
X99071455Y-94606251D01*
X99072188Y-94607101D01*
X99072909Y-94607975D01*
X99073619Y-94608870D01*
X99074321Y-94609785D01*
X99075703Y-94611669D01*
X99077064Y-94613619D01*
X99078416Y-94615622D01*
X99085402Y-94626482D01*
X99092504Y-94638226D01*
X99099696Y-94650726D01*
X99106951Y-94663857D01*
X99114242Y-94677493D01*
X99121542Y-94691507D01*
X99136061Y-94720163D01*
X99150282Y-94749013D01*
X99157194Y-94763483D01*
X99163926Y-94778007D01*
X99170442Y-94792604D01*
X99176706Y-94807290D01*
X99182681Y-94822084D01*
X99188332Y-94837004D01*
X99193628Y-94852088D01*
X99198563Y-94867460D01*
X99203137Y-94883265D01*
X99207350Y-94899646D01*
X99211204Y-94916747D01*
X99214697Y-94934713D01*
X99217830Y-94953689D01*
X99220604Y-94973817D01*
X99223014Y-94995161D01*
X99225037Y-95017459D01*
X99226646Y-95040369D01*
X99227814Y-95063548D01*
X99228513Y-95086656D01*
X99228717Y-95109349D01*
X99228398Y-95131287D01*
X99227529Y-95152127D01*
X99226100Y-95171616D01*
X99224166Y-95189864D01*
X99221800Y-95207066D01*
X99219073Y-95223422D01*
X99216058Y-95239130D01*
X99212827Y-95254387D01*
X99206005Y-95284341D01*
X99198825Y-95314692D01*
X99194740Y-95330243D01*
X99190061Y-95346127D01*
X99187437Y-95354214D01*
X99184589Y-95362408D01*
X99181494Y-95370717D01*
X99178127Y-95379148D01*
X99174462Y-95387709D01*
X99170475Y-95396409D01*
X99166140Y-95405255D01*
X99161435Y-95414255D01*
X99156342Y-95423411D01*
X99150888Y-95432698D01*
X99145107Y-95442086D01*
X99139034Y-95451545D01*
X99126153Y-95470553D01*
X99112523Y-95489481D01*
X99098426Y-95508084D01*
X99084139Y-95526120D01*
X99069944Y-95543345D01*
X99056118Y-95559518D01*
X99042869Y-95574453D01*
X99030107Y-95588208D01*
X99017671Y-95600899D01*
X99011524Y-95606882D01*
X99005398Y-95612643D01*
X98999271Y-95618198D01*
X98993124Y-95623559D01*
X98986936Y-95628743D01*
X98980688Y-95633764D01*
X98974358Y-95638637D01*
X98967926Y-95643375D01*
X98961373Y-95647995D01*
X98954677Y-95652510D01*
X98947823Y-95656933D01*
X98940809Y-95661268D01*
X98926310Y-95669684D01*
X98911200Y-95677777D01*
X98895495Y-95685563D01*
X98879213Y-95693061D01*
X98862373Y-95700288D01*
X98844992Y-95707264D01*
X98827088Y-95714005D01*
X98808664Y-95720516D01*
X98789661Y-95726748D01*
X98770009Y-95732639D01*
X98749636Y-95738125D01*
X98728470Y-95743142D01*
X98706440Y-95747628D01*
X98683474Y-95751519D01*
X98671618Y-95753221D01*
X98659501Y-95754751D01*
X98634509Y-95757287D01*
X98608725Y-95759184D01*
X98582438Y-95760523D01*
X98555934Y-95761384D01*
X98529502Y-95761849D01*
X98503431Y-95761999D01*
X98453519Y-95761676D01*
X98408327Y-95760905D01*
X98387952Y-95760320D01*
X98369262Y-95759555D01*
X98352410Y-95758574D01*
X98337548Y-95757341D01*
X98324829Y-95755820D01*
X98314406Y-95753976D01*
X98312176Y-95753460D01*
X98310096Y-95752921D01*
X98308161Y-95752359D01*
X98306369Y-95751772D01*
X98304716Y-95751159D01*
X98303198Y-95750520D01*
X98301813Y-95749855D01*
X98300555Y-95749163D01*
X98299423Y-95748442D01*
X98298412Y-95747693D01*
X98297519Y-95746914D01*
X98296741Y-95746105D01*
X98296073Y-95745264D01*
X98295512Y-95744393D01*
X98295056Y-95743489D01*
X98294700Y-95742551D01*
X98294440Y-95741580D01*
X98294274Y-95740575D01*
X98294198Y-95739534D01*
X98294208Y-95738458D01*
X98294301Y-95737345D01*
X98294473Y-95736194D01*
X98294721Y-95735005D01*
X98295041Y-95733778D01*
X98295430Y-95732511D01*
X98295884Y-95731205D01*
X98296974Y-95728467D01*
X98298282Y-95725561D01*
X98299782Y-95722480D01*
X98303261Y-95715792D01*
X98307289Y-95708473D01*
X98316600Y-95692302D01*
X98326920Y-95674689D01*
X98332210Y-95665569D01*
X98337454Y-95656360D01*
X98342562Y-95647124D01*
X98347481Y-95637815D01*
X98352166Y-95628363D01*
X98356572Y-95618694D01*
X98358655Y-95613756D01*
X98360653Y-95608736D01*
X98362558Y-95603627D01*
X98364364Y-95598419D01*
X98366068Y-95593103D01*
X98367662Y-95587670D01*
X98369142Y-95582110D01*
X98370501Y-95576416D01*
X98371735Y-95570582D01*
X98372842Y-95564624D01*
X98373820Y-95558559D01*
X98374669Y-95552408D01*
X98375388Y-95546190D01*
X98375975Y-95539923D01*
X98376749Y-95527320D01*
X98376935Y-95521022D01*
X98376983Y-95514753D01*
X98376895Y-95508531D01*
X98376668Y-95502375D01*
X98376301Y-95496305D01*
X98375793Y-95490339D01*
X98375144Y-95484498D01*
X98374351Y-95478799D01*
X98373416Y-95473259D01*
X98372346Y-95467880D01*
X98371150Y-95462659D01*
X98369837Y-95457593D01*
X98368416Y-95452681D01*
X98366896Y-95447919D01*
X98365286Y-95443307D01*
X98363596Y-95438841D01*
X98361833Y-95434519D01*
X98360007Y-95430339D01*
X98356201Y-95422394D01*
X98352251Y-95414989D01*
X98348228Y-95408106D01*
X98346206Y-95404854D01*
X98344158Y-95401732D01*
X98342058Y-95398743D01*
X98339880Y-95395890D01*
X98337598Y-95393177D01*
X98335187Y-95390606D01*
X98332620Y-95388182D01*
X98331271Y-95387025D01*
X98329872Y-95385907D01*
X98328422Y-95384827D01*
X98326917Y-95383785D01*
X98325354Y-95382783D01*
X98323729Y-95381820D01*
X98322039Y-95380898D01*
X98320282Y-95380015D01*
X98318453Y-95379174D01*
X98316550Y-95378374D01*
X98314569Y-95377615D01*
X98312507Y-95376899D01*
X98310362Y-95376225D01*
X98308128Y-95375594D01*
X98305805Y-95375007D01*
X98303387Y-95374463D01*
X98300872Y-95373963D01*
X98298257Y-95373509D01*
X98294961Y-95373018D01*
X98291554Y-95372594D01*
X98284444Y-95371932D01*
X98277002Y-95371494D01*
X98269301Y-95371254D01*
X98261417Y-95371181D01*
X98253424Y-95371250D01*
X98245397Y-95371432D01*
X98237408Y-95371698D01*
X98232912Y-95372733D01*
X98147595Y-95377358D01*
X98108398Y-95342761D01*
X98993874Y-94498808D01*
X99066738Y-94601695D01*
G37*
G36*
X96251305Y-93240344D02*
G01*
X96266962Y-93241489D01*
X96282391Y-93243375D01*
X96297574Y-93245984D01*
X96312490Y-93249295D01*
X96327120Y-93253292D01*
X96341445Y-93257955D01*
X96355446Y-93263266D01*
X96369103Y-93269205D01*
X96382396Y-93275755D01*
X96395307Y-93282897D01*
X96407816Y-93290611D01*
X96419904Y-93298880D01*
X96431551Y-93307685D01*
X96442738Y-93317007D01*
X96453445Y-93326828D01*
X96463653Y-93337128D01*
X96473343Y-93347890D01*
X96482496Y-93359094D01*
X96491092Y-93370722D01*
X96499111Y-93382756D01*
X96506535Y-93395177D01*
X96513343Y-93407965D01*
X96519517Y-93421103D01*
X96525038Y-93434572D01*
X96529885Y-93448352D01*
X96534039Y-93462427D01*
X96537482Y-93476776D01*
X96540193Y-93491382D01*
X96542154Y-93506225D01*
X96543344Y-93521287D01*
X96543746Y-93536550D01*
X96543344Y-93551812D01*
X96542154Y-93566875D01*
X96540193Y-93581718D01*
X96537482Y-93596323D01*
X96534039Y-93610673D01*
X96529885Y-93624747D01*
X96525038Y-93638528D01*
X96519517Y-93651997D01*
X96513343Y-93665135D01*
X96506535Y-93677923D01*
X96499111Y-93690343D01*
X96491092Y-93702377D01*
X96482496Y-93714005D01*
X96473343Y-93725210D01*
X96463653Y-93735972D01*
X96453445Y-93746272D01*
X96442738Y-93756093D01*
X96431551Y-93765415D01*
X96419904Y-93774219D01*
X96407816Y-93782488D01*
X96395307Y-93790203D01*
X96382396Y-93797345D01*
X96369103Y-93803895D01*
X96355446Y-93809834D01*
X96341445Y-93815145D01*
X96327120Y-93819808D01*
X96312490Y-93823804D01*
X96297574Y-93827116D01*
X96282391Y-93829724D01*
X96266962Y-93831611D01*
X96251305Y-93832756D01*
X96235439Y-93833142D01*
X96219574Y-93832756D01*
X96203917Y-93831611D01*
X96188487Y-93829724D01*
X96173305Y-93827116D01*
X96158389Y-93823804D01*
X96143759Y-93819808D01*
X96129433Y-93815145D01*
X96115433Y-93809834D01*
X96101776Y-93803895D01*
X96088482Y-93797345D01*
X96075571Y-93790203D01*
X96063063Y-93782488D01*
X96050975Y-93774219D01*
X96039328Y-93765415D01*
X96028141Y-93756093D01*
X96017434Y-93746272D01*
X96007226Y-93735972D01*
X95997535Y-93725210D01*
X95988383Y-93714005D01*
X95979787Y-93702377D01*
X95971768Y-93690343D01*
X95964344Y-93677923D01*
X95957536Y-93665135D01*
X95951362Y-93651997D01*
X95945841Y-93638528D01*
X95940994Y-93624747D01*
X95936840Y-93610673D01*
X95933397Y-93596323D01*
X95930686Y-93581718D01*
X95928725Y-93566875D01*
X95927535Y-93551812D01*
X95927133Y-93536550D01*
X95927535Y-93521287D01*
X95928725Y-93506225D01*
X95930686Y-93491382D01*
X95933397Y-93476776D01*
X95936840Y-93462427D01*
X95940994Y-93448352D01*
X95945841Y-93434572D01*
X95951362Y-93421103D01*
X95957536Y-93407965D01*
X95964344Y-93395177D01*
X95971768Y-93382756D01*
X95979787Y-93370722D01*
X95988383Y-93359094D01*
X95997535Y-93347890D01*
X96007226Y-93337128D01*
X96017434Y-93326828D01*
X96028141Y-93317007D01*
X96039328Y-93307685D01*
X96050975Y-93298880D01*
X96063063Y-93290611D01*
X96075571Y-93282897D01*
X96088482Y-93275755D01*
X96101776Y-93269205D01*
X96115433Y-93263266D01*
X96129433Y-93257955D01*
X96143759Y-93253292D01*
X96158389Y-93249295D01*
X96173305Y-93245984D01*
X96188487Y-93243375D01*
X96203917Y-93241489D01*
X96219574Y-93240344D01*
X96235439Y-93239958D01*
X96251305Y-93240344D01*
G37*
G36*
X97923869Y-93299023D02*
G01*
X97939526Y-93300168D01*
X97954956Y-93302054D01*
X97970138Y-93304663D01*
X97985054Y-93307975D01*
X97999685Y-93311971D01*
X98014010Y-93316634D01*
X98028011Y-93321945D01*
X98041667Y-93327884D01*
X98054961Y-93334434D01*
X98067872Y-93341576D01*
X98080381Y-93349290D01*
X98092468Y-93357559D01*
X98104115Y-93366364D01*
X98115302Y-93375686D01*
X98126009Y-93385507D01*
X98136218Y-93395807D01*
X98145908Y-93406569D01*
X98155060Y-93417773D01*
X98163656Y-93429402D01*
X98171675Y-93441435D01*
X98179099Y-93453856D01*
X98185908Y-93466644D01*
X98192082Y-93479782D01*
X98197602Y-93493251D01*
X98202449Y-93507032D01*
X98206604Y-93521106D01*
X98210046Y-93535455D01*
X98212758Y-93550061D01*
X98214718Y-93564904D01*
X98215909Y-93579966D01*
X98216310Y-93595229D01*
X98215909Y-93610492D01*
X98214718Y-93625554D01*
X98212758Y-93640397D01*
X98210046Y-93655003D01*
X98206604Y-93669352D01*
X98202449Y-93683426D01*
X98197602Y-93697207D01*
X98192082Y-93710676D01*
X98185908Y-93723814D01*
X98179099Y-93736602D01*
X98171675Y-93749023D01*
X98163656Y-93761056D01*
X98155060Y-93772685D01*
X98145908Y-93783889D01*
X98136218Y-93794651D01*
X98126009Y-93804951D01*
X98115302Y-93814772D01*
X98104115Y-93824094D01*
X98092468Y-93832899D01*
X98080381Y-93841168D01*
X98067872Y-93848882D01*
X98054961Y-93856024D01*
X98041667Y-93862574D01*
X98028011Y-93868513D01*
X98014010Y-93873824D01*
X97999685Y-93878487D01*
X97985054Y-93882483D01*
X97970138Y-93885795D01*
X97954956Y-93888404D01*
X97939526Y-93890290D01*
X97923869Y-93891435D01*
X97908004Y-93891821D01*
X97892139Y-93891435D01*
X97876481Y-93890290D01*
X97861052Y-93888404D01*
X97845870Y-93885795D01*
X97830954Y-93882483D01*
X97816323Y-93878487D01*
X97801998Y-93873824D01*
X97787997Y-93868513D01*
X97774341Y-93862574D01*
X97761047Y-93856024D01*
X97748136Y-93848882D01*
X97735627Y-93841168D01*
X97723540Y-93832899D01*
X97711893Y-93824094D01*
X97700706Y-93814772D01*
X97689999Y-93804951D01*
X97679790Y-93794651D01*
X97670100Y-93783889D01*
X97660948Y-93772685D01*
X97652352Y-93761056D01*
X97644333Y-93749023D01*
X97636909Y-93736602D01*
X97630100Y-93723814D01*
X97623926Y-93710676D01*
X97618406Y-93697207D01*
X97613559Y-93683426D01*
X97609404Y-93669352D01*
X97605962Y-93655003D01*
X97603250Y-93640397D01*
X97601290Y-93625554D01*
X97600099Y-93610492D01*
X97599698Y-93595229D01*
X97600099Y-93579966D01*
X97601290Y-93564904D01*
X97603250Y-93550061D01*
X97605962Y-93535455D01*
X97609404Y-93521106D01*
X97613559Y-93507032D01*
X97618406Y-93493251D01*
X97623926Y-93479782D01*
X97630100Y-93466644D01*
X97636909Y-93453856D01*
X97644333Y-93441435D01*
X97652352Y-93429402D01*
X97660948Y-93417773D01*
X97670100Y-93406569D01*
X97679790Y-93395807D01*
X97689999Y-93385507D01*
X97700706Y-93375686D01*
X97711893Y-93366364D01*
X97723540Y-93357559D01*
X97735627Y-93349290D01*
X97748136Y-93341576D01*
X97761047Y-93334434D01*
X97774341Y-93327884D01*
X97787997Y-93321945D01*
X97801998Y-93316634D01*
X97816323Y-93311971D01*
X97830954Y-93307975D01*
X97845870Y-93304663D01*
X97861052Y-93302054D01*
X97876481Y-93300168D01*
X97892139Y-93299023D01*
X97908004Y-93298637D01*
X97923869Y-93299023D01*
G37*
G36*
X94663388Y-92801661D02*
G01*
X94442022Y-93308959D01*
X94976991Y-93641008D01*
X94976990Y-93641008D01*
X94930872Y-94037623D01*
X94017736Y-93456537D01*
X94015189Y-93432388D01*
X94012977Y-93408224D01*
X94011131Y-93384043D01*
X94009683Y-93359845D01*
X94008666Y-93335626D01*
X94008110Y-93311387D01*
X94008048Y-93287126D01*
X94008512Y-93262841D01*
X94294444Y-92589518D01*
X94663388Y-92801661D01*
G37*
G36*
X100041484Y-93276117D02*
G01*
X100041885Y-93288957D01*
X100041964Y-93301879D01*
X100041709Y-93314848D01*
X100041107Y-93327832D01*
X100040148Y-93340796D01*
X100038818Y-93353708D01*
X100037106Y-93366533D01*
X100034999Y-93379238D01*
X100033950Y-93386328D01*
X100032609Y-93393313D01*
X100030997Y-93400202D01*
X100029134Y-93407000D01*
X100027040Y-93413716D01*
X100024737Y-93420357D01*
X100022244Y-93426929D01*
X100019581Y-93433441D01*
X100013831Y-93446310D01*
X100007648Y-93459024D01*
X99994640Y-93484218D01*
X99173734Y-94056070D01*
X99194818Y-93754047D01*
X99177945Y-93761307D01*
X99172984Y-93673664D01*
X99204791Y-93657050D01*
X99653368Y-93336630D01*
X99542678Y-92856995D01*
X99512705Y-92785527D01*
X99941594Y-92654088D01*
X100041484Y-93276117D01*
G37*
G36*
X94865264Y-90836831D02*
G01*
X94903488Y-90839040D01*
X94941399Y-90842685D01*
X94978964Y-90847744D01*
X95016152Y-90854196D01*
X95052928Y-90862017D01*
X95089261Y-90871186D01*
X95125119Y-90881679D01*
X95160468Y-90893476D01*
X95195276Y-90906553D01*
X95229510Y-90920888D01*
X95263139Y-90936459D01*
X95296128Y-90953244D01*
X95328446Y-90971221D01*
X95360061Y-90990366D01*
X95390938Y-91010659D01*
X95421047Y-91032076D01*
X95450354Y-91054595D01*
X95478827Y-91078194D01*
X95506432Y-91102851D01*
X95533139Y-91128543D01*
X95558913Y-91155248D01*
X95583723Y-91182945D01*
X95607536Y-91211610D01*
X95630318Y-91241221D01*
X95652039Y-91271756D01*
X95672664Y-91303193D01*
X95692163Y-91335509D01*
X95710500Y-91368682D01*
X95727646Y-91402690D01*
X95743566Y-91437511D01*
X95758228Y-91473122D01*
X95745257Y-91472528D01*
X95625342Y-91527873D01*
X95514676Y-91541697D01*
X95348640Y-91527873D01*
X95011994Y-91495575D01*
X94527734Y-91610866D01*
X94094220Y-91924490D01*
X94472388Y-92007482D01*
X94961247Y-92007482D01*
X95505452Y-91947537D01*
X95634565Y-91813799D01*
X95676087Y-91763078D01*
X95777528Y-91707733D01*
X95818198Y-91707733D01*
X95820170Y-91723704D01*
X95821884Y-91739702D01*
X95823341Y-91755723D01*
X95824539Y-91771764D01*
X95825480Y-91787823D01*
X95826162Y-91803896D01*
X95826585Y-91819980D01*
X95826750Y-91836072D01*
X95825522Y-91885659D01*
X95821858Y-91934910D01*
X95815793Y-91983742D01*
X95807361Y-92032074D01*
X95796595Y-92079824D01*
X95783529Y-92126909D01*
X95768198Y-92173247D01*
X95750635Y-92218758D01*
X95730874Y-92263358D01*
X95708950Y-92306966D01*
X95684896Y-92349499D01*
X95658746Y-92390877D01*
X95630534Y-92431016D01*
X95600294Y-92469835D01*
X95568060Y-92507252D01*
X95533866Y-92543185D01*
X95497934Y-92577380D01*
X95460518Y-92609615D01*
X95421699Y-92639856D01*
X95381561Y-92668069D01*
X95340184Y-92694221D01*
X95297652Y-92718276D01*
X95254045Y-92740201D01*
X95209446Y-92759963D01*
X95163937Y-92777527D01*
X95117599Y-92792860D01*
X95070516Y-92805926D01*
X95022768Y-92816694D01*
X94974439Y-92825127D01*
X94925609Y-92831194D01*
X94876360Y-92834858D01*
X94826776Y-92836088D01*
X94777188Y-92834860D01*
X94727936Y-92831198D01*
X94679103Y-92825133D01*
X94630770Y-92816701D01*
X94583019Y-92805936D01*
X94535933Y-92792870D01*
X94489594Y-92777540D01*
X94444082Y-92759977D01*
X94399481Y-92740216D01*
X94355872Y-92718292D01*
X94313338Y-92694238D01*
X94271960Y-92668088D01*
X94231819Y-92639875D01*
X94192999Y-92609635D01*
X94155582Y-92577401D01*
X94119648Y-92543206D01*
X94085452Y-92507274D01*
X94053217Y-92469857D01*
X94022975Y-92431038D01*
X93994761Y-92390899D01*
X93968610Y-92349521D01*
X93944554Y-92306987D01*
X93922629Y-92263378D01*
X93902867Y-92218777D01*
X93885302Y-92173265D01*
X93869970Y-92126925D01*
X93856903Y-92079838D01*
X93846136Y-92032086D01*
X93837703Y-91983752D01*
X93831637Y-91934917D01*
X93827972Y-91885663D01*
X93826743Y-91836072D01*
X93827973Y-91786484D01*
X93831637Y-91737233D01*
X93837704Y-91688401D01*
X93846137Y-91640070D01*
X93856905Y-91592320D01*
X93869971Y-91545236D01*
X93885304Y-91498897D01*
X93902868Y-91453387D01*
X93922630Y-91408788D01*
X93944555Y-91365180D01*
X93968610Y-91322647D01*
X93994761Y-91281270D01*
X94022975Y-91241132D01*
X94053216Y-91202313D01*
X94085450Y-91164897D01*
X94119645Y-91128965D01*
X94155579Y-91094771D01*
X94192996Y-91062537D01*
X94231815Y-91032297D01*
X94271954Y-91004085D01*
X94313332Y-90977935D01*
X94355865Y-90953881D01*
X94399473Y-90931956D01*
X94444073Y-90912196D01*
X94489584Y-90894633D01*
X94535923Y-90879302D01*
X94583008Y-90866236D01*
X94630757Y-90855470D01*
X94679089Y-90847038D01*
X94727922Y-90840973D01*
X94777173Y-90837309D01*
X94826760Y-90836081D01*
X94865264Y-90836831D01*
G37*
G36*
X99357809Y-90884365D02*
G01*
X99407060Y-90888029D01*
X99455892Y-90894094D01*
X99504224Y-90902526D01*
X99551974Y-90913292D01*
X99599059Y-90926358D01*
X99645397Y-90941689D01*
X99690908Y-90959252D01*
X99735508Y-90979012D01*
X99779116Y-91000937D01*
X99821650Y-91024991D01*
X99863027Y-91051141D01*
X99903166Y-91079353D01*
X99941985Y-91109593D01*
X99979403Y-91141827D01*
X100015336Y-91176021D01*
X100049531Y-91211953D01*
X100081766Y-91249369D01*
X100112006Y-91288188D01*
X100140220Y-91328326D01*
X100166371Y-91369703D01*
X100190426Y-91412236D01*
X100212351Y-91455844D01*
X100232113Y-91500443D01*
X100249677Y-91545953D01*
X100265010Y-91592291D01*
X100278076Y-91639376D01*
X100288844Y-91687125D01*
X100297277Y-91735457D01*
X100303344Y-91784289D01*
X100307008Y-91833540D01*
X100308238Y-91883128D01*
X100307009Y-91932719D01*
X100303344Y-91981973D01*
X100297278Y-92030808D01*
X100288845Y-92079142D01*
X100278078Y-92126894D01*
X100265011Y-92173981D01*
X100249678Y-92220321D01*
X100232114Y-92265833D01*
X100212352Y-92310434D01*
X100190427Y-92354043D01*
X100166371Y-92396577D01*
X100140219Y-92437954D01*
X100112006Y-92478094D01*
X100081764Y-92516913D01*
X100049529Y-92554330D01*
X100015333Y-92590262D01*
X99979399Y-92624457D01*
X99941981Y-92656691D01*
X99903161Y-92686931D01*
X99863021Y-92715144D01*
X99821643Y-92741294D01*
X99779108Y-92765348D01*
X99735500Y-92787272D01*
X99690898Y-92807033D01*
X99645387Y-92824596D01*
X99599047Y-92839927D01*
X99551961Y-92852992D01*
X99504211Y-92863757D01*
X99455878Y-92872189D01*
X99407045Y-92878254D01*
X99357793Y-92881917D01*
X99308205Y-92883144D01*
X99258621Y-92881915D01*
X99209372Y-92878250D01*
X99160542Y-92872184D01*
X99112213Y-92863750D01*
X99064465Y-92852983D01*
X99017381Y-92839916D01*
X98971044Y-92824583D01*
X98925535Y-92807019D01*
X98880936Y-92787258D01*
X98837329Y-92765332D01*
X98794797Y-92741277D01*
X98753420Y-92715126D01*
X98713282Y-92686913D01*
X98674463Y-92656672D01*
X98637047Y-92624437D01*
X98601115Y-92590242D01*
X98566921Y-92554309D01*
X98534687Y-92516892D01*
X98504447Y-92478072D01*
X98476235Y-92437933D01*
X98450085Y-92396556D01*
X98426031Y-92354022D01*
X98404106Y-92310414D01*
X98384346Y-92265814D01*
X98366783Y-92220304D01*
X98351451Y-92173965D01*
X98338386Y-92126880D01*
X98327620Y-92079130D01*
X98319187Y-92030798D01*
X98313122Y-91981966D01*
X98309459Y-91932715D01*
X98308231Y-91883128D01*
X98308395Y-91867036D01*
X98308819Y-91850953D01*
X98309501Y-91834880D01*
X98310442Y-91818822D01*
X98311640Y-91802780D01*
X98313097Y-91786759D01*
X98314811Y-91770761D01*
X98316783Y-91754790D01*
X98357453Y-91754789D01*
X98458894Y-91810135D01*
X98500416Y-91860855D01*
X98629529Y-91994594D01*
X99173734Y-92054538D01*
X99662593Y-92054538D01*
X100040761Y-91971546D01*
X99607247Y-91657922D01*
X99122987Y-91542632D01*
X98786341Y-91574929D01*
X98620305Y-91588753D01*
X98509640Y-91574929D01*
X98389725Y-91519584D01*
X98376754Y-91520178D01*
X98391416Y-91484567D01*
X98407336Y-91449746D01*
X98424481Y-91415738D01*
X98442819Y-91382565D01*
X98462317Y-91350249D01*
X98482943Y-91318812D01*
X98504663Y-91288277D01*
X98527446Y-91258666D01*
X98551259Y-91230001D01*
X98576068Y-91202304D01*
X98601843Y-91175599D01*
X98628549Y-91149907D01*
X98656155Y-91125250D01*
X98684628Y-91101651D01*
X98713935Y-91079131D01*
X98744043Y-91057715D01*
X98774921Y-91037422D01*
X98806535Y-91018277D01*
X98838854Y-91000300D01*
X98871843Y-90983515D01*
X98905471Y-90967944D01*
X98939706Y-90953609D01*
X98974514Y-90940532D01*
X99009863Y-90928735D01*
X99045720Y-90918241D01*
X99082054Y-90909073D01*
X99118830Y-90901252D01*
X99156018Y-90894800D01*
X99193583Y-90889741D01*
X99231494Y-90886095D01*
X99269718Y-90883887D01*
X99308222Y-90883137D01*
X99357809Y-90884365D01*
G37*
D13*
G36*
X105206087Y-101322491D02*
G01*
X105918989Y-101820832D01*
X106059014Y-101631672D01*
X105571627Y-101300662D01*
X106204515Y-100709607D01*
X105502488Y-100227618D01*
X105355161Y-100413126D01*
X105838975Y-100731436D01*
X105206087Y-101322491D01*
G37*
G36*
X105060030Y-101662154D02*
G01*
X104839992Y-101662154D01*
X104839992Y-101366705D01*
X104207103Y-100928137D01*
X104214443Y-100922739D01*
X104563515Y-100922739D01*
X104839992Y-101122060D01*
X104839992Y-100712464D01*
X104563515Y-100922739D01*
X104214443Y-100922739D01*
X104998194Y-100346369D01*
X105058204Y-100346369D01*
X105060030Y-101662154D01*
G37*
G36*
X103210422Y-100431304D02*
G01*
X103570484Y-101167941D01*
X103570484Y-101662630D01*
X103792428Y-101662630D01*
X103792428Y-101164289D01*
X104152491Y-100431304D01*
X103939755Y-100331287D01*
X103681456Y-100920596D01*
X103421411Y-100331287D01*
X103210422Y-100431304D01*
G37*
G36*
X102129757Y-101629846D02*
G01*
X102302565Y-101819006D01*
X103146442Y-101013310D01*
X102311614Y-100227618D01*
X102137060Y-100414952D01*
X102813606Y-101011485D01*
X102129757Y-101629846D01*
G37*
G36*
X101983938Y-101665726D02*
G01*
X101763900Y-101665726D01*
X101763900Y-101400441D01*
X101638401Y-101304155D01*
X101274687Y-101712956D01*
X101111008Y-101571265D01*
X101462021Y-101176990D01*
X101140221Y-100940837D01*
X101485597Y-100940837D01*
X101763900Y-101155240D01*
X101763900Y-100724609D01*
X101485597Y-100940837D01*
X101140221Y-100940837D01*
X101132758Y-100935360D01*
X101925753Y-100341288D01*
X101982112Y-100341288D01*
X101983938Y-101665726D01*
G37*
G36*
X101056078Y-101640801D02*
G01*
X100836039Y-101706288D01*
X100748722Y-101455292D01*
X100372228Y-101455292D01*
X100294040Y-101702637D01*
X100072176Y-101640801D01*
X100209855Y-101251606D01*
X100437716Y-101251606D01*
X100679663Y-101251606D01*
X100554165Y-100871460D01*
X100437716Y-101251606D01*
X100209855Y-101251606D01*
X100523207Y-100365816D01*
X100579566Y-100365816D01*
X101056078Y-101640801D01*
G37*
G36*
X99935327Y-101702796D02*
G01*
X99871665Y-101702796D01*
X99042314Y-101316935D01*
X99109238Y-101265974D01*
X99415157Y-101265974D01*
X99715288Y-101398854D01*
X99715288Y-101056651D01*
X99415157Y-101265974D01*
X99109238Y-101265974D01*
X99460641Y-100998387D01*
X99140160Y-100779936D01*
X99451591Y-100779936D01*
X99715288Y-100938297D01*
X99715288Y-100648882D01*
X99451591Y-100779936D01*
X99140160Y-100779936D01*
X99084146Y-100741755D01*
X99871665Y-100341288D01*
X99935327Y-100341288D01*
X99935327Y-101702796D01*
G37*
G36*
X98084051Y-101779000D02*
G01*
X98324093Y-101779000D01*
X98324093Y-100265799D01*
X98084051Y-100265799D01*
X98084051Y-101779000D01*
G37*
G36*
X97025692Y-101682633D02*
G01*
X97091180Y-101682633D01*
X97609524Y-100947823D01*
X97609524Y-101666202D01*
X97829562Y-101666202D01*
X97829562Y-100362244D01*
X97764075Y-100362244D01*
X97245810Y-101078798D01*
X97245810Y-100378596D01*
X97025692Y-100378596D01*
X97025692Y-101682633D01*
G37*
G36*
X96807162Y-101697715D02*
G01*
X96752629Y-101697715D01*
X95932776Y-101015851D01*
X96256113Y-101015851D01*
X96590775Y-101291137D01*
X96590775Y-100736913D01*
X96256113Y-101015851D01*
X95932776Y-101015851D01*
X95930580Y-101014025D01*
X96752629Y-100341288D01*
X96807162Y-100341288D01*
X96807162Y-101697715D01*
G37*
G36*
X94973429Y-101666202D02*
G01*
X95793652Y-101666202D01*
X95793652Y-100378596D01*
X95573613Y-100378596D01*
X95573613Y-101460690D01*
X95193468Y-101460690D01*
X95193468Y-100378596D01*
X94973429Y-100378596D01*
X94973429Y-101666202D01*
G37*
G36*
X93965396Y-101275181D02*
G01*
X94572883Y-101706288D01*
X94705684Y-101528003D01*
X94303709Y-101255178D01*
X94827531Y-100758663D01*
X94232824Y-100338590D01*
X94098197Y-100514969D01*
X94489218Y-100780492D01*
X93965396Y-101275181D01*
G37*
G36*
X93090482Y-100589586D02*
G01*
X93390534Y-100589586D01*
X93390534Y-101666202D01*
X93612478Y-101666202D01*
X93612478Y-100589586D01*
X93910704Y-100589586D01*
X93910704Y-100378596D01*
X93090482Y-100378596D01*
X93090482Y-100589586D01*
G37*
G36*
X92953791Y-101665726D02*
G01*
X92733753Y-101665726D01*
X92733753Y-101400441D01*
X92608255Y-101304155D01*
X92244541Y-101712956D01*
X92080861Y-101571265D01*
X92431875Y-101176990D01*
X92110074Y-100940837D01*
X92455450Y-100940837D01*
X92733753Y-101155240D01*
X92733753Y-100724609D01*
X92455450Y-100940837D01*
X92110074Y-100940837D01*
X92102611Y-100935360D01*
X92895607Y-100341288D01*
X92951966Y-100341288D01*
X92953791Y-101665726D01*
G37*
G36*
X91704050Y-101666202D02*
G01*
X91925914Y-101666202D01*
X91925914Y-100378596D01*
X91704050Y-100378596D01*
X91704050Y-101666202D01*
G37*
G36*
X90682125Y-101535306D02*
G01*
X90840407Y-101708035D01*
X91549658Y-101013310D01*
X90847630Y-100331287D01*
X90693080Y-100505920D01*
X91153239Y-100907816D01*
X90740310Y-100907816D01*
X90740310Y-101113328D01*
X91154986Y-101113328D01*
X90682125Y-101535306D01*
G37*
G36*
X89728467Y-101275181D02*
G01*
X90335954Y-101706288D01*
X90468755Y-101528003D01*
X90066780Y-101255178D01*
X90590601Y-100758663D01*
X89995894Y-100338590D01*
X89861268Y-100514969D01*
X90252288Y-100780492D01*
X89728467Y-101275181D01*
G37*
D14*
X105445489Y-87470996D02*
X105445489Y-85970996D01*
X105445489Y-85970996D02*
X105088346Y-85970996D01*
X105088346Y-85970996D02*
X104874060Y-86042425D01*
X104874060Y-86042425D02*
X104731203Y-86185282D01*
X104731203Y-86185282D02*
X104659774Y-86328139D01*
X104659774Y-86328139D02*
X104588346Y-86613853D01*
X104588346Y-86613853D02*
X104588346Y-86828139D01*
X104588346Y-86828139D02*
X104659774Y-87113853D01*
X104659774Y-87113853D02*
X104731203Y-87256710D01*
X104731203Y-87256710D02*
X104874060Y-87399568D01*
X104874060Y-87399568D02*
X105088346Y-87470996D01*
X105088346Y-87470996D02*
X105445489Y-87470996D01*
X103088346Y-87328139D02*
X103159774Y-87399568D01*
X103159774Y-87399568D02*
X103374060Y-87470996D01*
X103374060Y-87470996D02*
X103516917Y-87470996D01*
X103516917Y-87470996D02*
X103731203Y-87399568D01*
X103731203Y-87399568D02*
X103874060Y-87256710D01*
X103874060Y-87256710D02*
X103945489Y-87113853D01*
X103945489Y-87113853D02*
X104016917Y-86828139D01*
X104016917Y-86828139D02*
X104016917Y-86613853D01*
X104016917Y-86613853D02*
X103945489Y-86328139D01*
X103945489Y-86328139D02*
X103874060Y-86185282D01*
X103874060Y-86185282D02*
X103731203Y-86042425D01*
X103731203Y-86042425D02*
X103516917Y-85970996D01*
X103516917Y-85970996D02*
X103374060Y-85970996D01*
X103374060Y-85970996D02*
X103159774Y-86042425D01*
X103159774Y-86042425D02*
X103088346Y-86113853D01*
X101588346Y-87328139D02*
X101659774Y-87399568D01*
X101659774Y-87399568D02*
X101874060Y-87470996D01*
X101874060Y-87470996D02*
X102016917Y-87470996D01*
X102016917Y-87470996D02*
X102231203Y-87399568D01*
X102231203Y-87399568D02*
X102374060Y-87256710D01*
X102374060Y-87256710D02*
X102445489Y-87113853D01*
X102445489Y-87113853D02*
X102516917Y-86828139D01*
X102516917Y-86828139D02*
X102516917Y-86613853D01*
X102516917Y-86613853D02*
X102445489Y-86328139D01*
X102445489Y-86328139D02*
X102374060Y-86185282D01*
X102374060Y-86185282D02*
X102231203Y-86042425D01*
X102231203Y-86042425D02*
X102016917Y-85970996D01*
X102016917Y-85970996D02*
X101874060Y-85970996D01*
X101874060Y-85970996D02*
X101659774Y-86042425D01*
X101659774Y-86042425D02*
X101588346Y-86113853D01*
X104731203Y-89885912D02*
X105445489Y-89885912D01*
X105445489Y-89885912D02*
X105445489Y-88385912D01*
X104231203Y-89885912D02*
X104231203Y-88885912D01*
X104231203Y-88385912D02*
X104302631Y-88457341D01*
X104302631Y-88457341D02*
X104231203Y-88528769D01*
X104231203Y-88528769D02*
X104159774Y-88457341D01*
X104159774Y-88457341D02*
X104231203Y-88385912D01*
X104231203Y-88385912D02*
X104231203Y-88528769D01*
X102874060Y-88885912D02*
X102874060Y-90100198D01*
X102874060Y-90100198D02*
X102945488Y-90243055D01*
X102945488Y-90243055D02*
X103016917Y-90314484D01*
X103016917Y-90314484D02*
X103159774Y-90385912D01*
X103159774Y-90385912D02*
X103374060Y-90385912D01*
X103374060Y-90385912D02*
X103516917Y-90314484D01*
X102874060Y-89814484D02*
X103016917Y-89885912D01*
X103016917Y-89885912D02*
X103302631Y-89885912D01*
X103302631Y-89885912D02*
X103445488Y-89814484D01*
X103445488Y-89814484D02*
X103516917Y-89743055D01*
X103516917Y-89743055D02*
X103588345Y-89600198D01*
X103588345Y-89600198D02*
X103588345Y-89171626D01*
X103588345Y-89171626D02*
X103516917Y-89028769D01*
X103516917Y-89028769D02*
X103445488Y-88957341D01*
X103445488Y-88957341D02*
X103302631Y-88885912D01*
X103302631Y-88885912D02*
X103016917Y-88885912D01*
X103016917Y-88885912D02*
X102874060Y-88957341D01*
X102159774Y-89885912D02*
X102159774Y-88385912D01*
X101516917Y-89885912D02*
X101516917Y-89100198D01*
X101516917Y-89100198D02*
X101588345Y-88957341D01*
X101588345Y-88957341D02*
X101731202Y-88885912D01*
X101731202Y-88885912D02*
X101945488Y-88885912D01*
X101945488Y-88885912D02*
X102088345Y-88957341D01*
X102088345Y-88957341D02*
X102159774Y-89028769D01*
X101016916Y-88885912D02*
X100445488Y-88885912D01*
X100802631Y-88385912D02*
X100802631Y-89671626D01*
X100802631Y-89671626D02*
X100731202Y-89814484D01*
X100731202Y-89814484D02*
X100588345Y-89885912D01*
X100588345Y-89885912D02*
X100445488Y-89885912D01*
X98302631Y-89100198D02*
X98802631Y-89100198D01*
X98802631Y-89885912D02*
X98802631Y-88385912D01*
X98802631Y-88385912D02*
X98088345Y-88385912D01*
X97302631Y-89885912D02*
X97445488Y-89814484D01*
X97445488Y-89814484D02*
X97516917Y-89671626D01*
X97516917Y-89671626D02*
X97516917Y-88385912D01*
X96088346Y-89885912D02*
X96088346Y-89100198D01*
X96088346Y-89100198D02*
X96159774Y-88957341D01*
X96159774Y-88957341D02*
X96302631Y-88885912D01*
X96302631Y-88885912D02*
X96588346Y-88885912D01*
X96588346Y-88885912D02*
X96731203Y-88957341D01*
X96088346Y-89814484D02*
X96231203Y-89885912D01*
X96231203Y-89885912D02*
X96588346Y-89885912D01*
X96588346Y-89885912D02*
X96731203Y-89814484D01*
X96731203Y-89814484D02*
X96802631Y-89671626D01*
X96802631Y-89671626D02*
X96802631Y-89528769D01*
X96802631Y-89528769D02*
X96731203Y-89385912D01*
X96731203Y-89385912D02*
X96588346Y-89314484D01*
X96588346Y-89314484D02*
X96231203Y-89314484D01*
X96231203Y-89314484D02*
X96088346Y-89243055D01*
X95445488Y-89814484D02*
X95302631Y-89885912D01*
X95302631Y-89885912D02*
X95016917Y-89885912D01*
X95016917Y-89885912D02*
X94874060Y-89814484D01*
X94874060Y-89814484D02*
X94802631Y-89671626D01*
X94802631Y-89671626D02*
X94802631Y-89600198D01*
X94802631Y-89600198D02*
X94874060Y-89457341D01*
X94874060Y-89457341D02*
X95016917Y-89385912D01*
X95016917Y-89385912D02*
X95231203Y-89385912D01*
X95231203Y-89385912D02*
X95374060Y-89314484D01*
X95374060Y-89314484D02*
X95445488Y-89171626D01*
X95445488Y-89171626D02*
X95445488Y-89100198D01*
X95445488Y-89100198D02*
X95374060Y-88957341D01*
X95374060Y-88957341D02*
X95231203Y-88885912D01*
X95231203Y-88885912D02*
X95016917Y-88885912D01*
X95016917Y-88885912D02*
X94874060Y-88957341D01*
X94159774Y-89885912D02*
X94159774Y-88385912D01*
X93516917Y-89885912D02*
X93516917Y-89100198D01*
X93516917Y-89100198D02*
X93588345Y-88957341D01*
X93588345Y-88957341D02*
X93731202Y-88885912D01*
X93731202Y-88885912D02*
X93945488Y-88885912D01*
X93945488Y-88885912D02*
X94088345Y-88957341D01*
X94088345Y-88957341D02*
X94159774Y-89028769D01*
X92231202Y-89814484D02*
X92374059Y-89885912D01*
X92374059Y-89885912D02*
X92659774Y-89885912D01*
X92659774Y-89885912D02*
X92802631Y-89814484D01*
X92802631Y-89814484D02*
X92874059Y-89671626D01*
X92874059Y-89671626D02*
X92874059Y-89100198D01*
X92874059Y-89100198D02*
X92802631Y-88957341D01*
X92802631Y-88957341D02*
X92659774Y-88885912D01*
X92659774Y-88885912D02*
X92374059Y-88885912D01*
X92374059Y-88885912D02*
X92231202Y-88957341D01*
X92231202Y-88957341D02*
X92159774Y-89100198D01*
X92159774Y-89100198D02*
X92159774Y-89243055D01*
X92159774Y-89243055D02*
X92874059Y-89385912D01*
X91516917Y-89885912D02*
X91516917Y-88885912D01*
X91516917Y-89171626D02*
X91445488Y-89028769D01*
X91445488Y-89028769D02*
X91374060Y-88957341D01*
X91374060Y-88957341D02*
X91231202Y-88885912D01*
X91231202Y-88885912D02*
X91088345Y-88885912D01*
X105445489Y-92300828D02*
X105445489Y-90800828D01*
X105445489Y-90800828D02*
X104945489Y-91872257D01*
X104945489Y-91872257D02*
X104445489Y-90800828D01*
X104445489Y-90800828D02*
X104445489Y-92300828D01*
X103731203Y-92300828D02*
X103731203Y-90800828D01*
X103588346Y-91729400D02*
X103159774Y-92300828D01*
X103159774Y-91300828D02*
X103731203Y-91872257D01*
X102516917Y-92157971D02*
X102445488Y-92229400D01*
X102445488Y-92229400D02*
X102516917Y-92300828D01*
X102516917Y-92300828D02*
X102588345Y-92229400D01*
X102588345Y-92229400D02*
X102516917Y-92157971D01*
X102516917Y-92157971D02*
X102516917Y-92300828D01*
X101016916Y-92300828D02*
X101874059Y-92300828D01*
X101445488Y-92300828D02*
X101445488Y-90800828D01*
X101445488Y-90800828D02*
X101588345Y-91015114D01*
X101588345Y-91015114D02*
X101731202Y-91157971D01*
X101731202Y-91157971D02*
X101874059Y-91229400D01*
D11*
X95166666Y-82454819D02*
X95499999Y-81978628D01*
X95738094Y-82454819D02*
X95738094Y-81454819D01*
X95738094Y-81454819D02*
X95357142Y-81454819D01*
X95357142Y-81454819D02*
X95261904Y-81502438D01*
X95261904Y-81502438D02*
X95214285Y-81550057D01*
X95214285Y-81550057D02*
X95166666Y-81645295D01*
X95166666Y-81645295D02*
X95166666Y-81788152D01*
X95166666Y-81788152D02*
X95214285Y-81883390D01*
X95214285Y-81883390D02*
X95261904Y-81931009D01*
X95261904Y-81931009D02*
X95357142Y-81978628D01*
X95357142Y-81978628D02*
X95738094Y-81978628D01*
X94833332Y-81454819D02*
X94166666Y-81454819D01*
X94166666Y-81454819D02*
X94595237Y-82454819D01*
X95166666Y-84704819D02*
X95499999Y-84228628D01*
X95738094Y-84704819D02*
X95738094Y-83704819D01*
X95738094Y-83704819D02*
X95357142Y-83704819D01*
X95357142Y-83704819D02*
X95261904Y-83752438D01*
X95261904Y-83752438D02*
X95214285Y-83800057D01*
X95214285Y-83800057D02*
X95166666Y-83895295D01*
X95166666Y-83895295D02*
X95166666Y-84038152D01*
X95166666Y-84038152D02*
X95214285Y-84133390D01*
X95214285Y-84133390D02*
X95261904Y-84181009D01*
X95261904Y-84181009D02*
X95357142Y-84228628D01*
X95357142Y-84228628D02*
X95738094Y-84228628D01*
X94309523Y-83704819D02*
X94499999Y-83704819D01*
X94499999Y-83704819D02*
X94595237Y-83752438D01*
X94595237Y-83752438D02*
X94642856Y-83800057D01*
X94642856Y-83800057D02*
X94738094Y-83942914D01*
X94738094Y-83942914D02*
X94785713Y-84133390D01*
X94785713Y-84133390D02*
X94785713Y-84514342D01*
X94785713Y-84514342D02*
X94738094Y-84609580D01*
X94738094Y-84609580D02*
X94690475Y-84657200D01*
X94690475Y-84657200D02*
X94595237Y-84704819D01*
X94595237Y-84704819D02*
X94404761Y-84704819D01*
X94404761Y-84704819D02*
X94309523Y-84657200D01*
X94309523Y-84657200D02*
X94261904Y-84609580D01*
X94261904Y-84609580D02*
X94214285Y-84514342D01*
X94214285Y-84514342D02*
X94214285Y-84276247D01*
X94214285Y-84276247D02*
X94261904Y-84181009D01*
X94261904Y-84181009D02*
X94309523Y-84133390D01*
X94309523Y-84133390D02*
X94404761Y-84085771D01*
X94404761Y-84085771D02*
X94595237Y-84085771D01*
X94595237Y-84085771D02*
X94690475Y-84133390D01*
X94690475Y-84133390D02*
X94738094Y-84181009D01*
X94738094Y-84181009D02*
X94785713Y-84276247D01*
X94130951Y-86454819D02*
X94130951Y-85454819D01*
X94130951Y-85454819D02*
X93892856Y-85454819D01*
X93892856Y-85454819D02*
X93749999Y-85502438D01*
X93749999Y-85502438D02*
X93654761Y-85597676D01*
X93654761Y-85597676D02*
X93607142Y-85692914D01*
X93607142Y-85692914D02*
X93559523Y-85883390D01*
X93559523Y-85883390D02*
X93559523Y-86026247D01*
X93559523Y-86026247D02*
X93607142Y-86216723D01*
X93607142Y-86216723D02*
X93654761Y-86311961D01*
X93654761Y-86311961D02*
X93749999Y-86407200D01*
X93749999Y-86407200D02*
X93892856Y-86454819D01*
X93892856Y-86454819D02*
X94130951Y-86454819D01*
X92940475Y-85454819D02*
X92749999Y-85454819D01*
X92749999Y-85454819D02*
X92654761Y-85502438D01*
X92654761Y-85502438D02*
X92559523Y-85597676D01*
X92559523Y-85597676D02*
X92511904Y-85788152D01*
X92511904Y-85788152D02*
X92511904Y-86121485D01*
X92511904Y-86121485D02*
X92559523Y-86311961D01*
X92559523Y-86311961D02*
X92654761Y-86407200D01*
X92654761Y-86407200D02*
X92749999Y-86454819D01*
X92749999Y-86454819D02*
X92940475Y-86454819D01*
X92940475Y-86454819D02*
X93035713Y-86407200D01*
X93035713Y-86407200D02*
X93130951Y-86311961D01*
X93130951Y-86311961D02*
X93178570Y-86121485D01*
X93178570Y-86121485D02*
X93178570Y-85788152D01*
X93178570Y-85788152D02*
X93130951Y-85597676D01*
X93130951Y-85597676D02*
X93035713Y-85502438D01*
X93035713Y-85502438D02*
X92940475Y-85454819D01*
X92178570Y-85454819D02*
X91940475Y-86454819D01*
X91940475Y-86454819D02*
X91749999Y-85740533D01*
X91749999Y-85740533D02*
X91559523Y-86454819D01*
X91559523Y-86454819D02*
X91321428Y-85454819D01*
X90940475Y-86454819D02*
X90940475Y-85454819D01*
X90940475Y-85454819D02*
X90369047Y-86454819D01*
X90369047Y-86454819D02*
X90369047Y-85454819D01*
X94035713Y-79704819D02*
X94035713Y-80514342D01*
X94035713Y-80514342D02*
X93988094Y-80609580D01*
X93988094Y-80609580D02*
X93940475Y-80657200D01*
X93940475Y-80657200D02*
X93845237Y-80704819D01*
X93845237Y-80704819D02*
X93654761Y-80704819D01*
X93654761Y-80704819D02*
X93559523Y-80657200D01*
X93559523Y-80657200D02*
X93511904Y-80609580D01*
X93511904Y-80609580D02*
X93464285Y-80514342D01*
X93464285Y-80514342D02*
X93464285Y-79704819D01*
X92988094Y-80704819D02*
X92988094Y-79704819D01*
X92988094Y-79704819D02*
X92607142Y-79704819D01*
X92607142Y-79704819D02*
X92511904Y-79752438D01*
X92511904Y-79752438D02*
X92464285Y-79800057D01*
X92464285Y-79800057D02*
X92416666Y-79895295D01*
X92416666Y-79895295D02*
X92416666Y-80038152D01*
X92416666Y-80038152D02*
X92464285Y-80133390D01*
X92464285Y-80133390D02*
X92511904Y-80181009D01*
X92511904Y-80181009D02*
X92607142Y-80228628D01*
X92607142Y-80228628D02*
X92988094Y-80228628D01*
D15*
X103066667Y-80950666D02*
X102966667Y-80984000D01*
X102966667Y-80984000D02*
X102933333Y-81017333D01*
X102933333Y-81017333D02*
X102900000Y-81084000D01*
X102900000Y-81084000D02*
X102900000Y-81184000D01*
X102900000Y-81184000D02*
X102933333Y-81250666D01*
X102933333Y-81250666D02*
X102966667Y-81284000D01*
X102966667Y-81284000D02*
X103033333Y-81317333D01*
X103033333Y-81317333D02*
X103300000Y-81317333D01*
X103300000Y-81317333D02*
X103300000Y-80617333D01*
X103300000Y-80617333D02*
X103066667Y-80617333D01*
X103066667Y-80617333D02*
X103000000Y-80650666D01*
X103000000Y-80650666D02*
X102966667Y-80684000D01*
X102966667Y-80684000D02*
X102933333Y-80750666D01*
X102933333Y-80750666D02*
X102933333Y-80817333D01*
X102933333Y-80817333D02*
X102966667Y-80884000D01*
X102966667Y-80884000D02*
X103000000Y-80917333D01*
X103000000Y-80917333D02*
X103066667Y-80950666D01*
X103066667Y-80950666D02*
X103300000Y-80950666D01*
X102466667Y-80984000D02*
X102466667Y-81317333D01*
X102700000Y-80617333D02*
X102466667Y-80984000D01*
X102466667Y-80984000D02*
X102233333Y-80617333D01*
X102000000Y-81317333D02*
X102000000Y-80617333D01*
X102000000Y-80617333D02*
X101733333Y-80617333D01*
X101733333Y-80617333D02*
X101666667Y-80650666D01*
X101666667Y-80650666D02*
X101633333Y-80684000D01*
X101633333Y-80684000D02*
X101600000Y-80750666D01*
X101600000Y-80750666D02*
X101600000Y-80850666D01*
X101600000Y-80850666D02*
X101633333Y-80917333D01*
X101633333Y-80917333D02*
X101666667Y-80950666D01*
X101666667Y-80950666D02*
X101733333Y-80984000D01*
X101733333Y-80984000D02*
X102000000Y-80984000D01*
X101333333Y-81117333D02*
X101000000Y-81117333D01*
X101400000Y-81317333D02*
X101166667Y-80617333D01*
X101166667Y-80617333D02*
X100933333Y-81317333D01*
X100733333Y-81284000D02*
X100633333Y-81317333D01*
X100633333Y-81317333D02*
X100466667Y-81317333D01*
X100466667Y-81317333D02*
X100400000Y-81284000D01*
X100400000Y-81284000D02*
X100366667Y-81250666D01*
X100366667Y-81250666D02*
X100333333Y-81184000D01*
X100333333Y-81184000D02*
X100333333Y-81117333D01*
X100333333Y-81117333D02*
X100366667Y-81050666D01*
X100366667Y-81050666D02*
X100400000Y-81017333D01*
X100400000Y-81017333D02*
X100466667Y-80984000D01*
X100466667Y-80984000D02*
X100600000Y-80950666D01*
X100600000Y-80950666D02*
X100666667Y-80917333D01*
X100666667Y-80917333D02*
X100700000Y-80884000D01*
X100700000Y-80884000D02*
X100733333Y-80817333D01*
X100733333Y-80817333D02*
X100733333Y-80750666D01*
X100733333Y-80750666D02*
X100700000Y-80684000D01*
X100700000Y-80684000D02*
X100666667Y-80650666D01*
X100666667Y-80650666D02*
X100600000Y-80617333D01*
X100600000Y-80617333D02*
X100433333Y-80617333D01*
X100433333Y-80617333D02*
X100333333Y-80650666D01*
X100066666Y-81284000D02*
X99966666Y-81317333D01*
X99966666Y-81317333D02*
X99800000Y-81317333D01*
X99800000Y-81317333D02*
X99733333Y-81284000D01*
X99733333Y-81284000D02*
X99700000Y-81250666D01*
X99700000Y-81250666D02*
X99666666Y-81184000D01*
X99666666Y-81184000D02*
X99666666Y-81117333D01*
X99666666Y-81117333D02*
X99700000Y-81050666D01*
X99700000Y-81050666D02*
X99733333Y-81017333D01*
X99733333Y-81017333D02*
X99800000Y-80984000D01*
X99800000Y-80984000D02*
X99933333Y-80950666D01*
X99933333Y-80950666D02*
X100000000Y-80917333D01*
X100000000Y-80917333D02*
X100033333Y-80884000D01*
X100033333Y-80884000D02*
X100066666Y-80817333D01*
X100066666Y-80817333D02*
X100066666Y-80750666D01*
X100066666Y-80750666D02*
X100033333Y-80684000D01*
X100033333Y-80684000D02*
X100000000Y-80650666D01*
X100000000Y-80650666D02*
X99933333Y-80617333D01*
X99933333Y-80617333D02*
X99766666Y-80617333D01*
X99766666Y-80617333D02*
X99666666Y-80650666D01*
D16*
%TO.C,REF\u002A\u002A*%
X100232829Y-98701097D02*
X100292753Y-98723355D01*
X100317673Y-98740080D01*
X100342910Y-98764043D01*
X100360912Y-98794526D01*
X100372858Y-98836023D01*
X100379930Y-98893032D01*
X100383308Y-98970047D01*
X100384171Y-99071565D01*
X100384002Y-99124027D01*
X100383153Y-99195715D01*
X100381711Y-99252925D01*
X100379814Y-99290809D01*
X100377597Y-99304514D01*
X100363172Y-99299981D01*
X100334054Y-99287670D01*
X100333181Y-99287272D01*
X100318060Y-99279356D01*
X100307891Y-99268495D01*
X100301691Y-99249471D01*
X100298478Y-99217069D01*
X100297270Y-99166071D01*
X100297086Y-99091261D01*
X100296714Y-99043804D01*
X100292750Y-98954615D01*
X100283673Y-98889287D01*
X100268524Y-98844393D01*
X100246345Y-98816507D01*
X100216175Y-98802203D01*
X100211990Y-98801206D01*
X100155480Y-98800427D01*
X100111410Y-98825744D01*
X100080972Y-98876502D01*
X100075544Y-98891175D01*
X100063171Y-98923649D01*
X100056905Y-98938572D01*
X100044036Y-98936516D01*
X100015933Y-98925357D01*
X99989721Y-98906927D01*
X99977771Y-98872098D01*
X99981336Y-98847151D01*
X100003235Y-98796547D01*
X100038644Y-98749128D01*
X100080052Y-98716334D01*
X100097400Y-98708752D01*
X100163089Y-98696076D01*
X100232829Y-98701097D01*
G36*
X100232829Y-98701097D02*
G01*
X100292753Y-98723355D01*
X100317673Y-98740080D01*
X100342910Y-98764043D01*
X100360912Y-98794526D01*
X100372858Y-98836023D01*
X100379930Y-98893032D01*
X100383308Y-98970047D01*
X100384171Y-99071565D01*
X100384002Y-99124027D01*
X100383153Y-99195715D01*
X100381711Y-99252925D01*
X100379814Y-99290809D01*
X100377597Y-99304514D01*
X100363172Y-99299981D01*
X100334054Y-99287670D01*
X100333181Y-99287272D01*
X100318060Y-99279356D01*
X100307891Y-99268495D01*
X100301691Y-99249471D01*
X100298478Y-99217069D01*
X100297270Y-99166071D01*
X100297086Y-99091261D01*
X100296714Y-99043804D01*
X100292750Y-98954615D01*
X100283673Y-98889287D01*
X100268524Y-98844393D01*
X100246345Y-98816507D01*
X100216175Y-98802203D01*
X100211990Y-98801206D01*
X100155480Y-98800427D01*
X100111410Y-98825744D01*
X100080972Y-98876502D01*
X100075544Y-98891175D01*
X100063171Y-98923649D01*
X100056905Y-98938572D01*
X100044036Y-98936516D01*
X100015933Y-98925357D01*
X99989721Y-98906927D01*
X99977771Y-98872098D01*
X99981336Y-98847151D01*
X100003235Y-98796547D01*
X100038644Y-98749128D01*
X100080052Y-98716334D01*
X100097400Y-98708752D01*
X100163089Y-98696076D01*
X100232829Y-98701097D01*
G37*
X104181020Y-98667822D02*
X104248810Y-98699680D01*
X104304366Y-98754770D01*
X104315881Y-98772016D01*
X104325432Y-98791562D01*
X104332206Y-98816198D01*
X104336819Y-98850711D01*
X104339888Y-98899889D01*
X104342029Y-98968519D01*
X104343859Y-99061389D01*
X104348404Y-99319007D01*
X104310225Y-99304491D01*
X104275268Y-99291156D01*
X104249097Y-99278323D01*
X104232013Y-99261780D01*
X104222086Y-99236465D01*
X104217386Y-99197316D01*
X104215982Y-99139268D01*
X104215943Y-99057261D01*
X104215744Y-98991895D01*
X104214559Y-98929173D01*
X104211729Y-98886334D01*
X104206609Y-98858220D01*
X104198553Y-98839675D01*
X104186914Y-98825543D01*
X104158303Y-98805600D01*
X104110239Y-98798083D01*
X104062688Y-98817079D01*
X104059550Y-98819511D01*
X104049769Y-98830748D01*
X104042553Y-98848770D01*
X104037299Y-98878026D01*
X104033402Y-98922962D01*
X104030256Y-98988028D01*
X104027257Y-99077670D01*
X104020000Y-99317697D01*
X103958314Y-99290044D01*
X103896629Y-99262391D01*
X103896629Y-99043246D01*
X103896884Y-98983711D01*
X103899086Y-98900892D01*
X103904661Y-98839227D01*
X103914941Y-98793748D01*
X103931258Y-98759484D01*
X103954943Y-98731466D01*
X103987328Y-98704723D01*
X104033907Y-98677780D01*
X104107287Y-98660191D01*
X104181020Y-98667822D01*
G36*
X104181020Y-98667822D02*
G01*
X104248810Y-98699680D01*
X104304366Y-98754770D01*
X104315881Y-98772016D01*
X104325432Y-98791562D01*
X104332206Y-98816198D01*
X104336819Y-98850711D01*
X104339888Y-98899889D01*
X104342029Y-98968519D01*
X104343859Y-99061389D01*
X104348404Y-99319007D01*
X104310225Y-99304491D01*
X104275268Y-99291156D01*
X104249097Y-99278323D01*
X104232013Y-99261780D01*
X104222086Y-99236465D01*
X104217386Y-99197316D01*
X104215982Y-99139268D01*
X104215943Y-99057261D01*
X104215744Y-98991895D01*
X104214559Y-98929173D01*
X104211729Y-98886334D01*
X104206609Y-98858220D01*
X104198553Y-98839675D01*
X104186914Y-98825543D01*
X104158303Y-98805600D01*
X104110239Y-98798083D01*
X104062688Y-98817079D01*
X104059550Y-98819511D01*
X104049769Y-98830748D01*
X104042553Y-98848770D01*
X104037299Y-98878026D01*
X104033402Y-98922962D01*
X104030256Y-98988028D01*
X104027257Y-99077670D01*
X104020000Y-99317697D01*
X103958314Y-99290044D01*
X103896629Y-99262391D01*
X103896629Y-99043246D01*
X103896884Y-98983711D01*
X103899086Y-98900892D01*
X103904661Y-98839227D01*
X103914941Y-98793748D01*
X103931258Y-98759484D01*
X103954943Y-98731466D01*
X103987328Y-98704723D01*
X104033907Y-98677780D01*
X104107287Y-98660191D01*
X104181020Y-98667822D01*
G37*
X102357691Y-98716467D02*
X102362273Y-98719003D01*
X102399704Y-98748057D01*
X102433170Y-98785410D01*
X102439007Y-98793852D01*
X102450165Y-98813553D01*
X102458136Y-98836935D01*
X102463618Y-98869067D01*
X102467307Y-98915019D01*
X102469899Y-98979859D01*
X102472092Y-99068657D01*
X102472402Y-99083669D01*
X102473400Y-99180999D01*
X102471994Y-99249934D01*
X102468164Y-99290948D01*
X102461889Y-99304514D01*
X102442898Y-99300452D01*
X102410638Y-99288144D01*
X102403041Y-99284545D01*
X102391176Y-99276398D01*
X102382994Y-99263004D01*
X102377643Y-99239608D01*
X102374269Y-99201455D01*
X102372019Y-99143790D01*
X102370040Y-99061857D01*
X102369498Y-99037907D01*
X102367403Y-98962266D01*
X102364683Y-98909328D01*
X102360515Y-98874075D01*
X102354079Y-98851487D01*
X102344550Y-98836544D01*
X102331106Y-98824227D01*
X102291305Y-98802634D01*
X102242341Y-98798476D01*
X102198529Y-98814999D01*
X102167008Y-98849210D01*
X102154914Y-98898114D01*
X102154578Y-98911407D01*
X102147972Y-98935472D01*
X102128470Y-98939144D01*
X102090283Y-98924813D01*
X102081438Y-98920217D01*
X102057534Y-98893186D01*
X102057061Y-98852994D01*
X102079836Y-98797409D01*
X102100727Y-98767117D01*
X102154142Y-98724084D01*
X102220074Y-98699755D01*
X102290574Y-98696443D01*
X102357691Y-98716467D01*
G36*
X102357691Y-98716467D02*
G01*
X102362273Y-98719003D01*
X102399704Y-98748057D01*
X102433170Y-98785410D01*
X102439007Y-98793852D01*
X102450165Y-98813553D01*
X102458136Y-98836935D01*
X102463618Y-98869067D01*
X102467307Y-98915019D01*
X102469899Y-98979859D01*
X102472092Y-99068657D01*
X102472402Y-99083669D01*
X102473400Y-99180999D01*
X102471994Y-99249934D01*
X102468164Y-99290948D01*
X102461889Y-99304514D01*
X102442898Y-99300452D01*
X102410638Y-99288144D01*
X102403041Y-99284545D01*
X102391176Y-99276398D01*
X102382994Y-99263004D01*
X102377643Y-99239608D01*
X102374269Y-99201455D01*
X102372019Y-99143790D01*
X102370040Y-99061857D01*
X102369498Y-99037907D01*
X102367403Y-98962266D01*
X102364683Y-98909328D01*
X102360515Y-98874075D01*
X102354079Y-98851487D01*
X102344550Y-98836544D01*
X102331106Y-98824227D01*
X102291305Y-98802634D01*
X102242341Y-98798476D01*
X102198529Y-98814999D01*
X102167008Y-98849210D01*
X102154914Y-98898114D01*
X102154578Y-98911407D01*
X102147972Y-98935472D01*
X102128470Y-98939144D01*
X102090283Y-98924813D01*
X102081438Y-98920217D01*
X102057534Y-98893186D01*
X102057061Y-98852994D01*
X102079836Y-98797409D01*
X102100727Y-98767117D01*
X102154142Y-98724084D01*
X102220074Y-98699755D01*
X102290574Y-98696443D01*
X102357691Y-98716467D01*
G37*
X103428543Y-98499444D02*
X103475714Y-98519342D01*
X103475714Y-98916509D01*
X103475519Y-99019498D01*
X103474998Y-99112141D01*
X103474199Y-99190700D01*
X103473172Y-99251439D01*
X103471963Y-99290623D01*
X103470623Y-99304514D01*
X103470099Y-99304468D01*
X103452287Y-99299420D01*
X103419823Y-99288580D01*
X103374114Y-99272646D01*
X103374114Y-99068173D01*
X103373824Y-98987832D01*
X103372474Y-98929562D01*
X103369369Y-98889909D01*
X103363812Y-98863618D01*
X103355107Y-98845436D01*
X103342556Y-98830107D01*
X103333999Y-98821955D01*
X103287728Y-98799375D01*
X103236728Y-98801375D01*
X103189993Y-98828073D01*
X103183189Y-98834698D01*
X103172293Y-98848456D01*
X103164836Y-98866642D01*
X103160169Y-98894177D01*
X103157642Y-98935981D01*
X103156602Y-98996973D01*
X103156400Y-99082073D01*
X103156303Y-99125234D01*
X103155674Y-99196224D01*
X103154556Y-99253076D01*
X103153063Y-99290828D01*
X103151309Y-99304514D01*
X103150785Y-99304468D01*
X103132973Y-99299420D01*
X103100509Y-99288580D01*
X103054800Y-99272646D01*
X103054823Y-99067237D01*
X103054857Y-99048951D01*
X103056778Y-98953626D01*
X103062678Y-98881543D01*
X103074001Y-98827813D01*
X103092187Y-98787549D01*
X103118679Y-98755861D01*
X103154918Y-98727861D01*
X103190263Y-98710333D01*
X103246773Y-98696785D01*
X103302356Y-98696015D01*
X103345086Y-98709195D01*
X103348298Y-98711015D01*
X103358205Y-98710820D01*
X103364975Y-98695572D01*
X103369861Y-98660613D01*
X103374114Y-98601289D01*
X103381371Y-98479547D01*
X103428543Y-98499444D01*
G36*
X103428543Y-98499444D02*
G01*
X103475714Y-98519342D01*
X103475714Y-98916509D01*
X103475519Y-99019498D01*
X103474998Y-99112141D01*
X103474199Y-99190700D01*
X103473172Y-99251439D01*
X103471963Y-99290623D01*
X103470623Y-99304514D01*
X103470099Y-99304468D01*
X103452287Y-99299420D01*
X103419823Y-99288580D01*
X103374114Y-99272646D01*
X103374114Y-99068173D01*
X103373824Y-98987832D01*
X103372474Y-98929562D01*
X103369369Y-98889909D01*
X103363812Y-98863618D01*
X103355107Y-98845436D01*
X103342556Y-98830107D01*
X103333999Y-98821955D01*
X103287728Y-98799375D01*
X103236728Y-98801375D01*
X103189993Y-98828073D01*
X103183189Y-98834698D01*
X103172293Y-98848456D01*
X103164836Y-98866642D01*
X103160169Y-98894177D01*
X103157642Y-98935981D01*
X103156602Y-98996973D01*
X103156400Y-99082073D01*
X103156303Y-99125234D01*
X103155674Y-99196224D01*
X103154556Y-99253076D01*
X103153063Y-99290828D01*
X103151309Y-99304514D01*
X103150785Y-99304468D01*
X103132973Y-99299420D01*
X103100509Y-99288580D01*
X103054800Y-99272646D01*
X103054823Y-99067237D01*
X103054857Y-99048951D01*
X103056778Y-98953626D01*
X103062678Y-98881543D01*
X103074001Y-98827813D01*
X103092187Y-98787549D01*
X103118679Y-98755861D01*
X103154918Y-98727861D01*
X103190263Y-98710333D01*
X103246773Y-98696785D01*
X103302356Y-98696015D01*
X103345086Y-98709195D01*
X103348298Y-98711015D01*
X103358205Y-98710820D01*
X103364975Y-98695572D01*
X103369861Y-98660613D01*
X103374114Y-98601289D01*
X103381371Y-98479547D01*
X103428543Y-98499444D01*
G37*
X101403941Y-98699282D02*
X101435774Y-98711758D01*
X101472743Y-98728602D01*
X101472743Y-99215196D01*
X101426812Y-99261127D01*
X101416320Y-99271427D01*
X101387255Y-99294320D01*
X101357943Y-99301735D01*
X101314326Y-99298321D01*
X101296568Y-99296114D01*
X101250767Y-99291445D01*
X101218743Y-99289585D01*
X101209244Y-99289869D01*
X101170274Y-99292948D01*
X101123160Y-99298321D01*
X101108085Y-99300168D01*
X101070110Y-99300893D01*
X101042325Y-99289429D01*
X101010674Y-99261127D01*
X100964743Y-99215196D01*
X100964743Y-98955055D01*
X100965101Y-98878180D01*
X100966216Y-98804886D01*
X100967952Y-98746850D01*
X100970167Y-98708663D01*
X100972721Y-98694914D01*
X100973256Y-98694951D01*
X100991808Y-98701793D01*
X101023153Y-98716868D01*
X101065608Y-98738822D01*
X101069604Y-98967240D01*
X101073600Y-99195657D01*
X101160686Y-99195657D01*
X101164657Y-98945286D01*
X101165916Y-98877227D01*
X101167718Y-98804482D01*
X101169671Y-98746730D01*
X101171612Y-98708648D01*
X101173377Y-98694914D01*
X101173885Y-98694962D01*
X101191482Y-98700015D01*
X101223834Y-98710849D01*
X101269543Y-98726783D01*
X101269765Y-98946706D01*
X101269988Y-98984909D01*
X101271531Y-99059146D01*
X101274292Y-99121145D01*
X101277977Y-99165308D01*
X101282292Y-99186041D01*
X101297732Y-99197131D01*
X101329241Y-99200556D01*
X101363886Y-99195657D01*
X101367857Y-98945286D01*
X101369278Y-98881663D01*
X101372225Y-98806356D01*
X101376079Y-98747286D01*
X101380542Y-98708718D01*
X101385317Y-98694914D01*
X101403941Y-98699282D01*
G36*
X101403941Y-98699282D02*
G01*
X101435774Y-98711758D01*
X101472743Y-98728602D01*
X101472743Y-99215196D01*
X101426812Y-99261127D01*
X101416320Y-99271427D01*
X101387255Y-99294320D01*
X101357943Y-99301735D01*
X101314326Y-99298321D01*
X101296568Y-99296114D01*
X101250767Y-99291445D01*
X101218743Y-99289585D01*
X101209244Y-99289869D01*
X101170274Y-99292948D01*
X101123160Y-99298321D01*
X101108085Y-99300168D01*
X101070110Y-99300893D01*
X101042325Y-99289429D01*
X101010674Y-99261127D01*
X100964743Y-99215196D01*
X100964743Y-98955055D01*
X100965101Y-98878180D01*
X100966216Y-98804886D01*
X100967952Y-98746850D01*
X100970167Y-98708663D01*
X100972721Y-98694914D01*
X100973256Y-98694951D01*
X100991808Y-98701793D01*
X101023153Y-98716868D01*
X101065608Y-98738822D01*
X101069604Y-98967240D01*
X101073600Y-99195657D01*
X101160686Y-99195657D01*
X101164657Y-98945286D01*
X101165916Y-98877227D01*
X101167718Y-98804482D01*
X101169671Y-98746730D01*
X101171612Y-98708648D01*
X101173377Y-98694914D01*
X101173885Y-98694962D01*
X101191482Y-98700015D01*
X101223834Y-98710849D01*
X101269543Y-98726783D01*
X101269765Y-98946706D01*
X101269988Y-98984909D01*
X101271531Y-99059146D01*
X101274292Y-99121145D01*
X101277977Y-99165308D01*
X101282292Y-99186041D01*
X101297732Y-99197131D01*
X101329241Y-99200556D01*
X101363886Y-99195657D01*
X101367857Y-98945286D01*
X101369278Y-98881663D01*
X101372225Y-98806356D01*
X101376079Y-98747286D01*
X101380542Y-98708718D01*
X101385317Y-98694914D01*
X101403941Y-98699282D01*
G37*
X106015714Y-98985200D02*
X106015701Y-99000935D01*
X106014914Y-99071119D01*
X106012210Y-99120022D01*
X106006606Y-99154178D01*
X105997119Y-99180124D01*
X105982768Y-99204397D01*
X105979237Y-99209433D01*
X105941878Y-99249143D01*
X105899311Y-99279092D01*
X105877452Y-99288810D01*
X105798908Y-99305020D01*
X105721231Y-99294535D01*
X105649645Y-99258707D01*
X105589374Y-99198887D01*
X105584286Y-99190873D01*
X105567730Y-99144342D01*
X105556573Y-99079552D01*
X105551160Y-99004727D01*
X105551768Y-98935513D01*
X105698248Y-98935513D01*
X105699402Y-99031399D01*
X105699866Y-99037569D01*
X105706629Y-99090478D01*
X105718671Y-99124029D01*
X105739005Y-99147016D01*
X105773097Y-99168548D01*
X105806814Y-99169680D01*
X105841543Y-99144857D01*
X105847584Y-99138325D01*
X105859417Y-99118779D01*
X105866404Y-99090386D01*
X105869727Y-99046430D01*
X105870571Y-98980192D01*
X105869125Y-98918150D01*
X105861907Y-98859042D01*
X105847006Y-98821686D01*
X105822636Y-98802152D01*
X105787008Y-98796514D01*
X105773440Y-98797635D01*
X105735430Y-98818194D01*
X105710312Y-98864299D01*
X105698248Y-98935513D01*
X105551768Y-98935513D01*
X105551833Y-98928096D01*
X105558937Y-98857882D01*
X105572815Y-98802312D01*
X105590649Y-98765301D01*
X105640855Y-98707733D01*
X105708885Y-98671962D01*
X105792158Y-98659665D01*
X105814398Y-98660331D01*
X105879891Y-98673947D01*
X105933687Y-98708249D01*
X105983057Y-98767338D01*
X105985995Y-98771722D01*
X105999287Y-98795299D01*
X106007932Y-98821949D01*
X106012904Y-98858159D01*
X106015174Y-98910413D01*
X106015678Y-98980192D01*
X106015714Y-98985200D01*
G36*
X106015714Y-98985200D02*
G01*
X106015701Y-99000935D01*
X106014914Y-99071119D01*
X106012210Y-99120022D01*
X106006606Y-99154178D01*
X105997119Y-99180124D01*
X105982768Y-99204397D01*
X105979237Y-99209433D01*
X105941878Y-99249143D01*
X105899311Y-99279092D01*
X105877452Y-99288810D01*
X105798908Y-99305020D01*
X105721231Y-99294535D01*
X105649645Y-99258707D01*
X105589374Y-99198887D01*
X105584286Y-99190873D01*
X105567730Y-99144342D01*
X105556573Y-99079552D01*
X105551160Y-99004727D01*
X105551768Y-98935513D01*
X105698248Y-98935513D01*
X105699402Y-99031399D01*
X105699866Y-99037569D01*
X105706629Y-99090478D01*
X105718671Y-99124029D01*
X105739005Y-99147016D01*
X105773097Y-99168548D01*
X105806814Y-99169680D01*
X105841543Y-99144857D01*
X105847584Y-99138325D01*
X105859417Y-99118779D01*
X105866404Y-99090386D01*
X105869727Y-99046430D01*
X105870571Y-98980192D01*
X105869125Y-98918150D01*
X105861907Y-98859042D01*
X105847006Y-98821686D01*
X105822636Y-98802152D01*
X105787008Y-98796514D01*
X105773440Y-98797635D01*
X105735430Y-98818194D01*
X105710312Y-98864299D01*
X105698248Y-98935513D01*
X105551768Y-98935513D01*
X105551833Y-98928096D01*
X105558937Y-98857882D01*
X105572815Y-98802312D01*
X105590649Y-98765301D01*
X105640855Y-98707733D01*
X105708885Y-98671962D01*
X105792158Y-98659665D01*
X105814398Y-98660331D01*
X105879891Y-98673947D01*
X105933687Y-98708249D01*
X105983057Y-98767338D01*
X105985995Y-98771722D01*
X105999287Y-98795299D01*
X106007932Y-98821949D01*
X106012904Y-98858159D01*
X106015174Y-98910413D01*
X106015678Y-98980192D01*
X106015714Y-98985200D01*
G37*
X99890590Y-99002622D02*
X99890307Y-99041305D01*
X99886762Y-99117521D01*
X99877483Y-99173294D01*
X99860375Y-99214613D01*
X99833344Y-99247467D01*
X99794292Y-99277846D01*
X99769445Y-99291660D01*
X99729615Y-99300965D01*
X99673665Y-99300230D01*
X99642385Y-99297283D01*
X99604653Y-99288283D01*
X99574494Y-99268720D01*
X99539408Y-99232267D01*
X99534720Y-99226943D01*
X99503177Y-99185969D01*
X99488128Y-99150283D01*
X99484286Y-99107966D01*
X99484286Y-99045779D01*
X99527742Y-99062182D01*
X99559424Y-99081356D01*
X99586962Y-99126347D01*
X99592711Y-99140752D01*
X99624855Y-99181546D01*
X99668611Y-99202081D01*
X99716254Y-99200235D01*
X99760057Y-99173886D01*
X99775111Y-99157455D01*
X99788763Y-99132667D01*
X99784493Y-99110144D01*
X99759916Y-99086964D01*
X99712651Y-99060202D01*
X99640314Y-99026934D01*
X99491543Y-98961816D01*
X99487595Y-98897308D01*
X99489079Y-98856220D01*
X99586010Y-98856220D01*
X99593368Y-98881657D01*
X99626848Y-98908814D01*
X99687614Y-98939714D01*
X99697669Y-98944190D01*
X99745751Y-98965017D01*
X99781726Y-98979665D01*
X99798444Y-98985200D01*
X99800977Y-98981126D01*
X99801993Y-98956247D01*
X99798369Y-98916257D01*
X99789242Y-98877152D01*
X99760773Y-98827884D01*
X99719678Y-98800122D01*
X99670590Y-98796364D01*
X99618144Y-98819109D01*
X99603609Y-98830481D01*
X99586010Y-98856220D01*
X99489079Y-98856220D01*
X99489338Y-98849064D01*
X99511281Y-98788096D01*
X99538979Y-98754497D01*
X99596405Y-98716966D01*
X99664527Y-98698006D01*
X99734947Y-98699507D01*
X99799267Y-98723355D01*
X99813426Y-98732513D01*
X99845904Y-98760849D01*
X99868116Y-98796695D01*
X99881804Y-98845384D01*
X99888715Y-98912249D01*
X99889628Y-98956247D01*
X99890590Y-99002622D01*
G36*
X99890590Y-99002622D02*
G01*
X99890307Y-99041305D01*
X99886762Y-99117521D01*
X99877483Y-99173294D01*
X99860375Y-99214613D01*
X99833344Y-99247467D01*
X99794292Y-99277846D01*
X99769445Y-99291660D01*
X99729615Y-99300965D01*
X99673665Y-99300230D01*
X99642385Y-99297283D01*
X99604653Y-99288283D01*
X99574494Y-99268720D01*
X99539408Y-99232267D01*
X99534720Y-99226943D01*
X99503177Y-99185969D01*
X99488128Y-99150283D01*
X99484286Y-99107966D01*
X99484286Y-99045779D01*
X99527742Y-99062182D01*
X99559424Y-99081356D01*
X99586962Y-99126347D01*
X99592711Y-99140752D01*
X99624855Y-99181546D01*
X99668611Y-99202081D01*
X99716254Y-99200235D01*
X99760057Y-99173886D01*
X99775111Y-99157455D01*
X99788763Y-99132667D01*
X99784493Y-99110144D01*
X99759916Y-99086964D01*
X99712651Y-99060202D01*
X99640314Y-99026934D01*
X99491543Y-98961816D01*
X99487595Y-98897308D01*
X99489079Y-98856220D01*
X99586010Y-98856220D01*
X99593368Y-98881657D01*
X99626848Y-98908814D01*
X99687614Y-98939714D01*
X99697669Y-98944190D01*
X99745751Y-98965017D01*
X99781726Y-98979665D01*
X99798444Y-98985200D01*
X99800977Y-98981126D01*
X99801993Y-98956247D01*
X99798369Y-98916257D01*
X99789242Y-98877152D01*
X99760773Y-98827884D01*
X99719678Y-98800122D01*
X99670590Y-98796364D01*
X99618144Y-98819109D01*
X99603609Y-98830481D01*
X99586010Y-98856220D01*
X99489079Y-98856220D01*
X99489338Y-98849064D01*
X99511281Y-98788096D01*
X99538979Y-98754497D01*
X99596405Y-98716966D01*
X99664527Y-98698006D01*
X99734947Y-98699507D01*
X99799267Y-98723355D01*
X99813426Y-98732513D01*
X99845904Y-98760849D01*
X99868116Y-98796695D01*
X99881804Y-98845384D01*
X99888715Y-98912249D01*
X99889628Y-98956247D01*
X99890590Y-99002622D01*
G37*
X101980698Y-98999714D02*
X101979537Y-99056313D01*
X101971345Y-99133462D01*
X101953519Y-99191276D01*
X101923975Y-99235422D01*
X101880625Y-99271568D01*
X101839332Y-99292463D01*
X101769987Y-99304090D01*
X101700736Y-99291377D01*
X101638145Y-99255945D01*
X101588779Y-99199418D01*
X101582818Y-99188995D01*
X101574945Y-99170733D01*
X101569106Y-99147429D01*
X101564999Y-99115085D01*
X101562325Y-99069704D01*
X101560781Y-99007287D01*
X101560734Y-99001748D01*
X101661429Y-99001748D01*
X101661772Y-99054577D01*
X101663942Y-99102362D01*
X101669307Y-99133209D01*
X101679217Y-99153935D01*
X101695021Y-99171356D01*
X101698724Y-99174705D01*
X101746299Y-99199419D01*
X101796635Y-99196890D01*
X101843517Y-99167288D01*
X101857477Y-99151953D01*
X101869160Y-99131622D01*
X101875686Y-99103514D01*
X101878524Y-99060550D01*
X101879143Y-98995647D01*
X101878837Y-98946122D01*
X101876722Y-98897782D01*
X101871390Y-98866587D01*
X101861460Y-98845647D01*
X101845550Y-98828073D01*
X101836204Y-98820159D01*
X101787776Y-98798843D01*
X101737040Y-98802198D01*
X101692987Y-98830107D01*
X101683504Y-98841173D01*
X101671939Y-98862009D01*
X101665252Y-98891106D01*
X101662173Y-98935381D01*
X101661429Y-99001748D01*
X101560734Y-99001748D01*
X101560067Y-98923837D01*
X101559883Y-98815358D01*
X101559829Y-98478601D01*
X101607000Y-98498362D01*
X101619472Y-98503770D01*
X101639324Y-98515985D01*
X101650687Y-98534482D01*
X101656933Y-98566829D01*
X101661429Y-98620593D01*
X101665535Y-98668866D01*
X101670963Y-98700557D01*
X101678739Y-98712383D01*
X101690457Y-98709212D01*
X101720318Y-98698067D01*
X101773684Y-98695304D01*
X101831093Y-98705625D01*
X101880625Y-98727861D01*
X101907876Y-98748443D01*
X101942865Y-98788600D01*
X101965274Y-98840086D01*
X101977190Y-98908568D01*
X101980542Y-98995647D01*
X101980698Y-98999714D01*
G36*
X101980698Y-98999714D02*
G01*
X101979537Y-99056313D01*
X101971345Y-99133462D01*
X101953519Y-99191276D01*
X101923975Y-99235422D01*
X101880625Y-99271568D01*
X101839332Y-99292463D01*
X101769987Y-99304090D01*
X101700736Y-99291377D01*
X101638145Y-99255945D01*
X101588779Y-99199418D01*
X101582818Y-99188995D01*
X101574945Y-99170733D01*
X101569106Y-99147429D01*
X101564999Y-99115085D01*
X101562325Y-99069704D01*
X101560781Y-99007287D01*
X101560734Y-99001748D01*
X101661429Y-99001748D01*
X101661772Y-99054577D01*
X101663942Y-99102362D01*
X101669307Y-99133209D01*
X101679217Y-99153935D01*
X101695021Y-99171356D01*
X101698724Y-99174705D01*
X101746299Y-99199419D01*
X101796635Y-99196890D01*
X101843517Y-99167288D01*
X101857477Y-99151953D01*
X101869160Y-99131622D01*
X101875686Y-99103514D01*
X101878524Y-99060550D01*
X101879143Y-98995647D01*
X101878837Y-98946122D01*
X101876722Y-98897782D01*
X101871390Y-98866587D01*
X101861460Y-98845647D01*
X101845550Y-98828073D01*
X101836204Y-98820159D01*
X101787776Y-98798843D01*
X101737040Y-98802198D01*
X101692987Y-98830107D01*
X101683504Y-98841173D01*
X101671939Y-98862009D01*
X101665252Y-98891106D01*
X101662173Y-98935381D01*
X101661429Y-99001748D01*
X101560734Y-99001748D01*
X101560067Y-98923837D01*
X101559883Y-98815358D01*
X101559829Y-98478601D01*
X101607000Y-98498362D01*
X101619472Y-98503770D01*
X101639324Y-98515985D01*
X101650687Y-98534482D01*
X101656933Y-98566829D01*
X101661429Y-98620593D01*
X101665535Y-98668866D01*
X101670963Y-98700557D01*
X101678739Y-98712383D01*
X101690457Y-98709212D01*
X101720318Y-98698067D01*
X101773684Y-98695304D01*
X101831093Y-98705625D01*
X101880625Y-98727861D01*
X101907876Y-98748443D01*
X101942865Y-98788600D01*
X101965274Y-98840086D01*
X101977190Y-98908568D01*
X101980542Y-98995647D01*
X101980698Y-98999714D01*
G37*
X104912299Y-98944055D02*
X104907684Y-99054078D01*
X104905078Y-99077387D01*
X104885660Y-99160352D01*
X104850573Y-99223448D01*
X104797212Y-99271808D01*
X104794196Y-99273804D01*
X104726362Y-99302185D01*
X104655535Y-99304711D01*
X104587289Y-99283097D01*
X104527196Y-99239062D01*
X104480829Y-99174322D01*
X104480050Y-99172761D01*
X104464643Y-99132558D01*
X104453357Y-99086866D01*
X104447370Y-99043972D01*
X104447861Y-99012160D01*
X104456007Y-98999714D01*
X104463244Y-99000471D01*
X104497851Y-99014235D01*
X104537078Y-99039546D01*
X104570448Y-99068845D01*
X104587483Y-99094572D01*
X104605192Y-99129471D01*
X104641485Y-99161212D01*
X104683630Y-99173886D01*
X104699077Y-99170221D01*
X104729569Y-99151774D01*
X104756128Y-99126166D01*
X104767486Y-99102934D01*
X104767482Y-99102848D01*
X104754596Y-99092179D01*
X104720241Y-99072933D01*
X104669593Y-99047813D01*
X104607829Y-99019524D01*
X104607489Y-99019374D01*
X104540388Y-98989498D01*
X104495411Y-98967973D01*
X104468145Y-98951437D01*
X104454178Y-98936531D01*
X104449097Y-98919893D01*
X104448490Y-98898162D01*
X104452712Y-98857013D01*
X104596000Y-98857013D01*
X104610791Y-98869949D01*
X104647644Y-98889333D01*
X104648725Y-98889881D01*
X104692205Y-98910587D01*
X104731102Y-98927105D01*
X104755778Y-98934093D01*
X104765676Y-98924753D01*
X104767486Y-98892748D01*
X104759966Y-98852915D01*
X104733897Y-98816717D01*
X104696154Y-98797950D01*
X104654077Y-98799845D01*
X104615005Y-98825632D01*
X104599647Y-98843451D01*
X104596000Y-98857013D01*
X104452712Y-98857013D01*
X104453833Y-98846086D01*
X104480251Y-98775335D01*
X104524473Y-98719735D01*
X104581697Y-98681239D01*
X104647120Y-98661797D01*
X104715937Y-98663359D01*
X104783347Y-98687878D01*
X104844544Y-98737302D01*
X104878450Y-98786212D01*
X104902806Y-98856027D01*
X104906767Y-98892748D01*
X104912299Y-98944055D01*
G36*
X104912299Y-98944055D02*
G01*
X104907684Y-99054078D01*
X104905078Y-99077387D01*
X104885660Y-99160352D01*
X104850573Y-99223448D01*
X104797212Y-99271808D01*
X104794196Y-99273804D01*
X104726362Y-99302185D01*
X104655535Y-99304711D01*
X104587289Y-99283097D01*
X104527196Y-99239062D01*
X104480829Y-99174322D01*
X104480050Y-99172761D01*
X104464643Y-99132558D01*
X104453357Y-99086866D01*
X104447370Y-99043972D01*
X104447861Y-99012160D01*
X104456007Y-98999714D01*
X104463244Y-99000471D01*
X104497851Y-99014235D01*
X104537078Y-99039546D01*
X104570448Y-99068845D01*
X104587483Y-99094572D01*
X104605192Y-99129471D01*
X104641485Y-99161212D01*
X104683630Y-99173886D01*
X104699077Y-99170221D01*
X104729569Y-99151774D01*
X104756128Y-99126166D01*
X104767486Y-99102934D01*
X104767482Y-99102848D01*
X104754596Y-99092179D01*
X104720241Y-99072933D01*
X104669593Y-99047813D01*
X104607829Y-99019524D01*
X104607489Y-99019374D01*
X104540388Y-98989498D01*
X104495411Y-98967973D01*
X104468145Y-98951437D01*
X104454178Y-98936531D01*
X104449097Y-98919893D01*
X104448490Y-98898162D01*
X104452712Y-98857013D01*
X104596000Y-98857013D01*
X104610791Y-98869949D01*
X104647644Y-98889333D01*
X104648725Y-98889881D01*
X104692205Y-98910587D01*
X104731102Y-98927105D01*
X104755778Y-98934093D01*
X104765676Y-98924753D01*
X104767486Y-98892748D01*
X104759966Y-98852915D01*
X104733897Y-98816717D01*
X104696154Y-98797950D01*
X104654077Y-98799845D01*
X104615005Y-98825632D01*
X104599647Y-98843451D01*
X104596000Y-98857013D01*
X104452712Y-98857013D01*
X104453833Y-98846086D01*
X104480251Y-98775335D01*
X104524473Y-98719735D01*
X104581697Y-98681239D01*
X104647120Y-98661797D01*
X104715937Y-98663359D01*
X104783347Y-98687878D01*
X104844544Y-98737302D01*
X104878450Y-98786212D01*
X104902806Y-98856027D01*
X104906767Y-98892748D01*
X104912299Y-98944055D01*
G37*
X102839483Y-98710569D02*
X102889376Y-98739661D01*
X102911325Y-98762327D01*
X102953504Y-98830082D01*
X102967714Y-98903950D01*
X102967714Y-98954770D01*
X102920999Y-98935128D01*
X102888692Y-98915308D01*
X102863231Y-98874160D01*
X102860616Y-98865675D01*
X102832478Y-98822451D01*
X102790067Y-98799103D01*
X102741370Y-98798100D01*
X102694373Y-98821914D01*
X102687357Y-98828056D01*
X102663893Y-98854745D01*
X102660019Y-98878014D01*
X102677768Y-98900862D01*
X102719179Y-98926287D01*
X102786286Y-98957288D01*
X102790824Y-98959252D01*
X102865322Y-98993990D01*
X102916203Y-99024763D01*
X102947525Y-99055488D01*
X102963343Y-99090082D01*
X102967714Y-99132462D01*
X102961986Y-99179446D01*
X102933062Y-99239585D01*
X102882178Y-99282788D01*
X102845374Y-99295759D01*
X102793434Y-99302856D01*
X102742999Y-99301340D01*
X102706983Y-99290632D01*
X102703158Y-99287966D01*
X102692998Y-99269337D01*
X102700048Y-99236505D01*
X102712297Y-99210735D01*
X102731939Y-99200006D01*
X102769191Y-99200539D01*
X102820908Y-99197462D01*
X102854701Y-99176212D01*
X102866114Y-99136877D01*
X102866104Y-99135747D01*
X102859187Y-99112913D01*
X102835659Y-99091963D01*
X102789914Y-99067815D01*
X102727704Y-99038741D01*
X102686499Y-99022925D01*
X102662712Y-99023944D01*
X102651597Y-99044837D01*
X102648408Y-99088641D01*
X102648400Y-99158393D01*
X102648044Y-99201452D01*
X102646413Y-99254626D01*
X102643761Y-99291022D01*
X102640422Y-99304514D01*
X102639530Y-99304423D01*
X102620237Y-99297110D01*
X102588284Y-99281678D01*
X102544124Y-99258842D01*
X102549371Y-99053078D01*
X102549736Y-99039432D01*
X102553904Y-98943651D01*
X102561268Y-98871462D01*
X102573330Y-98818058D01*
X102591593Y-98778633D01*
X102617560Y-98748380D01*
X102652733Y-98722493D01*
X102653384Y-98722087D01*
X102710256Y-98700968D01*
X102776033Y-98697400D01*
X102839483Y-98710569D01*
G36*
X102839483Y-98710569D02*
G01*
X102889376Y-98739661D01*
X102911325Y-98762327D01*
X102953504Y-98830082D01*
X102967714Y-98903950D01*
X102967714Y-98954770D01*
X102920999Y-98935128D01*
X102888692Y-98915308D01*
X102863231Y-98874160D01*
X102860616Y-98865675D01*
X102832478Y-98822451D01*
X102790067Y-98799103D01*
X102741370Y-98798100D01*
X102694373Y-98821914D01*
X102687357Y-98828056D01*
X102663893Y-98854745D01*
X102660019Y-98878014D01*
X102677768Y-98900862D01*
X102719179Y-98926287D01*
X102786286Y-98957288D01*
X102790824Y-98959252D01*
X102865322Y-98993990D01*
X102916203Y-99024763D01*
X102947525Y-99055488D01*
X102963343Y-99090082D01*
X102967714Y-99132462D01*
X102961986Y-99179446D01*
X102933062Y-99239585D01*
X102882178Y-99282788D01*
X102845374Y-99295759D01*
X102793434Y-99302856D01*
X102742999Y-99301340D01*
X102706983Y-99290632D01*
X102703158Y-99287966D01*
X102692998Y-99269337D01*
X102700048Y-99236505D01*
X102712297Y-99210735D01*
X102731939Y-99200006D01*
X102769191Y-99200539D01*
X102820908Y-99197462D01*
X102854701Y-99176212D01*
X102866114Y-99136877D01*
X102866104Y-99135747D01*
X102859187Y-99112913D01*
X102835659Y-99091963D01*
X102789914Y-99067815D01*
X102727704Y-99038741D01*
X102686499Y-99022925D01*
X102662712Y-99023944D01*
X102651597Y-99044837D01*
X102648408Y-99088641D01*
X102648400Y-99158393D01*
X102648044Y-99201452D01*
X102646413Y-99254626D01*
X102643761Y-99291022D01*
X102640422Y-99304514D01*
X102639530Y-99304423D01*
X102620237Y-99297110D01*
X102588284Y-99281678D01*
X102544124Y-99258842D01*
X102549371Y-99053078D01*
X102549736Y-99039432D01*
X102553904Y-98943651D01*
X102561268Y-98871462D01*
X102573330Y-98818058D01*
X102591593Y-98778633D01*
X102617560Y-98748380D01*
X102652733Y-98722493D01*
X102653384Y-98722087D01*
X102710256Y-98700968D01*
X102776033Y-98697400D01*
X102839483Y-98710569D01*
G37*
X105459815Y-99051524D02*
X105461252Y-99163000D01*
X105461651Y-99195339D01*
X105462929Y-99303455D01*
X105463185Y-99386186D01*
X105461634Y-99446426D01*
X105457490Y-99487073D01*
X105449964Y-99511023D01*
X105438271Y-99521171D01*
X105421624Y-99520414D01*
X105399236Y-99511648D01*
X105370321Y-99497769D01*
X105364142Y-99494808D01*
X105338413Y-99480311D01*
X105324976Y-99463065D01*
X105319834Y-99434308D01*
X105318990Y-99385283D01*
X105318952Y-99297257D01*
X105228276Y-99297257D01*
X105172498Y-99294815D01*
X105128640Y-99284908D01*
X105092218Y-99264886D01*
X105089503Y-99262929D01*
X105052546Y-99229869D01*
X105026826Y-99189931D01*
X105010606Y-99137657D01*
X105002148Y-99067588D01*
X105000083Y-98988430D01*
X105144857Y-98988430D01*
X105144882Y-99001697D01*
X105146261Y-99061584D01*
X105150687Y-99100732D01*
X105159461Y-99126153D01*
X105173886Y-99144857D01*
X105174784Y-99145750D01*
X105210237Y-99169952D01*
X105244596Y-99167567D01*
X105283403Y-99138260D01*
X105292895Y-99128244D01*
X105306876Y-99107708D01*
X105314760Y-99080997D01*
X105318245Y-99040499D01*
X105319029Y-98978603D01*
X105318350Y-98941130D01*
X105310983Y-98872980D01*
X105294168Y-98828330D01*
X105266234Y-98803926D01*
X105225509Y-98796514D01*
X105208350Y-98798094D01*
X105178660Y-98813766D01*
X105159031Y-98848691D01*
X105148188Y-98905901D01*
X105144857Y-98988430D01*
X105000083Y-98988430D01*
X104999714Y-98974267D01*
X105000253Y-98906169D01*
X105002707Y-98854587D01*
X105008158Y-98818816D01*
X105017686Y-98792015D01*
X105032371Y-98767338D01*
X105045852Y-98748480D01*
X105094799Y-98697568D01*
X105150256Y-98669918D01*
X105219928Y-98661165D01*
X105299664Y-98669890D01*
X105368595Y-98701185D01*
X105423113Y-98756381D01*
X105427223Y-98762224D01*
X105436808Y-98777753D01*
X105444151Y-98795498D01*
X105449612Y-98819290D01*
X105453550Y-98852958D01*
X105456323Y-98900333D01*
X105458292Y-98965245D01*
X105458528Y-98978603D01*
X105459815Y-99051524D01*
G36*
X105459815Y-99051524D02*
G01*
X105461252Y-99163000D01*
X105461651Y-99195339D01*
X105462929Y-99303455D01*
X105463185Y-99386186D01*
X105461634Y-99446426D01*
X105457490Y-99487073D01*
X105449964Y-99511023D01*
X105438271Y-99521171D01*
X105421624Y-99520414D01*
X105399236Y-99511648D01*
X105370321Y-99497769D01*
X105364142Y-99494808D01*
X105338413Y-99480311D01*
X105324976Y-99463065D01*
X105319834Y-99434308D01*
X105318990Y-99385283D01*
X105318952Y-99297257D01*
X105228276Y-99297257D01*
X105172498Y-99294815D01*
X105128640Y-99284908D01*
X105092218Y-99264886D01*
X105089503Y-99262929D01*
X105052546Y-99229869D01*
X105026826Y-99189931D01*
X105010606Y-99137657D01*
X105002148Y-99067588D01*
X105000083Y-98988430D01*
X105144857Y-98988430D01*
X105144882Y-99001697D01*
X105146261Y-99061584D01*
X105150687Y-99100732D01*
X105159461Y-99126153D01*
X105173886Y-99144857D01*
X105174784Y-99145750D01*
X105210237Y-99169952D01*
X105244596Y-99167567D01*
X105283403Y-99138260D01*
X105292895Y-99128244D01*
X105306876Y-99107708D01*
X105314760Y-99080997D01*
X105318245Y-99040499D01*
X105319029Y-98978603D01*
X105318350Y-98941130D01*
X105310983Y-98872980D01*
X105294168Y-98828330D01*
X105266234Y-98803926D01*
X105225509Y-98796514D01*
X105208350Y-98798094D01*
X105178660Y-98813766D01*
X105159031Y-98848691D01*
X105148188Y-98905901D01*
X105144857Y-98988430D01*
X105000083Y-98988430D01*
X104999714Y-98974267D01*
X105000253Y-98906169D01*
X105002707Y-98854587D01*
X105008158Y-98818816D01*
X105017686Y-98792015D01*
X105032371Y-98767338D01*
X105045852Y-98748480D01*
X105094799Y-98697568D01*
X105150256Y-98669918D01*
X105219928Y-98661165D01*
X105299664Y-98669890D01*
X105368595Y-98701185D01*
X105423113Y-98756381D01*
X105427223Y-98762224D01*
X105436808Y-98777753D01*
X105444151Y-98795498D01*
X105449612Y-98819290D01*
X105453550Y-98852958D01*
X105456323Y-98900333D01*
X105458292Y-98965245D01*
X105458528Y-98978603D01*
X105459815Y-99051524D01*
G37*
X100717495Y-98696220D02*
X100748599Y-98704121D01*
X100777559Y-98723817D01*
X100814831Y-98760484D01*
X100838801Y-98786378D01*
X100863770Y-98819997D01*
X100875031Y-98851506D01*
X100877657Y-98891485D01*
X100877657Y-98956917D01*
X100833035Y-98933842D01*
X100797673Y-98905724D01*
X100773451Y-98867848D01*
X100769291Y-98857551D01*
X100737594Y-98817637D01*
X100693554Y-98797624D01*
X100645531Y-98799572D01*
X100601886Y-98825543D01*
X100583420Y-98846635D01*
X100572663Y-98873619D01*
X100584178Y-98897634D01*
X100619981Y-98921791D01*
X100682090Y-98949199D01*
X100691515Y-98952985D01*
X100748058Y-98977759D01*
X100796580Y-99002189D01*
X100827451Y-99021486D01*
X100858371Y-99055953D01*
X100878927Y-99110957D01*
X100876744Y-99169983D01*
X100852424Y-99225845D01*
X100806568Y-99271355D01*
X100769438Y-99290727D01*
X100697711Y-99304292D01*
X100657852Y-99302462D01*
X100620953Y-99292568D01*
X100606797Y-99271806D01*
X100612091Y-99237613D01*
X100613631Y-99233092D01*
X100625842Y-99209116D01*
X100646174Y-99200042D01*
X100684908Y-99200649D01*
X100712257Y-99201474D01*
X100744257Y-99194392D01*
X100766182Y-99173219D01*
X100778670Y-99147152D01*
X100780062Y-99119845D01*
X100779998Y-99119685D01*
X100763807Y-99104930D01*
X100729155Y-99083457D01*
X100684321Y-99059458D01*
X100637582Y-99037125D01*
X100597217Y-99020652D01*
X100571504Y-99014229D01*
X100567679Y-99020518D01*
X100562864Y-99050115D01*
X100559566Y-99098447D01*
X100558343Y-99159372D01*
X100558058Y-99201542D01*
X100556718Y-99254653D01*
X100554528Y-99291025D01*
X100551769Y-99304514D01*
X100537344Y-99299981D01*
X100508226Y-99287670D01*
X100471257Y-99270826D01*
X100471257Y-99054721D01*
X100471493Y-98999327D01*
X100473729Y-98915207D01*
X100479423Y-98852800D01*
X100489903Y-98807358D01*
X100506497Y-98774133D01*
X100530531Y-98748378D01*
X100563333Y-98725344D01*
X100605124Y-98706335D01*
X100682287Y-98694914D01*
X100717495Y-98696220D01*
G36*
X100717495Y-98696220D02*
G01*
X100748599Y-98704121D01*
X100777559Y-98723817D01*
X100814831Y-98760484D01*
X100838801Y-98786378D01*
X100863770Y-98819997D01*
X100875031Y-98851506D01*
X100877657Y-98891485D01*
X100877657Y-98956917D01*
X100833035Y-98933842D01*
X100797673Y-98905724D01*
X100773451Y-98867848D01*
X100769291Y-98857551D01*
X100737594Y-98817637D01*
X100693554Y-98797624D01*
X100645531Y-98799572D01*
X100601886Y-98825543D01*
X100583420Y-98846635D01*
X100572663Y-98873619D01*
X100584178Y-98897634D01*
X100619981Y-98921791D01*
X100682090Y-98949199D01*
X100691515Y-98952985D01*
X100748058Y-98977759D01*
X100796580Y-99002189D01*
X100827451Y-99021486D01*
X100858371Y-99055953D01*
X100878927Y-99110957D01*
X100876744Y-99169983D01*
X100852424Y-99225845D01*
X100806568Y-99271355D01*
X100769438Y-99290727D01*
X100697711Y-99304292D01*
X100657852Y-99302462D01*
X100620953Y-99292568D01*
X100606797Y-99271806D01*
X100612091Y-99237613D01*
X100613631Y-99233092D01*
X100625842Y-99209116D01*
X100646174Y-99200042D01*
X100684908Y-99200649D01*
X100712257Y-99201474D01*
X100744257Y-99194392D01*
X100766182Y-99173219D01*
X100778670Y-99147152D01*
X100780062Y-99119845D01*
X100779998Y-99119685D01*
X100763807Y-99104930D01*
X100729155Y-99083457D01*
X100684321Y-99059458D01*
X100637582Y-99037125D01*
X100597217Y-99020652D01*
X100571504Y-99014229D01*
X100567679Y-99020518D01*
X100562864Y-99050115D01*
X100559566Y-99098447D01*
X100558343Y-99159372D01*
X100558058Y-99201542D01*
X100556718Y-99254653D01*
X100554528Y-99291025D01*
X100551769Y-99304514D01*
X100537344Y-99299981D01*
X100508226Y-99287670D01*
X100471257Y-99270826D01*
X100471257Y-99054721D01*
X100471493Y-98999327D01*
X100473729Y-98915207D01*
X100479423Y-98852800D01*
X100489903Y-98807358D01*
X100506497Y-98774133D01*
X100530531Y-98748378D01*
X100563333Y-98725344D01*
X100605124Y-98706335D01*
X100682287Y-98694914D01*
X100717495Y-98696220D01*
G37*
X102863933Y-93992371D02*
X102939856Y-93992865D01*
X102994491Y-93994135D01*
X103031500Y-93996547D01*
X103054547Y-94000467D01*
X103067296Y-94006262D01*
X103073411Y-94014299D01*
X103076556Y-94024943D01*
X103076646Y-94025325D01*
X103081814Y-94050347D01*
X103091209Y-94098681D01*
X103103867Y-94165260D01*
X103118825Y-94245014D01*
X103135119Y-94332875D01*
X103136448Y-94340064D01*
X103152691Y-94425340D01*
X103167805Y-94500242D01*
X103180808Y-94560219D01*
X103190715Y-94600717D01*
X103196544Y-94617184D01*
X103196575Y-94617210D01*
X103214943Y-94626320D01*
X103252640Y-94641457D01*
X103301543Y-94659358D01*
X103304297Y-94660330D01*
X103366817Y-94683959D01*
X103439543Y-94713595D01*
X103507294Y-94743062D01*
X103618703Y-94793626D01*
X103865399Y-94625160D01*
X103882775Y-94613311D01*
X103957202Y-94562947D01*
X104023614Y-94518612D01*
X104078039Y-94482916D01*
X104116506Y-94458471D01*
X104135042Y-94447889D01*
X104147743Y-94450315D01*
X104176579Y-94469110D01*
X104221143Y-94506330D01*
X104282670Y-94563020D01*
X104362398Y-94640227D01*
X104369532Y-94647255D01*
X104432796Y-94710222D01*
X104488990Y-94767268D01*
X104534677Y-94814817D01*
X104566414Y-94849297D01*
X104580764Y-94867131D01*
X104580810Y-94867217D01*
X104582633Y-94880795D01*
X104575910Y-94902820D01*
X104558946Y-94936304D01*
X104530044Y-94984261D01*
X104487508Y-95049704D01*
X104429644Y-95135645D01*
X104419783Y-95150151D01*
X104369913Y-95223635D01*
X104325905Y-95288687D01*
X104290380Y-95341417D01*
X104265959Y-95377936D01*
X104255264Y-95394356D01*
X104254458Y-95397834D01*
X104259518Y-95423785D01*
X104274677Y-95466159D01*
X104297463Y-95517728D01*
X104328429Y-95585170D01*
X104363004Y-95665195D01*
X104392366Y-95737629D01*
X104399645Y-95756377D01*
X104418710Y-95804246D01*
X104432715Y-95837596D01*
X104439041Y-95850114D01*
X104446025Y-95851050D01*
X104477413Y-95856461D01*
X104528787Y-95865806D01*
X104594802Y-95878069D01*
X104670113Y-95892232D01*
X104749375Y-95907280D01*
X104827243Y-95922195D01*
X104898370Y-95935961D01*
X104957412Y-95947562D01*
X104999022Y-95955980D01*
X105017857Y-95960199D01*
X105020980Y-95961389D01*
X105028591Y-95967805D01*
X105034254Y-95981465D01*
X105038251Y-96005999D01*
X105040866Y-96045038D01*
X105042384Y-96102213D01*
X105043086Y-96181154D01*
X105043257Y-96285492D01*
X105043257Y-96602799D01*
X104967057Y-96617839D01*
X104957840Y-96619642D01*
X104908891Y-96628980D01*
X104841205Y-96641669D01*
X104762478Y-96656273D01*
X104680400Y-96671355D01*
X104648078Y-96677422D01*
X104575855Y-96692181D01*
X104515666Y-96706137D01*
X104473040Y-96717952D01*
X104453510Y-96726287D01*
X104444660Y-96739905D01*
X104428548Y-96775938D01*
X104412065Y-96822572D01*
X104406263Y-96840034D01*
X104384906Y-96897358D01*
X104357359Y-96965201D01*
X104328107Y-97032355D01*
X104312463Y-97067430D01*
X104290174Y-97119822D01*
X104274857Y-97159058D01*
X104269162Y-97178563D01*
X104269478Y-97180036D01*
X104280281Y-97200729D01*
X104304638Y-97240665D01*
X104340081Y-97295972D01*
X104384136Y-97362781D01*
X104434332Y-97437220D01*
X104599501Y-97679623D01*
X104382503Y-97896983D01*
X104361516Y-97917899D01*
X104297342Y-97980505D01*
X104239990Y-98034495D01*
X104192820Y-98076826D01*
X104159192Y-98104457D01*
X104142467Y-98114343D01*
X104124303Y-98106821D01*
X104086265Y-98085227D01*
X104032726Y-98052151D01*
X103967884Y-98010191D01*
X103895940Y-97961943D01*
X103825275Y-97914291D01*
X103761526Y-97872328D01*
X103709513Y-97839165D01*
X103673279Y-97817378D01*
X103656867Y-97809543D01*
X103655905Y-97809614D01*
X103634103Y-97817338D01*
X103595440Y-97835323D01*
X103547612Y-97860013D01*
X103547110Y-97860284D01*
X103483587Y-97892099D01*
X103440060Y-97907642D01*
X103413052Y-97907685D01*
X103399090Y-97893000D01*
X103393180Y-97878544D01*
X103377229Y-97839831D01*
X103352660Y-97780316D01*
X103320779Y-97703165D01*
X103282893Y-97611541D01*
X103240310Y-97508607D01*
X103194337Y-97397526D01*
X103152667Y-97296472D01*
X103110268Y-97192780D01*
X103072756Y-97100119D01*
X103041388Y-97021642D01*
X103017425Y-96960500D01*
X103002123Y-96919843D01*
X102996743Y-96902825D01*
X103007018Y-96887219D01*
X103035563Y-96861162D01*
X103075971Y-96830887D01*
X103172979Y-96751684D01*
X103259793Y-96650475D01*
X103323322Y-96539116D01*
X103363177Y-96420893D01*
X103378965Y-96299095D01*
X103370296Y-96177010D01*
X103336778Y-96057925D01*
X103278021Y-95945129D01*
X103193632Y-95841911D01*
X103149631Y-95801713D01*
X103044211Y-95730638D01*
X102931410Y-95684301D01*
X102814525Y-95661599D01*
X102696853Y-95661428D01*
X102581690Y-95682687D01*
X102472335Y-95724270D01*
X102372083Y-95785076D01*
X102284233Y-95864001D01*
X102212080Y-95959941D01*
X102158922Y-96071795D01*
X102128057Y-96198457D01*
X102122392Y-96259507D01*
X102130185Y-96391776D01*
X102165284Y-96517266D01*
X102226649Y-96633759D01*
X102313243Y-96739039D01*
X102424029Y-96830887D01*
X102462931Y-96859930D01*
X102492104Y-96886272D01*
X102503257Y-96902800D01*
X102498810Y-96917209D01*
X102484378Y-96955815D01*
X102461173Y-97015201D01*
X102430452Y-97092215D01*
X102393474Y-97183703D01*
X102351496Y-97286516D01*
X102305778Y-97397502D01*
X102264178Y-97498072D01*
X102221222Y-97601947D01*
X102182829Y-97694819D01*
X102150305Y-97773525D01*
X102124958Y-97834899D01*
X102108095Y-97875779D01*
X102101025Y-97893000D01*
X102100943Y-97893204D01*
X102086798Y-97907745D01*
X102059659Y-97907579D01*
X102016023Y-97891927D01*
X101952388Y-97860013D01*
X101947379Y-97857326D01*
X101900125Y-97833150D01*
X101862811Y-97816037D01*
X101843133Y-97809543D01*
X101827005Y-97817218D01*
X101790959Y-97838871D01*
X101739092Y-97871928D01*
X101675445Y-97913810D01*
X101604060Y-97961943D01*
X101533724Y-98009131D01*
X101468670Y-98051267D01*
X101414820Y-98084578D01*
X101376374Y-98106469D01*
X101357534Y-98114343D01*
X101354325Y-98113343D01*
X101331954Y-98097584D01*
X101293733Y-98065033D01*
X101243021Y-98018733D01*
X101183181Y-97961726D01*
X101117571Y-97897058D01*
X100900648Y-97679772D01*
X101069601Y-97431253D01*
X101238553Y-97182733D01*
X101187183Y-97071595D01*
X101187031Y-97071266D01*
X101156183Y-97000418D01*
X101124661Y-96921523D01*
X101099266Y-96851600D01*
X101095423Y-96840322D01*
X101076047Y-96787967D01*
X101058574Y-96747283D01*
X101046388Y-96726287D01*
X101041426Y-96723322D01*
X101011634Y-96713375D01*
X100961047Y-96700505D01*
X100895194Y-96686053D01*
X100819600Y-96671355D01*
X100796957Y-96667210D01*
X100715038Y-96652116D01*
X100638600Y-96637899D01*
X100575337Y-96625995D01*
X100532943Y-96617839D01*
X100456743Y-96602799D01*
X100456743Y-96285492D01*
X100456760Y-96246476D01*
X100457082Y-96151292D01*
X100458033Y-96080255D01*
X100459896Y-96029734D01*
X100462955Y-95996098D01*
X100467494Y-95975718D01*
X100473795Y-95964962D01*
X100482143Y-95960199D01*
X100490224Y-95958270D01*
X100523172Y-95951445D01*
X100575736Y-95941022D01*
X100642569Y-95928018D01*
X100718328Y-95913449D01*
X100797665Y-95898333D01*
X100875237Y-95883685D01*
X100945698Y-95870523D01*
X101003702Y-95859863D01*
X101043904Y-95852721D01*
X101060959Y-95850114D01*
X101062112Y-95848541D01*
X101071385Y-95828119D01*
X101087432Y-95789045D01*
X101107635Y-95737629D01*
X101135672Y-95668353D01*
X101170186Y-95588290D01*
X101202538Y-95517728D01*
X101209952Y-95501889D01*
X101230755Y-95452293D01*
X101243219Y-95414038D01*
X101244863Y-95394356D01*
X101244015Y-95392962D01*
X101230548Y-95372420D01*
X101203850Y-95332516D01*
X101166539Y-95277140D01*
X101121234Y-95210177D01*
X101070552Y-95135517D01*
X101013445Y-95050692D01*
X100970607Y-94984800D01*
X100941460Y-94936478D01*
X100924317Y-94902733D01*
X100917495Y-94880572D01*
X100919306Y-94867002D01*
X100919915Y-94865984D01*
X100936297Y-94846210D01*
X100969695Y-94810175D01*
X101016671Y-94761451D01*
X101073786Y-94703612D01*
X101137603Y-94640227D01*
X101203802Y-94575905D01*
X101268648Y-94515447D01*
X101316299Y-94474655D01*
X101347990Y-94452484D01*
X101364958Y-94447889D01*
X101367175Y-94448921D01*
X101390524Y-94462837D01*
X101432912Y-94490030D01*
X101490369Y-94527889D01*
X101558923Y-94573803D01*
X101634601Y-94625160D01*
X101881298Y-94793626D01*
X101992706Y-94743062D01*
X101995943Y-94741597D01*
X102064343Y-94711965D01*
X102136907Y-94682493D01*
X102198457Y-94659358D01*
X102198729Y-94659262D01*
X102247595Y-94641367D01*
X102285212Y-94626253D01*
X102303457Y-94617184D01*
X102303752Y-94616855D01*
X102309946Y-94598282D01*
X102320139Y-94556045D01*
X102333348Y-94494696D01*
X102348590Y-94418789D01*
X102364881Y-94332875D01*
X102365449Y-94329796D01*
X102381713Y-94242128D01*
X102396608Y-94162741D01*
X102409171Y-94096701D01*
X102418438Y-94049079D01*
X102423444Y-94024943D01*
X102423764Y-94023605D01*
X102427060Y-94013273D01*
X102433738Y-94005506D01*
X102447462Y-93999940D01*
X102471895Y-93996207D01*
X102510702Y-93993942D01*
X102567546Y-93992778D01*
X102646090Y-93992348D01*
X102750000Y-93992286D01*
X102763056Y-93992286D01*
X102863933Y-93992371D01*
G36*
X102863933Y-93992371D02*
G01*
X102939856Y-93992865D01*
X102994491Y-93994135D01*
X103031500Y-93996547D01*
X103054547Y-94000467D01*
X103067296Y-94006262D01*
X103073411Y-94014299D01*
X103076556Y-94024943D01*
X103076646Y-94025325D01*
X103081814Y-94050347D01*
X103091209Y-94098681D01*
X103103867Y-94165260D01*
X103118825Y-94245014D01*
X103135119Y-94332875D01*
X103136448Y-94340064D01*
X103152691Y-94425340D01*
X103167805Y-94500242D01*
X103180808Y-94560219D01*
X103190715Y-94600717D01*
X103196544Y-94617184D01*
X103196575Y-94617210D01*
X103214943Y-94626320D01*
X103252640Y-94641457D01*
X103301543Y-94659358D01*
X103304297Y-94660330D01*
X103366817Y-94683959D01*
X103439543Y-94713595D01*
X103507294Y-94743062D01*
X103618703Y-94793626D01*
X103865399Y-94625160D01*
X103882775Y-94613311D01*
X103957202Y-94562947D01*
X104023614Y-94518612D01*
X104078039Y-94482916D01*
X104116506Y-94458471D01*
X104135042Y-94447889D01*
X104147743Y-94450315D01*
X104176579Y-94469110D01*
X104221143Y-94506330D01*
X104282670Y-94563020D01*
X104362398Y-94640227D01*
X104369532Y-94647255D01*
X104432796Y-94710222D01*
X104488990Y-94767268D01*
X104534677Y-94814817D01*
X104566414Y-94849297D01*
X104580764Y-94867131D01*
X104580810Y-94867217D01*
X104582633Y-94880795D01*
X104575910Y-94902820D01*
X104558946Y-94936304D01*
X104530044Y-94984261D01*
X104487508Y-95049704D01*
X104429644Y-95135645D01*
X104419783Y-95150151D01*
X104369913Y-95223635D01*
X104325905Y-95288687D01*
X104290380Y-95341417D01*
X104265959Y-95377936D01*
X104255264Y-95394356D01*
X104254458Y-95397834D01*
X104259518Y-95423785D01*
X104274677Y-95466159D01*
X104297463Y-95517728D01*
X104328429Y-95585170D01*
X104363004Y-95665195D01*
X104392366Y-95737629D01*
X104399645Y-95756377D01*
X104418710Y-95804246D01*
X104432715Y-95837596D01*
X104439041Y-95850114D01*
X104446025Y-95851050D01*
X104477413Y-95856461D01*
X104528787Y-95865806D01*
X104594802Y-95878069D01*
X104670113Y-95892232D01*
X104749375Y-95907280D01*
X104827243Y-95922195D01*
X104898370Y-95935961D01*
X104957412Y-95947562D01*
X104999022Y-95955980D01*
X105017857Y-95960199D01*
X105020980Y-95961389D01*
X105028591Y-95967805D01*
X105034254Y-95981465D01*
X105038251Y-96005999D01*
X105040866Y-96045038D01*
X105042384Y-96102213D01*
X105043086Y-96181154D01*
X105043257Y-96285492D01*
X105043257Y-96602799D01*
X104967057Y-96617839D01*
X104957840Y-96619642D01*
X104908891Y-96628980D01*
X104841205Y-96641669D01*
X104762478Y-96656273D01*
X104680400Y-96671355D01*
X104648078Y-96677422D01*
X104575855Y-96692181D01*
X104515666Y-96706137D01*
X104473040Y-96717952D01*
X104453510Y-96726287D01*
X104444660Y-96739905D01*
X104428548Y-96775938D01*
X104412065Y-96822572D01*
X104406263Y-96840034D01*
X104384906Y-96897358D01*
X104357359Y-96965201D01*
X104328107Y-97032355D01*
X104312463Y-97067430D01*
X104290174Y-97119822D01*
X104274857Y-97159058D01*
X104269162Y-97178563D01*
X104269478Y-97180036D01*
X104280281Y-97200729D01*
X104304638Y-97240665D01*
X104340081Y-97295972D01*
X104384136Y-97362781D01*
X104434332Y-97437220D01*
X104599501Y-97679623D01*
X104382503Y-97896983D01*
X104361516Y-97917899D01*
X104297342Y-97980505D01*
X104239990Y-98034495D01*
X104192820Y-98076826D01*
X104159192Y-98104457D01*
X104142467Y-98114343D01*
X104124303Y-98106821D01*
X104086265Y-98085227D01*
X104032726Y-98052151D01*
X103967884Y-98010191D01*
X103895940Y-97961943D01*
X103825275Y-97914291D01*
X103761526Y-97872328D01*
X103709513Y-97839165D01*
X103673279Y-97817378D01*
X103656867Y-97809543D01*
X103655905Y-97809614D01*
X103634103Y-97817338D01*
X103595440Y-97835323D01*
X103547612Y-97860013D01*
X103547110Y-97860284D01*
X103483587Y-97892099D01*
X103440060Y-97907642D01*
X103413052Y-97907685D01*
X103399090Y-97893000D01*
X103393180Y-97878544D01*
X103377229Y-97839831D01*
X103352660Y-97780316D01*
X103320779Y-97703165D01*
X103282893Y-97611541D01*
X103240310Y-97508607D01*
X103194337Y-97397526D01*
X103152667Y-97296472D01*
X103110268Y-97192780D01*
X103072756Y-97100119D01*
X103041388Y-97021642D01*
X103017425Y-96960500D01*
X103002123Y-96919843D01*
X102996743Y-96902825D01*
X103007018Y-96887219D01*
X103035563Y-96861162D01*
X103075971Y-96830887D01*
X103172979Y-96751684D01*
X103259793Y-96650475D01*
X103323322Y-96539116D01*
X103363177Y-96420893D01*
X103378965Y-96299095D01*
X103370296Y-96177010D01*
X103336778Y-96057925D01*
X103278021Y-95945129D01*
X103193632Y-95841911D01*
X103149631Y-95801713D01*
X103044211Y-95730638D01*
X102931410Y-95684301D01*
X102814525Y-95661599D01*
X102696853Y-95661428D01*
X102581690Y-95682687D01*
X102472335Y-95724270D01*
X102372083Y-95785076D01*
X102284233Y-95864001D01*
X102212080Y-95959941D01*
X102158922Y-96071795D01*
X102128057Y-96198457D01*
X102122392Y-96259507D01*
X102130185Y-96391776D01*
X102165284Y-96517266D01*
X102226649Y-96633759D01*
X102313243Y-96739039D01*
X102424029Y-96830887D01*
X102462931Y-96859930D01*
X102492104Y-96886272D01*
X102503257Y-96902800D01*
X102498810Y-96917209D01*
X102484378Y-96955815D01*
X102461173Y-97015201D01*
X102430452Y-97092215D01*
X102393474Y-97183703D01*
X102351496Y-97286516D01*
X102305778Y-97397502D01*
X102264178Y-97498072D01*
X102221222Y-97601947D01*
X102182829Y-97694819D01*
X102150305Y-97773525D01*
X102124958Y-97834899D01*
X102108095Y-97875779D01*
X102101025Y-97893000D01*
X102100943Y-97893204D01*
X102086798Y-97907745D01*
X102059659Y-97907579D01*
X102016023Y-97891927D01*
X101952388Y-97860013D01*
X101947379Y-97857326D01*
X101900125Y-97833150D01*
X101862811Y-97816037D01*
X101843133Y-97809543D01*
X101827005Y-97817218D01*
X101790959Y-97838871D01*
X101739092Y-97871928D01*
X101675445Y-97913810D01*
X101604060Y-97961943D01*
X101533724Y-98009131D01*
X101468670Y-98051267D01*
X101414820Y-98084578D01*
X101376374Y-98106469D01*
X101357534Y-98114343D01*
X101354325Y-98113343D01*
X101331954Y-98097584D01*
X101293733Y-98065033D01*
X101243021Y-98018733D01*
X101183181Y-97961726D01*
X101117571Y-97897058D01*
X100900648Y-97679772D01*
X101069601Y-97431253D01*
X101238553Y-97182733D01*
X101187183Y-97071595D01*
X101187031Y-97071266D01*
X101156183Y-97000418D01*
X101124661Y-96921523D01*
X101099266Y-96851600D01*
X101095423Y-96840322D01*
X101076047Y-96787967D01*
X101058574Y-96747283D01*
X101046388Y-96726287D01*
X101041426Y-96723322D01*
X101011634Y-96713375D01*
X100961047Y-96700505D01*
X100895194Y-96686053D01*
X100819600Y-96671355D01*
X100796957Y-96667210D01*
X100715038Y-96652116D01*
X100638600Y-96637899D01*
X100575337Y-96625995D01*
X100532943Y-96617839D01*
X100456743Y-96602799D01*
X100456743Y-96285492D01*
X100456760Y-96246476D01*
X100457082Y-96151292D01*
X100458033Y-96080255D01*
X100459896Y-96029734D01*
X100462955Y-95996098D01*
X100467494Y-95975718D01*
X100473795Y-95964962D01*
X100482143Y-95960199D01*
X100490224Y-95958270D01*
X100523172Y-95951445D01*
X100575736Y-95941022D01*
X100642569Y-95928018D01*
X100718328Y-95913449D01*
X100797665Y-95898333D01*
X100875237Y-95883685D01*
X100945698Y-95870523D01*
X101003702Y-95859863D01*
X101043904Y-95852721D01*
X101060959Y-95850114D01*
X101062112Y-95848541D01*
X101071385Y-95828119D01*
X101087432Y-95789045D01*
X101107635Y-95737629D01*
X101135672Y-95668353D01*
X101170186Y-95588290D01*
X101202538Y-95517728D01*
X101209952Y-95501889D01*
X101230755Y-95452293D01*
X101243219Y-95414038D01*
X101244863Y-95394356D01*
X101244015Y-95392962D01*
X101230548Y-95372420D01*
X101203850Y-95332516D01*
X101166539Y-95277140D01*
X101121234Y-95210177D01*
X101070552Y-95135517D01*
X101013445Y-95050692D01*
X100970607Y-94984800D01*
X100941460Y-94936478D01*
X100924317Y-94902733D01*
X100917495Y-94880572D01*
X100919306Y-94867002D01*
X100919915Y-94865984D01*
X100936297Y-94846210D01*
X100969695Y-94810175D01*
X101016671Y-94761451D01*
X101073786Y-94703612D01*
X101137603Y-94640227D01*
X101203802Y-94575905D01*
X101268648Y-94515447D01*
X101316299Y-94474655D01*
X101347990Y-94452484D01*
X101364958Y-94447889D01*
X101367175Y-94448921D01*
X101390524Y-94462837D01*
X101432912Y-94490030D01*
X101490369Y-94527889D01*
X101558923Y-94573803D01*
X101634601Y-94625160D01*
X101881298Y-94793626D01*
X101992706Y-94743062D01*
X101995943Y-94741597D01*
X102064343Y-94711965D01*
X102136907Y-94682493D01*
X102198457Y-94659358D01*
X102198729Y-94659262D01*
X102247595Y-94641367D01*
X102285212Y-94626253D01*
X102303457Y-94617184D01*
X102303752Y-94616855D01*
X102309946Y-94598282D01*
X102320139Y-94556045D01*
X102333348Y-94494696D01*
X102348590Y-94418789D01*
X102364881Y-94332875D01*
X102365449Y-94329796D01*
X102381713Y-94242128D01*
X102396608Y-94162741D01*
X102409171Y-94096701D01*
X102418438Y-94049079D01*
X102423444Y-94024943D01*
X102423764Y-94023605D01*
X102427060Y-94013273D01*
X102433738Y-94005506D01*
X102447462Y-93999940D01*
X102471895Y-93996207D01*
X102510702Y-93993942D01*
X102567546Y-93992778D01*
X102646090Y-93992348D01*
X102750000Y-93992286D01*
X102763056Y-93992286D01*
X102863933Y-93992371D01*
G37*
D17*
%TO.C,R7*%
X97522936Y-82785000D02*
X97977064Y-82785000D01*
X97522936Y-81315000D02*
X97977064Y-81315000D01*
%TO.C,R6*%
X97522936Y-84985000D02*
X97977064Y-84985000D01*
X97522936Y-83515000D02*
X97977064Y-83515000D01*
%TO.C,DOWN*%
X94375000Y-87500000D02*
X97175000Y-87500000D01*
X94375000Y-85500000D02*
X94375000Y-87500000D01*
X97175000Y-87500000D02*
X97175000Y-85500000D01*
X97175000Y-85500000D02*
X94375000Y-85500000D01*
%TO.C,UP*%
X97425000Y-78750000D02*
X94625000Y-78750000D01*
X97425000Y-80750000D02*
X97425000Y-78750000D01*
X94625000Y-78750000D02*
X94625000Y-80750000D01*
X94625000Y-80750000D02*
X97425000Y-80750000D01*
%TO.C,C3*%
X100538748Y-80235000D02*
X101061252Y-80235000D01*
X100538748Y-78765000D02*
X101061252Y-78765000D01*
%TD*%
M02*
